<?xml version="1.0" standalone="no"?>
<!DOCTYPE svg PUBLIC "-//W3C//DTD SVG 1.1//EN" "http://www.w3.org/Graphics/SVG/1.1/DTD/svg11.dtd" >
<svg xmlns="http://www.w3.org/2000/svg" version="1.1">
<metadata>
Created by FontForge 20161003 at Tue Jan 22 01:27:13 2019
 By www-data
Copyright (c) 2012 by Fontsmith Ltd. All rights reserved. This font may not be altered in any way without prior permission of Fontsmith Ltd.
</metadata>
<defs>
<font id="FSElliot_Heavy" horiz-adv-x="618" >
  <font-face 
    font-family="FSElliot_Heavy"
    font-weight="900"
    font-stretch="normal"
    units-per-em="1000"
    panose-1="2 0 5 3 5 0 0 2 0 4"
    ascent="750"
    descent="-250"
    x-height="495"
    cap-height="672"
    bbox="-200 -321 1315 1008"
    underline-thickness="132"
    underline-position="-232"
    unicode-range="U+000D-FB04"
  />
<missing-glyph horiz-adv-x="500" 
d="M12 672h476v-672h-476v672zM250 380l162 244h-324zM60 92l162 244l-162 244v-488zM278 336l162 -244v488zM250 292l-162 -244h324z" />
    <glyph glyph-name="f_b" unicode="fb" horiz-adv-x="996" 
d="M100 362h-83v133h83v23q0 43 17.5 79.5t49 63t75.5 41t97 14.5q58 0 124.5 -7t143.5 -20v-229q26 23 60 35t72 12q51 0 93 -19t72.5 -53.5t47.5 -82.5t17 -105t-17 -104.5t-47.5 -82t-72.5 -53.5t-93 -19q-89 0 -147 58l-22 -46h-139v573q-23 4 -42 5.5t-36 1.5
q-35 0 -56 -19.5t-21 -49.5v-16h102v-133h-102v-362h-176v362zM790 247q0 54 -27 88t-71 34q-39 0 -64 -27t-25 -69v-52q0 -42 25 -68.5t64 -26.5q44 0 71 33.5t27 87.5z" />
    <glyph glyph-name="f_f_b" unicode="ffb" horiz-adv-x="1343" 
d="M100 362h-83v133h83v46q0 40 13.5 72t38 55t58.5 35.5t76 12.5q59 0 123 -16l-22 -130q-32 6 -58 6q-24 0 -38.5 -14t-14.5 -39v-28h171v23q0 43 17.5 79.5t49 63t75 41t96.5 14.5q58 0 125 -7t143 -20v-229q53 43 126 45q35 2 65 -7q37 -9 68 -31t53.5 -53.5t35.5 -71.5
t14 -87q0 -19 -1.5 -37.5t-5.5 -35.5q-8 -44 -28 -79.5t-49 -61t-66 -39.5t-80 -14q-89 0 -147 58l-22 -46h-139v573q-23 4 -41.5 5.5t-35.5 1.5q-36 0 -56.5 -19.5t-20.5 -49.5v-16h101v-133h-101v-362h-176v362h-171v-362h-176v362zM1136 247q0 54 -27 88t-71 34
q-39 0 -64 -27t-25 -69v-52q0 -42 25 -68.5t64 -26.5q44 0 71 33.5t27 87.5z" />
    <glyph glyph-name="f_h" unicode="fh" horiz-adv-x="996" 
d="M100 362h-83v133h83v23q0 43 17.5 79.5t49 63t75.5 41t97 14.5q58 0 124.5 -7t143.5 -20v-237q28 26 65.5 40.5t81.5 14.5t80.5 -14.5t62.5 -40t40.5 -61t14.5 -78.5v-313h-176v284q0 35 -21.5 57t-56.5 22q-40 0 -65.5 -27t-25.5 -71v-265h-176v573q-23 4 -42 5.5
t-36 1.5q-35 0 -56 -19.5t-21 -49.5v-16h102v-133h-102v-362h-176v362z" />
    <glyph glyph-name="f_f_h" unicode="ffh" horiz-adv-x="1343" 
d="M100 362h-83v133h83v46q0 40 13.5 72t38 55t58.5 35.5t76 12.5q59 0 123 -16l-22 -130q-32 6 -58 6q-24 0 -38.5 -14t-14.5 -39v-28h171v23q0 43 17.5 79.5t49 63t75 41t96.5 14.5q58 0 125 -7t143 -20v-237q28 26 65.5 40.5t81.5 14.5t80.5 -14.5t62.5 -40t40.5 -61
t14.5 -78.5v-313h-176v284q0 35 -21.5 57t-56.5 22q-40 0 -65.5 -27t-25.5 -71v-265h-176v573q-23 4 -41.5 5.5t-35.5 1.5q-36 0 -56.5 -19.5t-20.5 -49.5v-16h101v-133h-101v-362h-176v362h-171v-362h-176v362z" />
    <glyph glyph-name="f_j" unicode="fj" horiz-adv-x="659" 
d="M100 362h-83v133h83v23q0 43 17 79.5t47.5 63t73.5 41t94 14.5q87 0 186 -28l-30 -132q-37 11 -68.5 17.5t-58.5 6.5q-39 0 -62 -19t-23 -50v-16h331v-540q0 -39 -13.5 -71.5t-38 -55.5t-58.5 -35.5t-76 -12.5q-59 0 -124 16l23 130q31 -6 57 -6q25 0 39.5 14t14.5 39
v389h-155v-362h-176v362z" />
    <glyph glyph-name="f_f_j" unicode="ffj" horiz-adv-x="1005" 
d="M100 362h-83v133h83v46q0 39 13.5 71.5t38 55.5t58.5 35.5t76 12.5q59 0 123 -16l-22 -130q-32 6 -58 6q-24 0 -38.5 -14t-14.5 -39v-28h171v23q0 43 17 79.5t47.5 63t73 41t93.5 14.5q87 0 186 -28l-30 -132q-36 11 -68 17.5t-59 6.5q-39 0 -61.5 -19t-22.5 -50v-16h330
v-540q0 -39 -13.5 -71.5t-38 -55.5t-58.5 -35.5t-76 -12.5q-59 0 -123 16l22 130q31 -6 58 -6q24 0 38.5 14t14.5 39v389h-154v-362h-176v362h-171v-362h-176v362z" />
    <glyph glyph-name="f_k" unicode="fk" horiz-adv-x="931" 
d="M100 362h-83v133h83v23q0 43 17.5 79.5t49 63t75.5 41t97 14.5q55 0 121 -6.5t139 -20.5v-373l143 179h198l-202 -232l210 -263h-202l-122 160l-25 -28v-132h-168v573q-23 4 -42 5.5t-36 1.5q-35 0 -56 -19.5t-21 -49.5v-16h102v-133h-102v-362h-176v362z" />
    <glyph glyph-name="f_f_k" unicode="ffk" horiz-adv-x="1277" 
d="M100 362h-83v133h83v46q0 39 13.5 71.5t38 55.5t58.5 35.5t76 12.5q59 0 123 -16l-22 -130q-32 6 -58 6q-24 0 -38.5 -14t-14.5 -39v-28h171v23q0 43 17.5 79.5t49 63t75 41t96.5 14.5q55 0 121 -6.5t139 -20.5v-373l143 179h199l-203 -232l211 -263h-202l-123 160
l-25 -28v-132h-168v573q-23 4 -41.5 5.5t-35.5 1.5q-36 0 -56.5 -19.5t-20.5 -49.5v-16h101v-133h-101v-362h-176v362h-171v-362h-176v362z" />
    <glyph glyph-name="f_f" unicode="ff" horiz-adv-x="742" 
d="M100 362h-83v133h83v46q0 39 13.5 71.5t38 55.5t58.5 35.5t76 12.5q59 0 123 -16l-22 -130q-32 6 -58 6q-24 0 -38.5 -14t-14.5 -39v-28h171v46q0 39 13.5 71.5t37.5 55.5t58 35.5t76 12.5q59 0 124 -16l-23 -130q-32 6 -57 6t-39 -14t-14 -39v-28h101v-133h-101v-362
h-176v362h-171v-362h-176v362z" />
    <glyph glyph-name="fi" unicode="fi" horiz-adv-x="659" 
d="M100 362h-83v133h83v23q0 43 17 79.5t47.5 63t73.5 41t94 14.5q87 0 186 -28l-30 -132q-37 11 -68.5 17.5t-58.5 6.5q-39 0 -62 -19t-23 -50v-16h331v-495h-176v362h-155v-362h-176v362z" />
    <glyph glyph-name="fl" unicode="fl" horiz-adv-x="707" 
d="M100 362h-83v133h83v23q0 44 17.5 80.5t49 62.5t75.5 40.5t97 14.5q58 0 124.5 -7t143.5 -20v-522q0 -18 10.5 -28.5t28.5 -10.5q9 0 19.5 1t21.5 3l18 -132q-54 -12 -103 -12q-38 0 -69.5 12t-54 33.5t-35 51t-12.5 64.5v424q-23 4 -42 5.5t-36 1.5q-35 0 -56 -19.5
t-21 -49.5v-16h102v-133h-102v-362h-176v362z" />
    <glyph glyph-name="f_f_i" unicode="ffi" horiz-adv-x="1005" 
d="M100 362h-83v133h83v46q0 39 13.5 71.5t38 55.5t58.5 35.5t76 12.5q59 0 123 -16l-22 -130q-32 6 -58 6q-24 0 -38.5 -14t-14.5 -39v-28h171v23q0 43 17 79.5t47.5 63t73 41t93.5 14.5q87 0 186 -28l-30 -132q-36 11 -68 17.5t-59 6.5q-39 0 -61.5 -19t-22.5 -50v-16h330
v-495h-176v362h-154v-362h-176v362h-171v-362h-176v362z" />
    <glyph glyph-name="f_f_l" unicode="ffl" horiz-adv-x="1053" 
d="M100 362h-83v133h83v46q0 39 13.5 71.5t38 55.5t58.5 35.5t76 12.5q59 0 123 -16l-22 -130q-32 6 -58 6q-24 0 -38.5 -14t-14.5 -39v-28h171v23q0 44 17.5 80.5t49 62.5t75 40.5t96.5 14.5q58 0 125 -7t143 -20v-522q0 -18 10.5 -28.5t28.5 -10.5q9 0 19.5 1t21.5 3
l19 -132q-28 -6 -53 -9t-51 -3q-38 0 -69.5 12t-54 33.5t-35 51t-12.5 64.5v424q-23 4 -41.5 5.5t-35.5 1.5q-36 0 -56.5 -19.5t-20.5 -49.5v-16h101v-133h-101v-362h-176v362h-171v-362h-176v362z" />
    <glyph glyph-name=".notdef" horiz-adv-x="500" 
d="M12 672h476v-672h-476v672zM250 380l162 244h-324zM60 92l162 244l-162 244v-488zM278 336l162 -244v488zM250 292l-162 -244h324z" />
    <glyph glyph-name=".null" horiz-adv-x="0" 
 />
    <glyph glyph-name=".null" horiz-adv-x="0" 
 />
    <glyph glyph-name="nonmarkingreturn" unicode="&#xd;" horiz-adv-x="240" 
 />
    <glyph glyph-name="space" unicode=" " horiz-adv-x="240" 
 />
    <glyph glyph-name="exclam" unicode="!" horiz-adv-x="298" 
d="M61 672h176l-15 -436h-146zM49 89q0 44 28 72t72 28q45 0 72.5 -28t27.5 -72q0 -45 -27.5 -73t-72.5 -28q-47 0 -73.5 28t-26.5 73z" />
    <glyph glyph-name="quotedbl" unicode="&#x22;" horiz-adv-x="483" 
d="M44 672h162l-15 -265h-132zM277 672h162l-15 -265h-132z" />
    <glyph glyph-name="numbersign" unicode="#" horiz-adv-x="669" 
d="M16 268h104l26 136h-79v133h104l29 146l130 -18l-24 -128h135l28 146l130 -18l-24 -128h78v-133h-104l-26 -136h79v-133h-104l-29 -146l-130 18l24 128h-134l-29 -146l-130 18l24 128h-78v133zM254 268h135l26 136h-135z" />
    <glyph glyph-name="dollar" unicode="$" horiz-adv-x="576" 
d="M215 41q-41 5 -82.5 14.5t-83.5 26.5l41 136q49 -20 96.5 -31t86.5 -11q74 0 74 46q0 18 -22 27t-54.5 16.5t-70.5 17t-70.5 29t-54.5 53t-22 89.5q0 66 44.5 112t117.5 62v172h146v-169q69 -10 146 -39l-41 -136q-45 19 -86 29.5t-77 10.5q-35 0 -52.5 -11t-17.5 -31
q0 -18 22 -26t54.5 -14.5t70.5 -15.5t70.5 -29t54.5 -55t22 -92q0 -69 -45.5 -115.5t-120.5 -62.5v-172h-146v169z" />
    <glyph glyph-name="percent" unicode="%" horiz-adv-x="864" 
d="M460 168q0 39 14 72t39 57t60 37.5t76 13.5t75.5 -13.5t59.5 -37.5t39 -57t14 -72t-14 -72t-39 -57t-59.5 -37.5t-75.5 -13.5t-76 13.5t-60 37.5t-39 57t-14 72zM589 168q0 -36 16.5 -58t43.5 -22q26 0 42.5 22t16.5 58t-16.5 58t-42.5 22q-27 0 -43.5 -22t-16.5 -58z
M27 504q0 39 14 72t39 57t59.5 37.5t75.5 13.5t75.5 -13.5t60 -37.5t39.5 -57t14 -72t-14 -72t-39.5 -57t-60 -37.5t-75.5 -13.5t-75.5 13.5t-59.5 37.5t-39 57t-14 72zM156 504q0 -36 16.5 -58t42.5 -22q27 0 43.5 22t16.5 58t-16.5 58t-43.5 22q-26 0 -42.5 -22t-16.5 -58
zM640 705l88 -66l-504 -672l-88 66z" />
    <glyph glyph-name="ampersand" unicode="&#x26;" horiz-adv-x="668" 
d="M451 50q-87 -62 -180 -62q-55 0 -101 15t-79.5 41.5t-52 64t-18.5 82.5q0 57 35 104.5t100 77.5q-30 32 -46.5 66t-16.5 69q0 39 16 71t44 55.5t67 36.5t86 13q46 0 84 -12t65.5 -33.5t43 -51.5t15.5 -67q0 -55 -32 -100t-104 -80l88 -95q10 20 14 42t5 48h147
q-4 -117 -66 -200l123 -135h-191zM185 205q0 -19 8.5 -34.5t23 -27t32.5 -17.5t37 -6q22 0 41 7t36 19l-129 141q-23 -15 -36 -36.5t-13 -45.5zM305 552q-25 0 -40.5 -14t-15.5 -37q0 -29 46 -69q33 17 48.5 35.5t15.5 36.5q0 21 -15 34.5t-39 13.5z" />
    <glyph glyph-name="quotesingle" unicode="'" horiz-adv-x="250" 
d="M44 672h162l-15 -265h-132z" />
    <glyph glyph-name="parenleft" unicode="(" horiz-adv-x="364" 
d="M52 288q0 132 46.5 251.5t136.5 216.5l124 -81q-75 -86 -110 -184.5t-35 -202.5t35 -202.5t110 -184.5l-124 -81q-90 97 -136.5 216t-46.5 252z" />
    <glyph glyph-name="parenright" unicode=")" horiz-adv-x="364" 
d="M311 288q0 -132 -46 -251.5t-136 -216.5l-125 81q75 86 110.5 184.5t35.5 202.5t-35.5 202.5t-110.5 184.5l125 81q90 -97 136 -216t46 -252z" />
    <glyph glyph-name="asterisk" unicode="*" horiz-adv-x="509" 
d="M313 532l133 43l37 -111l-134 -44l83 -114l-94 -70l-83 119l-84 -119l-94 70l83 114l-134 44l37 111l133 -43v140h117v-140z" />
    <glyph glyph-name="plus" unicode="+" horiz-adv-x="576" 
d="M35 361h180v180h146v-180h180v-146h-180v-180h-146v180h-180v146z" />
    <glyph glyph-name="comma" unicode="," horiz-adv-x="282" 
d="M37 92q0 45 29 74.5t75 29.5q47 0 76 -33t29 -87q0 -70 -38.5 -132t-107.5 -104l-52 67q25 21 43 43.5t29 45.5q-38 5 -60.5 31.5t-22.5 64.5z" />
    <glyph glyph-name="hyphen" unicode="-" horiz-adv-x="320" 
d="M17 319h286v-132h-286v132z" />
    <glyph glyph-name="period" unicode="." horiz-adv-x="282" 
d="M37 92q0 46 29.5 75t74.5 29t74.5 -29t29.5 -75q0 -45 -29.5 -74.5t-74.5 -29.5t-74.5 29.5t-29.5 74.5z" />
    <glyph glyph-name="slash" unicode="/" horiz-adv-x="384" 
d="M271 733l139 -44l-297 -846l-139 44z" />
    <glyph glyph-name="zero" unicode="0" horiz-adv-x="576" 
d="M20 336q0 82 17.5 146.5t51.5 109.5t84 68.5t115 23.5t115 -23.5t84 -68.5t51.5 -109.5t17.5 -146.5t-17.5 -146.5t-51.5 -109.5t-84 -68.5t-115 -23.5t-115 23.5t-84 68.5t-51.5 109.5t-17.5 146.5zM185 336q0 -98 26.5 -151.5t76.5 -53.5t76.5 53.5t26.5 151.5
t-26.5 151.5t-76.5 53.5t-76.5 -53.5t-26.5 -151.5z" />
    <glyph glyph-name="one" unicode="1" horiz-adv-x="576" 
d="M249 503l-135 -76l-59 118l223 127h147v-672h-176v503z" />
    <glyph glyph-name="two" unicode="2" horiz-adv-x="576" 
d="M42 110l216 216q35 35 52.5 64.5t17.5 58.5q0 39 -25.5 63.5t-66.5 24.5q-38 0 -70.5 -15t-70.5 -38l-66 129q125 71 243 71q51 0 93 -15.5t72 -43.5t46.5 -66.5t16.5 -84.5q0 -108 -99 -207l-127 -127h234v-140h-466v110z" />
    <glyph glyph-name="three" unicode="3" horiz-adv-x="576" 
d="M172 407h53q45 0 72 20t27 52q0 29 -20 47t-54 18q-36 0 -76 -10.5t-82 -29.5l-55 129q63 27 123 39t119 12q49 0 89.5 -13.5t69.5 -38.5t45.5 -59t16.5 -76q0 -52 -25 -91t-68 -58q24 -9 44 -25t34.5 -38t22.5 -48t8 -54q0 -44 -17.5 -79.5t-49 -61.5t-75 -40t-95.5 -14
q-62 0 -127 12.5t-131 42.5l55 129q44 -21 87.5 -32.5t83.5 -11.5q38 0 63.5 20t25.5 53q0 36 -30.5 58t-80.5 22h-53v126z" />
    <glyph glyph-name="four" unicode="4" horiz-adv-x="576" 
d="M319 132h-301v118l293 422h169v-407h76v-133h-76v-132h-161v132zM319 265v201l-139 -201h139z" />
    <glyph glyph-name="five" unicode="5" horiz-adv-x="576" 
d="M493 532h-255v-109q10 1 21 1h20q54 0 98 -15t75 -43t48 -67.5t17 -88.5q0 -48 -19.5 -88.5t-54 -70.5t-82 -46.5t-104.5 -16.5q-59 0 -114.5 16t-106.5 47l67 129q75 -49 140 -49q47 0 74.5 22t27.5 60q0 43 -32 66.5t-92 23.5q-30 0 -64.5 -4t-72.5 -12v385h409v-140z
" />
    <glyph glyph-name="six" unicode="6" horiz-adv-x="576" 
d="M29 310q0 88 21 157.5t61 117.5t97 73.5t128 25.5q48 0 97.5 -11t97.5 -36l-59 -125q-32 17 -65 26.5t-64 9.5q-63 0 -103.5 -37.5t-45.5 -107.5q29 22 64 34t75 12q49 0 90 -16t70.5 -45.5t46 -70t16.5 -88.5q0 -53 -18.5 -97t-52 -76t-80 -50t-101.5 -18q-65 0 -116 22
t-86 63.5t-54 101.5t-19 135zM202 228q0 -46 26.5 -75t68.5 -29t69.5 28t27.5 70t-26 68t-68 26q-43 0 -70.5 -24.5t-27.5 -63.5z" />
    <glyph glyph-name="seven" unicode="7" horiz-adv-x="576" 
d="M325 532h-281v140h472v-110l-237 -562h-184z" />
    <glyph glyph-name="eight" unicode="8" horiz-adv-x="576" 
d="M288 407q37 10 59.5 27.5t22.5 48.5q0 30 -23 49.5t-59 19.5t-59 -19.5t-23 -49.5q0 -31 22.5 -48.5t59.5 -27.5zM21 186q0 53 29 94t82 64q-44 22 -69.5 61t-25.5 89q0 43 18 78t51 60t79.5 38.5t102.5 13.5t102.5 -13.5t79.5 -38.5t51 -60t18 -78q0 -50 -25.5 -89
t-69.5 -61q53 -24 82 -64.5t29 -93.5q0 -45 -19 -81.5t-54.5 -62.5t-84.5 -40t-109 -14t-109 14t-84.5 40t-54.5 62.5t-19 81.5zM288 281q-42 -11 -66.5 -31.5t-24.5 -52.5q0 -35 25.5 -56t65.5 -21t65.5 21t25.5 56q0 32 -24.5 52.5t-66.5 31.5z" />
    <glyph glyph-name="nine" unicode="9" horiz-adv-x="576" 
d="M547 362q0 -89 -21.5 -158.5t-61 -117.5t-96.5 -73t-128 -25q-48 0 -97.5 11t-97.5 36l59 125q32 -17 65 -26.5t64 -9.5q63 0 103.5 37.5t45.5 107.5q-29 -22 -64 -34t-75 -12q-49 0 -90 16t-70.5 45.5t-46 70t-16.5 88.5q0 53 18.5 97t52 76t80 50t101.5 18
q64 0 115.5 -22t86.5 -63.5t54 -101.5t19 -135zM374 444q0 46 -26.5 75t-68.5 29t-69.5 -28t-27.5 -70t26 -68t68 -26q43 0 70.5 24.5t27.5 63.5z" />
    <glyph glyph-name="colon" unicode=":" horiz-adv-x="298" 
d="M45 92q0 46 29.5 75t74.5 29t74.5 -29t29.5 -75q0 -45 -29.5 -74.5t-74.5 -29.5t-74.5 29.5t-29.5 74.5zM45 402q0 46 29.5 75t74.5 29t74.5 -29t29.5 -75q0 -45 -29.5 -74.5t-74.5 -29.5t-74.5 29.5t-29.5 74.5z" />
    <glyph glyph-name="semicolon" unicode=";" horiz-adv-x="298" 
d="M45 92q0 45 29 74.5t75 29.5q47 0 76 -33t29 -87q0 -70 -38.5 -132t-107.5 -104l-52 67q25 21 43 43.5t29 45.5q-38 5 -60.5 31.5t-22.5 64.5zM45 402q0 46 29.5 75t74.5 29t74.5 -29t29.5 -75q0 -45 -29.5 -74.5t-74.5 -29.5t-74.5 29.5t-29.5 74.5z" />
    <glyph glyph-name="less" unicode="&#x3c;" horiz-adv-x="576" 
d="M35 361l462 208l59 -139l-323 -142l323 -142l-59 -139l-462 208v146z" />
    <glyph glyph-name="equal" unicode="=" horiz-adv-x="576" 
d="M35 487h506v-147h-506v147zM35 236h506v-147h-506v147z" />
    <glyph glyph-name="greater" unicode="&#x3e;" horiz-adv-x="576" 
d="M541 215l-462 -208l-59 139l323 142l-323 142l59 139l462 -208v-146z" />
    <glyph glyph-name="question" unicode="?" horiz-adv-x="477" 
d="M149 236v22q0 43 18.5 71.5t40.5 51.5t40.5 43.5t18.5 47.5q0 29 -20.5 47t-52.5 18q-26 0 -52.5 -12t-57.5 -30l-66 125q98 64 205 64q48 0 88.5 -14t70 -38.5t45.5 -59t16 -75.5q0 -54 -20.5 -90.5t-46.5 -64t-49.5 -50t-28.5 -48.5l-2 -8h-147zM122 92q0 45 28 71
t73 26q44 0 72 -26t28 -71q0 -44 -28 -74t-72 -30q-45 0 -73 30t-28 74z" />
    <glyph glyph-name="at" unicode="@" horiz-adv-x="989" 
d="M28 247q0 99 35.5 182t99 143t151.5 93.5t193 33.5q100 0 183.5 -29.5t143.5 -82t93.5 -125t33.5 -159.5q0 -60 -17 -110.5t-48 -87t-74 -56.5t-94 -20q-45 0 -79.5 15t-56.5 43q-64 -58 -150 -58q-43 0 -79 16.5t-62.5 45.5t-41 69t-14.5 87t14.5 87t41 69t62.5 45.5
t79 16.5q68 0 114 -40l18 30h143v-262q0 -17 9 -28t24 -11q29 0 47 37t18 97q0 63 -22.5 114.5t-63.5 89t-97.5 58t-124.5 20.5q-73 0 -134 -24t-105 -66.5t-68.5 -102t-24.5 -130.5t24.5 -130t68.5 -102t105 -66.5t134 -23.5q54 0 114 18.5t123 53.5l66 -114
q-162 -87 -303 -87q-106 0 -194 33t-151.5 93t-98.5 143t-35 182zM421 247q0 -38 18.5 -61t47.5 -23q26 0 42 19t16 47v36q0 29 -16 47.5t-42 18.5q-29 0 -47.5 -23t-18.5 -61z" />
    <glyph glyph-name="A" unicode="A" horiz-adv-x="692" 
d="M262 672h169l272 -672h-183l-50 136h-247l-50 -136h-184zM270 268h152l-76 205z" />
    <glyph glyph-name="B" unicode="B" horiz-adv-x="669" 
d="M69 672h313q50 0 92 -13.5t72 -37.5t46.5 -58t16.5 -74q0 -48 -23.5 -83.5t-59.5 -54.5q50 -20 78.5 -62.5t28.5 -97.5q0 -42 -17.5 -77t-48.5 -60.5t-74.5 -39.5t-94.5 -14h-329v672zM245 132h124q38 0 61.5 21t23.5 56t-23.5 55.5t-61.5 20.5h-124v-153zM245 403h112
q34 0 55 18.5t21 49.5t-21 50t-55 19h-112v-137z" />
    <glyph glyph-name="C" unicode="C" horiz-adv-x="655" 
d="M28 336q0 76 26.5 140t73.5 110.5t113 72t146 25.5q65 0 130 -20.5t125 -58.5l-73 -121q-39 26 -77.5 40.5t-79.5 14.5q-44 0 -80 -15t-62 -41.5t-40.5 -64t-14.5 -82.5t14.5 -82.5t40.5 -64t62 -41.5t80 -15q41 0 79.5 14.5t77.5 40.5l73 -121q-60 -38 -125 -58.5
t-130 -20.5q-80 0 -146 26t-113 72t-73.5 110t-26.5 140z" />
    <glyph glyph-name="D" unicode="D" horiz-adv-x="740" 
d="M69 672h293q78 0 143 -24.5t111 -68.5t71.5 -106t25.5 -137q0 -74 -25.5 -136t-71.5 -106.5t-111 -69t-143 -24.5h-293v672zM526 336q0 43 -13.5 79t-38.5 62t-59 40.5t-75 14.5h-88v-392h88q41 0 75 14.5t59 40.5t38.5 62t13.5 79z" />
    <glyph glyph-name="E" unicode="E" horiz-adv-x="607" 
d="M69 672h487v-136h-304v-126h272v-132h-272v-142h320v-136h-503v672z" />
    <glyph glyph-name="F" unicode="F" horiz-adv-x="591" 
d="M69 672h487v-140h-304v-146h272v-139h-272v-247h-183v672z" />
    <glyph glyph-name="G" unicode="G" horiz-adv-x="724" 
d="M673 47q-67 -28 -133 -43.5t-137 -15.5q-83 0 -151.5 25.5t-118.5 72t-77.5 110t-27.5 140.5q0 76 27 140t76 110.5t116 72t148 25.5q130 0 263 -71l-66 -122q-48 25 -90 39t-85 14q-47 0 -85.5 -15.5t-66 -43t-43 -65.5t-15.5 -84q0 -47 15.5 -85.5t43 -65.5t66 -42
t85.5 -15t88 15v117h-134v133h302v-346z" />
    <glyph glyph-name="H" unicode="H" horiz-adv-x="788" 
d="M69 672h183v-258h284v258h183v-672h-183v274h-284v-274h-183v672z" />
    <glyph glyph-name="I" unicode="I" horiz-adv-x="321" 
d="M69 672h183v-672h-183v672z" />
    <glyph glyph-name="J" unicode="J" horiz-adv-x="461" 
d="M392 207q0 -49 -16.5 -89.5t-47 -69t-72.5 -44.5t-93 -16q-36 0 -73.5 4.5t-79.5 15.5l22 139q23 -5 45.5 -8.5t41.5 -3.5q39 0 64.5 24.5t25.5 65.5v447h183v-465z" />
    <glyph glyph-name="K" unicode="K" horiz-adv-x="698" 
d="M69 672h176v-284l248 284h210l-286 -314l298 -358h-213l-207 251l-50 -54v-197h-176v672z" />
    <glyph glyph-name="L" unicode="L" horiz-adv-x="543" 
d="M69 672h183v-532h273v-140h-456v672z" />
    <glyph glyph-name="M" unicode="M" horiz-adv-x="876" 
d="M69 672h176l193 -267l193 267h176v-672h-168v423l-151 -209h-100l-150 209v-423h-169v672z" />
    <glyph glyph-name="N" unicode="N" horiz-adv-x="788" 
d="M69 672h176l306 -423v423h168v-672h-176l-305 423v-423h-169v672z" />
    <glyph glyph-name="O" unicode="O" horiz-adv-x="788" 
d="M28 336q0 76 27 140t75.5 110.5t115.5 72t148 25.5t148 -25.5t116 -72t76 -110.5t27 -140q0 -77 -27 -140.5t-76 -110t-116 -72t-148 -25.5t-148 25.5t-115.5 72t-75.5 110t-27 140.5zM215 336q0 -45 13 -82.5t36.5 -65t56.5 -42.5t73 -15t73 15t57 42.5t37 65t13 82.5
t-13 82.5t-37 65t-57 42.5t-73 15t-73 -15t-56.5 -42.5t-36.5 -65t-13 -82.5z" />
    <glyph glyph-name="P" unicode="P" horiz-adv-x="637" 
d="M69 672h297q55 0 101 -17t79.5 -48t52 -73.5t18.5 -93.5t-18.5 -94t-52 -73.5t-79.5 -48t-101 -17.5h-121v-207h-176v672zM245 347h92q45 0 73 25.5t28 67.5q0 40 -28 66t-73 26h-92v-185z" />
    <glyph glyph-name="Q" unicode="Q" horiz-adv-x="788" 
d="M28 336q0 76 27 140t75.5 110.5t115.5 72t148 25.5t148 -25.5t116 -72t76 -110.5t27 -140q0 -88 -35 -158t-96 -116l132 -94l-88 -111l-191 141q-21 -5 -43 -7.5t-46 -2.5q-81 0 -148 25.5t-115.5 72t-75.5 110t-27 140.5zM215 336q0 -45 13 -82.5t36.5 -65t56.5 -42.5
t73 -15t73 15t57 42.5t37 65t13 82.5t-13 82.5t-37 65t-57 42.5t-73 15t-73 -15t-56.5 -42.5t-36.5 -65t-13 -82.5z" />
    <glyph glyph-name="R" unicode="R" horiz-adv-x="669" 
d="M69 672h304q54 0 98.5 -16.5t77 -45.5t50.5 -69.5t18 -89.5q0 -73 -37.5 -126.5t-103.5 -72.5l172 -252h-198l-143 223h-62v-223h-176v672zM245 363h99q41 0 67 23t26 62q0 38 -26 61t-67 23h-99v-169z" />
    <glyph glyph-name="S" unicode="S" horiz-adv-x="597" 
d="M35 480q0 45 19.5 82.5t54.5 64.5t83.5 42t106.5 15q59 0 118.5 -12t124.5 -36l-41 -136q-103 41 -188 41q-45 0 -71.5 -16t-26.5 -45q0 -27 26 -40.5t65 -23t84.5 -20.5t84.5 -33.5t65 -61.5t26 -105q0 -47 -19.5 -85t-55 -65.5t-84.5 -42.5t-108 -15q-63 0 -129.5 13.5
t-138.5 42.5l41 136q59 -23 113 -36t99 -13q48 0 75 17t27 48q0 28 -26 42t-65 24.5t-84.5 22t-84.5 33.5t-65 60t-26 102z" />
    <glyph glyph-name="T" unicode="T" horiz-adv-x="607" 
d="M212 532h-195v140h572v-140h-194v-532h-183v532z" />
    <glyph glyph-name="U" unicode="U" horiz-adv-x="788" 
d="M727 270q0 -63 -25 -115t-69 -89t-105 -57.5t-134 -20.5t-134 20.5t-105.5 57.5t-69 89t-24.5 115v402h183v-395q0 -33 11 -59.5t31 -46t47.5 -30t60.5 -10.5t61 10.5t47.5 30t30.5 46t11 59.5v395h183v-402z" />
    <glyph glyph-name="V" unicode="V" horiz-adv-x="692" 
d="M431 0h-169l-273 672h191l166 -452l167 452h190z" />
    <glyph glyph-name="W" unicode="W" horiz-adv-x="1028" 
d="M815 0h-178l-123 452l-122 -452h-178l-213 672h183l123 -452l123 452h169l122 -452l123 452h183z" />
    <glyph glyph-name="X" unicode="X" horiz-adv-x="700" 
d="M233 344l-230 328h201l146 -214l146 214h202l-231 -328l243 -344h-206l-154 230l-154 -230h-205z" />
    <glyph glyph-name="Y" unicode="Y" horiz-adv-x="634" 
d="M225 260l-244 412h198l138 -250l138 250h198l-244 -412v-260h-184v260z" />
    <glyph glyph-name="Z" unicode="Z" horiz-adv-x="645" 
d="M31 103l336 429h-324v140h559v-103l-336 -429h348v-140h-583v103z" />
    <glyph glyph-name="bracketleft" unicode="[" horiz-adv-x="364" 
d="M70 719h275v-140h-114v-582h114v-140h-275v862z" />
    <glyph glyph-name="backslash" unicode="\" horiz-adv-x="384" 
d="M-26 689l139 44l297 -846l-139 -44z" />
    <glyph glyph-name="bracketright" unicode="]" horiz-adv-x="364" 
d="M294 -143h-275v140h113v582h-113v140h275v-862z" />
    <glyph glyph-name="asciicircum" unicode="^" horiz-adv-x="576" 
d="M361 672l208 -477l-139 -51l-142 330l-142 -330l-139 51l208 477h146z" />
    <glyph glyph-name="underscore" unicode="_" horiz-adv-x="480" 
d="M0 -62h480v-132h-480v132z" />
    <glyph glyph-name="grave" unicode="`" horiz-adv-x="240" 
d="M233 613l-66 -95l-211 125l77 110z" />
    <glyph glyph-name="a" unicode="a" horiz-adv-x="564" 
d="M27 149q0 80 60.5 123.5t169.5 43.5q39 0 85 -8v4q0 29 -24 47.5t-62 18.5q-37 0 -77.5 -9.5t-82.5 -26.5l-44 121q60 23 116 33.5t110 10.5q51 0 92.5 -14.5t71 -40.5t45.5 -62.5t16 -81.5v-163q0 -25 25 -25q6 0 12 0.5t11 1.5l11 -126q-40 -8 -83 -8q-37 0 -65 15
t-45 42q-35 -28 -77 -42.5t-83 -14.5q-40 0 -73.5 12t-57.5 33t-37.5 50.5t-13.5 65.5zM192 160q0 -22 18 -36.5t46 -14.5q38 0 62 23.5t24 59.5v18q-15 3 -30.5 5t-32.5 2q-39 0 -63 -15.5t-24 -41.5z" />
    <glyph glyph-name="b" unicode="b" 
d="M52 704h176v-244q56 47 133 47q51 0 93 -19t72.5 -53.5t47.5 -82.5t17 -105t-17 -104.5t-47.5 -82t-72.5 -53.5t-93 -19q-44 0 -81.5 14.5t-65.5 43.5l-22 -46h-140v704zM412 247q0 54 -27.5 88t-70.5 34q-40 0 -64.5 -27t-24.5 -69v-52q0 -42 24.5 -68.5t64.5 -26.5
q43 0 70.5 33.5t27.5 87.5z" />
    <glyph glyph-name="c" unicode="c" horiz-adv-x="509" 
d="M27 247q0 57 20.5 104.5t57 82t87 54t110.5 19.5q107 0 203 -60l-70 -117q-27 17 -53 27t-55 10q-54 0 -87 -33t-33 -87t33 -86.5t87 -32.5q29 0 55 10t53 27l70 -118q-97 -59 -203 -59q-60 0 -110.5 19t-87 53.5t-57 82t-20.5 104.5z" />
    <glyph glyph-name="d" unicode="d" 
d="M566 0h-140l-22 46q-28 -29 -65.5 -43.5t-81.5 -14.5q-51 0 -93 19t-72.5 53.5t-47.5 82t-17 104.5t17 105t47.5 82.5t72.5 53.5t93 19q38 0 72 -12t61 -35v244h176v-704zM207 247q0 -54 27 -87.5t70 -33.5q40 0 64.5 26.5t24.5 68.5v52q0 42 -24.5 69t-64.5 27
q-43 0 -70 -34t-27 -88z" />
    <glyph glyph-name="e" unicode="e" horiz-adv-x="564" 
d="M27 247q0 57 19.5 105t55 82.5t84.5 53.5t108 19q55 0 101.5 -18.5t79.5 -51.5t51.5 -79.5t18.5 -102.5q0 -28 -3 -53h-339q10 -39 44.5 -62t84.5 -23q60 0 137 40l52 -118q-57 -26 -110.5 -38.5t-100.5 -12.5q-63 0 -115 19t-89.5 53.5t-58 82t-20.5 104.5zM294 378
q-35 0 -59 -20t-32 -53h173q-5 33 -27 53t-55 20z" />
    <glyph glyph-name="f" unicode="f" horiz-adv-x="396" 
d="M100 362h-83v133h83v46q0 39 13.5 71.5t38 55.5t58.5 35.5t76 12.5q59 0 123 -16l-22 -130q-32 6 -58 6q-24 0 -38.5 -14t-14.5 -39v-28h102v-133h-102v-362h-176v362z" />
    <glyph glyph-name="g" unicode="g" 
d="M566 26q0 -54 -21.5 -99t-60 -77.5t-91.5 -51t-115 -18.5q-53 0 -109.5 11.5t-116.5 35.5l48 129q47 -21 88.5 -30.5t74.5 -9.5q57 0 92 28.5t35 74.5v16q-27 -23 -61 -35t-72 -12q-51 0 -93 19t-72.5 53.5t-47.5 82t-17 104.5t17 105t47.5 82.5t72.5 53.5t93 19
q44 0 81.5 -15t65.5 -43l22 46h140v-469zM207 247q0 -54 27 -87.5t70 -33.5q40 0 64.5 26.5t24.5 68.5v52q0 42 -24.5 69t-64.5 27q-43 0 -70 -34t-27 -88z" />
    <glyph glyph-name="h" unicode="h" 
d="M52 704h176v-252q29 26 66 40.5t82 14.5q44 0 80.5 -14.5t62.5 -40t40.5 -61t14.5 -78.5v-313h-176v284q0 35 -22 57t-56 22q-41 0 -66.5 -27t-25.5 -71v-265h-176v704z" />
    <glyph glyph-name="i" unicode="i" horiz-adv-x="281" 
d="M52 495h176v-495h-176v495zM40 625q0 45 28 73t72 28q45 0 73 -28t28 -73q0 -44 -28 -72t-73 -28q-44 0 -72 28t-28 72z" />
    <glyph glyph-name="j" unicode="j" horiz-adv-x="289" 
d="M236 -45q0 -39 -13.5 -71.5t-37.5 -55.5t-58 -35.5t-76 -12.5q-59 0 -124 16l22 130q33 -6 58 -6t39 14t14 39v522h176v-540zM48 625q0 45 28 73t72 28q45 0 73 -28t28 -73q0 -44 -28 -72t-73 -28q-44 0 -72 28t-28 72z" />
    <glyph glyph-name="k" unicode="k" horiz-adv-x="553" 
d="M52 704h169v-388l143 179h198l-203 -232l211 -263h-202l-122 160l-25 -27v-133h-169v704z" />
    <glyph glyph-name="l" unicode="l" horiz-adv-x="329" 
d="M228 167q0 -18 11 -28.5t29 -10.5q9 0 19.5 1t21.5 3l18 -132q-54 -12 -103 -12q-80 0 -126 43.5t-46 117.5v555h176v-537z" />
    <glyph glyph-name="m" unicode="m" horiz-adv-x="932" 
d="M52 495h140l22 -50q67 62 154 62q50 0 90 -19.5t63 -54.5q40 36 83.5 55t92.5 19q42 0 77 -13.5t60 -38.5t39 -59t14 -75v-321h-176v292q0 32 -19 51.5t-51 19.5q-37 0 -60 -25t-23 -65v-273h-176v292q0 32 -19.5 51.5t-50.5 19.5q-38 0 -61 -25t-23 -65v-273h-176v495z
" />
    <glyph glyph-name="n" unicode="n" 
d="M52 495h140l22 -54q29 32 70.5 49t91.5 17q44 0 80.5 -14.5t62.5 -40t40.5 -61t14.5 -78.5v-313h-176v284q0 35 -22 57t-56 22q-41 0 -66.5 -27t-25.5 -71v-265h-176v495z" />
    <glyph glyph-name="o" unicode="o" 
d="M27 247q0 57 21 105t58.5 82.5t89 53.5t113.5 19t114 -19t89.5 -53.5t58 -82.5t20.5 -105t-20.5 -104.5t-58 -82t-89.5 -53.5t-114 -19t-113.5 19t-89 53.5t-58.5 82t-21 104.5zM207 247q0 -54 28.5 -88.5t73.5 -34.5t74 34.5t29 88.5q0 55 -29 89.5t-74 34.5
t-73.5 -34.5t-28.5 -89.5z" />
    <glyph glyph-name="p" unicode="p" 
d="M52 495h140l22 -46q28 28 65.5 43t81.5 15q51 0 93 -19t72.5 -53.5t47.5 -82.5t17 -105t-17 -104.5t-47.5 -82t-72.5 -53.5t-93 -19q-77 0 -133 47v-243h-176v703zM412 247q0 54 -27.5 88t-70.5 34q-40 0 -64.5 -27t-24.5 -69v-52q0 -42 24.5 -68.5t64.5 -26.5
q43 0 70.5 33.5t27.5 87.5z" />
    <glyph glyph-name="q" unicode="q" 
d="M566 -208h-176v243q-27 -23 -61 -35t-72 -12q-51 0 -93 19t-72.5 53.5t-47.5 82t-17 104.5t17 105t47.5 82.5t72.5 53.5t93 19q44 0 81.5 -15t65.5 -43l22 46h140v-703zM207 247q0 -54 27 -87.5t70 -33.5q40 0 64.5 26.5t24.5 68.5v52q0 42 -24.5 69t-64.5 27
q-43 0 -70 -34t-27 -88z" />
    <glyph glyph-name="r" unicode="r" horiz-adv-x="418" 
d="M52 495h140l22 -62q23 33 58.5 51.5t79.5 18.5q12 0 27.5 -2t29.5 -5l-15 -139q-12 2 -27 4t-30 2q-51 0 -80 -33t-29 -87v-243h-176v495z" />
    <glyph glyph-name="s" unicode="s" horiz-adv-x="476" 
d="M31 347q0 34 15 63.5t42.5 51t65.5 33.5t84 12q47 0 95.5 -9.5t99.5 -26.5l-37 -125q-38 14 -74.5 23t-69.5 9q-49 0 -49 -31q0 -15 18 -21.5t45.5 -12t59.5 -13t59.5 -24.5t45.5 -46t18 -78q0 -36 -15.5 -66t-43 -51.5t-66.5 -34t-86 -12.5q-101 0 -211 40l37 125
q87 -36 159 -36q26 0 39.5 9.5t13.5 25.5q0 15 -18 22.5t-45.5 13t-59 13.5t-59 24.5t-45.5 45t-18 76.5z" />
    <glyph glyph-name="t" unicode="t" horiz-adv-x="428" 
d="M276 495h118v-133h-118v-181q0 -25 14.5 -39t38.5 -14q26 0 58 6l22 -130q-64 -16 -123 -16q-42 0 -76 12.5t-58.5 35.5t-38 55.5t-13.5 71.5v199h-83v133h83v144h176v-144z" />
    <glyph glyph-name="u" unicode="u" 
d="M566 0h-140l-22 54q-29 -32 -70.5 -49t-91.5 -17q-44 0 -80 14t-62.5 39.5t-41 61.5t-14.5 79v313h176v-284q0 -35 22 -57.5t57 -22.5q40 0 65.5 27t25.5 71v266h176v-495z" />
    <glyph glyph-name="v" unicode="v" horiz-adv-x="554" 
d="M358 0h-162l-200 495h184l97 -297l97 297h184z" />
    <glyph glyph-name="w" unicode="w" horiz-adv-x="810" 
d="M646 0h-169l-72 296l-72 -296h-169l-160 495h176l72 -296l72 296h162l72 -296l72 296h176z" />
    <glyph glyph-name="x" unicode="x" horiz-adv-x="554" 
d="M163 253l-165 242h194l85 -133l85 133h194l-165 -242l173 -253h-198l-89 145l-89 -145h-198z" />
    <glyph glyph-name="y" unicode="y" horiz-adv-x="554" 
d="M347 -38q-71 -182 -223 -182q-17 0 -39.5 2.5t-45.5 7.5l22 136q25 -6 45 -6q29 0 48.5 15t33.5 50l9 22l-201 488h184l97 -297l97 297h184z" />
    <glyph glyph-name="z" unicode="z" horiz-adv-x="508" 
d="M27 96l218 266h-210v133h438v-96l-219 -267h227v-132h-454v96z" />
    <glyph glyph-name="braceleft" unicode="{" horiz-adv-x="364" 
d="M4 358h16q29 0 48 16.5t19 40.5q0 31 -4 58.5t-4 59.5q0 40 15.5 74.5t42.5 59t65 38.5t83 14h60v-140h-16q-38 0 -61.5 -23.5t-23.5 -58.5q0 -25 2.5 -48.5t2.5 -48.5q0 -41 -20.5 -70.5t-59.5 -41.5q39 -12 59.5 -41.5t20.5 -70.5q0 -25 -2.5 -48.5t-2.5 -48.5
q0 -35 23.5 -58.5t61.5 -23.5h16v-140h-60q-45 0 -83 14t-65 38.5t-42.5 58.5t-15.5 75q0 32 4 59.5t4 58.5q0 24 -19 40.5t-48 16.5h-16v140z" />
    <glyph glyph-name="bar" unicode="|" horiz-adv-x="240" 
d="M47 736h146v-960h-146v960z" />
    <glyph glyph-name="braceright" unicode="}" horiz-adv-x="364" 
d="M359 218h-16q-29 0 -48 -16.5t-19 -40.5q0 -31 4.5 -58.5t4.5 -59.5q0 -41 -15.5 -75t-42.5 -58.5t-65 -38.5t-83 -14h-60v140h16q37 0 61 23.5t24 58.5q0 25 -2.5 48.5t-2.5 48.5q0 41 20.5 70.5t58.5 41.5q-38 12 -58.5 41.5t-20.5 70.5q0 25 2.5 48.5t2.5 48.5
q0 35 -24 58.5t-61 23.5h-16v140h60q45 0 83 -14t65 -38.5t42.5 -59t15.5 -74.5q0 -32 -4.5 -59.5t-4.5 -58.5q0 -24 19 -40.5t48 -16.5h16v-140z" />
    <glyph glyph-name="asciitilde" unicode="~" horiz-adv-x="576" 
d="M6 323q42 31 83 46.5t88 15.5q36 0 63.5 -7.5t53 -16.5t50.5 -16.5t55 -7.5q25 0 46.5 9.5t47.5 31.5l77 -125q-42 -31 -83 -46.5t-88 -15.5q-36 0 -64 7.5t-53 16.5t-50 16.5t-55 7.5q-25 0 -46.5 -9.5t-47.5 -31.5z" />
    <glyph glyph-name="nonbreakingspace" unicode="&#xa0;" horiz-adv-x="240" 
 />
    <glyph glyph-name="exclamdown" unicode="&#xa1;" horiz-adv-x="298" 
d="M237 -177h-176l15 436h146zM249 406q0 -44 -27.5 -72t-72.5 -28q-44 0 -72 28t-28 72t28 72t72 28q47 0 73.5 -28t26.5 -72z" />
    <glyph glyph-name="cent" unicode="&#xa2;" horiz-adv-x="576" 
d="M60 336q0 46 13.5 86t38 72t59 54.5t76.5 34.5v153h146v-146q76 -10 145 -54l-70 -118q-28 17 -53.5 27.5t-53.5 10.5q-54 0 -87.5 -33t-33.5 -87t33.5 -87t87.5 -33q28 0 53.5 10.5t53.5 27.5l70 -118q-68 -43 -145 -55v-145h-146v153q-42 12 -76.5 34.5t-59 54.5
t-38 72t-13.5 86z" />
    <glyph glyph-name="sterling" unicode="&#xa3;" horiz-adv-x="576" 
d="M51 136h83v142h-67v132h67v59q0 47 17.5 86.5t49 68t74 44.5t93.5 16q42 0 86.5 -9t92.5 -26l-44 -129q-25 10 -49.5 15.5t-49.5 5.5q-38 0 -62.5 -24t-24.5 -62v-45h157v-132h-157v-142h224v-136h-490v136z" />
    <glyph glyph-name="currency" unicode="&#xa4;" horiz-adv-x="576" 
d="M12 163l76 77q-19 44 -19 96q0 51 19 95l-76 78l103 103l77 -77q43 20 96 20q52 0 95 -20l78 77l103 -103l-77 -78q20 -43 20 -95q0 -53 -20 -96l77 -77l-103 -103l-78 76q-44 -19 -95 -19q-52 0 -96 19l-77 -76zM201 336q0 -38 24.5 -62t62.5 -24t62.5 24t24.5 62
t-24.5 62.5t-62.5 24.5t-62.5 -24.5t-24.5 -62.5z" />
    <glyph glyph-name="yen" unicode="&#xa5;" horiz-adv-x="576" 
d="M196 104h-129v118h129v41h-129v117h85l-176 292h191l121 -233l121 233h191l-176 -292h85v-117h-129v-41h129v-118h-129v-104h-184v104z" />
    <glyph glyph-name="brokenbar" unicode="&#xa6;" horiz-adv-x="240" 
d="M193 688v-384h-146v384h146zM47 -176v384h146v-384h-146z" />
    <glyph glyph-name="section" unicode="&#xa7;" horiz-adv-x="556" 
d="M51 498q0 41 17 75t48 59t74.5 38.5t95.5 13.5q53 0 107 -11t112 -33l-40 -136q-89 37 -165 37q-35 0 -52.5 -11.5t-17.5 -31.5q0 -18 22 -27t54.5 -16.5t71 -18.5t71 -31.5t54.5 -55t22 -90.5q0 -75 -59 -125q20 -20 31.5 -48.5t11.5 -67.5q0 -44 -17.5 -79t-49.5 -59.5
t-76 -38t-96 -13.5q-56 0 -117 11.5t-122 34.5l40 136q51 -18 98 -28.5t86 -10.5q74 0 74 47q0 18 -22 28t-54.5 18.5t-70.5 19.5t-70.5 31.5t-54.5 54t-22 87.5q0 77 61 124q-21 20 -33 48.5t-12 68.5zM214 266q0 -14 8 -23.5t22 -17t32.5 -12.5t38.5 -10q14 8 22 20.5
t8 26.5t-7.5 23.5t-20.5 17t-30.5 12.5t-36.5 10q-17 -7 -26.5 -19.5t-9.5 -27.5z" />
    <glyph glyph-name="dieresis" unicode="&#xa8;" horiz-adv-x="240" 
d="M-87 625q0 40 24.5 65t64.5 25t64.5 -25t24.5 -65t-24.5 -64.5t-64.5 -24.5t-64.5 24.5t-24.5 64.5zM149 625q0 40 24.5 65t64.5 25t64.5 -25t24.5 -65t-24.5 -64.5t-64.5 -24.5t-64.5 24.5t-24.5 64.5z" />
    <glyph glyph-name="copyright" unicode="&#xa9;" horiz-adv-x="832" 
d="M48 336q0 81 27 148.5t76 116.5t116.5 76t148.5 27t148.5 -27t116.5 -76t76 -116.5t27 -148.5t-27 -148.5t-76 -116.5t-116.5 -76t-148.5 -27t-148.5 27t-116.5 76t-76 116.5t-27 148.5zM137 336q0 -62 20.5 -113t57.5 -88t88 -57.5t113 -20.5q61 0 112.5 20.5t88.5 57.5
t57.5 88t20.5 113q0 61 -20.5 112.5t-57.5 88.5t-88.5 57.5t-112.5 20.5q-62 0 -113 -20.5t-88 -57.5t-57.5 -88.5t-20.5 -112.5zM203 336q0 47 16.5 87t46 68.5t71 44.5t91.5 16q42 0 84 -12t81 -37l-54 -89q-46 31 -93 31q-48 0 -78.5 -30t-30.5 -79t30.5 -79t78.5 -30
q47 0 93 31l54 -89q-39 -25 -81 -37t-84 -12q-50 0 -91.5 16t-71 44.5t-46 68.5t-16.5 87z" />
    <glyph glyph-name="ordfeminine" unicode="&#xaa;" horiz-adv-x="401" 
d="M17 293h367v-89h-367v89zM24 451q0 50 42 78.5t115 28.5q13 0 26 -1.5t25 -3.5q0 18 -13 31t-41 13q-48 0 -108 -24l-29 85q84 29 150 29q73 0 115 -37t42 -101v-95q0 -15 14 -15q8 0 13 1l9 -90q-13 -2 -27.5 -4t-30.5 -2q-52 0 -75 37q-20 -17 -47 -27t-57 -10
q-54 0 -88.5 30t-34.5 77zM144 458q0 -12 10.5 -20.5t26.5 -8.5q22 0 36.5 12.5t14.5 32.5v13q-8 2 -18.5 2.5t-18.5 0.5q-24 0 -37.5 -8.5t-13.5 -23.5z" />
    <glyph glyph-name="guillemotleft" unicode="&#xab;" horiz-adv-x="625" 
d="M25 290l199 224l103 -81l-133 -180l133 -179l-103 -81l-199 223v74zM304 290l199 224l103 -81l-133 -180l133 -179l-103 -81l-199 223v74z" />
    <glyph glyph-name="logicalnot" unicode="&#xac;" horiz-adv-x="576" 
d="M35 361h506v-326h-147v180h-359v146z" />
    <glyph glyph-name="uni00AD" unicode="&#xad;" horiz-adv-x="320" 
d="M20 319h286v-132h-286v132z" />
    <glyph glyph-name="registered" unicode="&#xae;" horiz-adv-x="832" 
d="M48 336q0 81 27 148.5t76 116.5t116.5 76t148.5 27t148.5 -27t116.5 -76t76 -116.5t27 -148.5t-27 -148.5t-76 -116.5t-116.5 -76t-148.5 -27t-148.5 27t-116.5 76t-76 116.5t-27 148.5zM137 336q0 -62 20.5 -113t57.5 -88t88 -57.5t113 -20.5q61 0 112.5 20.5t88.5 57.5
t57.5 88t20.5 113q0 61 -20.5 112.5t-57.5 88.5t-88.5 57.5t-112.5 20.5q-62 0 -113 -20.5t-88 -57.5t-57.5 -88.5t-20.5 -112.5zM241 544h197q69 0 112 -38.5t43 -101.5q0 -45 -22 -77.5t-58 -45.5l94 -153h-137l-73 133h-34v-133h-122v416zM363 355h58q22 0 35 12t13 34
q0 21 -13 33t-35 12h-58v-91z" />
    <glyph glyph-name="macron" unicode="&#xaf;" horiz-adv-x="240" 
d="M-45 684h330v-117h-330v117z" />
    <glyph glyph-name="degree" unicode="&#xb0;" horiz-adv-x="349" 
d="M31 540q0 31 10.5 57.5t30 45.5t45.5 30t58 11q31 0 57.5 -11t45.5 -30t30 -45.5t11 -57.5q0 -32 -11 -58t-30 -45.5t-45.5 -30t-57.5 -10.5q-32 0 -58 10.5t-45.5 30t-30 45.5t-10.5 58zM123 540q0 -23 14.5 -37.5t37.5 -14.5t37 14.5t14 37.5t-14 37t-37 14t-37.5 -14
t-14.5 -37z" />
    <glyph glyph-name="plusminus" unicode="&#xb1;" horiz-adv-x="576" 
d="M35 147h506v-147h-506v147zM35 511h180v180h146v-180h180v-147h-180v-179h-146v179h-180v147z" />
    <glyph glyph-name="twosuperior" unicode="&#xb2;" horiz-adv-x="347" 
d="M19 463l125 126q20 20 30 35.5t10 30.5q0 21 -12.5 33.5t-34.5 12.5q-21 0 -40.5 -8.5t-41.5 -22.5l-47 93q79 45 155 45q33 0 59.5 -10t46 -27.5t30 -42t10.5 -53.5q0 -35 -14 -65t-45 -60l-66 -66h130v-100h-295v79z" />
    <glyph glyph-name="threesuperior" unicode="&#xb3;" horiz-adv-x="347" 
d="M94 639h40q23 0 36 11t13 26t-10 24.5t-28 9.5q-21 0 -44.5 -6.5t-48.5 -17.5l-39 89q79 33 156 33q31 0 57 -8.5t44.5 -24.5t29 -37.5t10.5 -47.5q0 -31 -13 -54.5t-38 -35.5q26 -12 43.5 -39t17.5 -62q0 -27 -11 -49.5t-31.5 -39t-48 -25.5t-60.5 -9q-41 0 -82.5 8.5
t-83.5 27.5l39 88q26 -12 51 -19t49 -7q21 0 34.5 10.5t13.5 27.5q0 18 -15 30.5t-41 12.5h-40v84z" />
    <glyph glyph-name="acute" unicode="&#xb4;" horiz-adv-x="240" 
d="M88 518l-66 95l200 140l76 -110z" />
    <glyph glyph-name="uni00B5" unicode="&#xb5;" horiz-adv-x="642" 
d="M52 495h176v-284q0 -35 22 -57.5t57 -22.5q40 0 65.5 27t25.5 71v266h176v-342q0 -25 25 -25q5 0 10.5 0.5t10.5 1.5l13 -134q-20 -4 -40 -6t-43 -2q-42 0 -73.5 18t-48.5 50q-29 -33 -62 -48.5t-65 -15.5q-43 0 -73 12v-212h-176v703z" />
    <glyph glyph-name="paragraph" unicode="&#xb6;" 
d="M271 215q-56 0 -102 17t-79 47.5t-51.5 72.5t-18.5 92t18.5 92t51.5 72t79 47t102 17h278v-832h-147v685h-97v-310h-34z" />
    <glyph glyph-name="periodcentered" unicode="&#xb7;" horiz-adv-x="282" 
d="M37 253q0 46 29.5 75t74.5 29t74.5 -29t29.5 -75q0 -45 -29.5 -74.5t-74.5 -29.5t-74.5 29.5t-29.5 74.5z" />
    <glyph glyph-name="cedilla" unicode="&#xb8;" horiz-adv-x="240" 
d="M181 -32q32 -10 51 -36t19 -61q0 -49 -42.5 -79t-111.5 -30q-26 0 -53.5 4.5t-55.5 15.5l28 96q19 -6 35 -9.5t28 -3.5q14 0 23 6.5t9 17.5q0 10 -11.5 16.5t-31.5 6.5h-15l16 88h118z" />
    <glyph glyph-name="onesuperior" unicode="&#xb9;" horiz-adv-x="289" 
d="M237 384h-126v294l-75 -41l-44 83l141 80h104v-416z" />
    <glyph glyph-name="ordmasculine" unicode="&#xba;" horiz-adv-x="432" 
d="M33 293h366v-89h-366v89zM24 516q0 37 14 68.5t39.5 54.5t61 35.5t77.5 12.5t77.5 -12.5t61 -35.5t39.5 -54.5t14 -68.5q0 -38 -14 -69.5t-39.5 -54.5t-61 -35.5t-77.5 -12.5t-77.5 12.5t-61 35.5t-39.5 54.5t-14 69.5zM157 516q0 -32 16.5 -52t42.5 -20t43 20t17 52
t-17 52t-43 20t-42.5 -20t-16.5 -52z" />
    <glyph glyph-name="guillemotright" unicode="&#xbb;" horiz-adv-x="625" 
d="M321 216l-199 -223l-103 81l134 179l-134 180l103 81l199 -224v-74zM600 216l-199 -223l-103 81l134 179l-134 180l103 81l199 -224v-74z" />
    <glyph glyph-name="onequarter" unicode="&#xbc;" horiz-adv-x="960" 
d="M284 256h-126v294l-75 -41l-44 83l141 80h104v-416zM688 705l88 -66l-504 -672l-88 66zM785 77h-188v88l179 251h121v-249h42v-90h-42v-77h-112v77zM785 167v115l-81 -115h81z" />
    <glyph glyph-name="onehalf" unicode="&#xbd;" horiz-adv-x="960" 
d="M284 256h-126v294l-75 -41l-44 83l141 80h104v-416zM688 705l88 -66l-504 -672l-88 66zM613 79l125 126q20 20 30 35.5t10 30.5q0 21 -12.5 33.5t-34.5 12.5q-21 0 -40.5 -8.5t-41.5 -22.5l-47 93q79 45 155 45q33 0 59.5 -10t46 -27.5t30 -42t10.5 -53.5q0 -35 -14 -65
t-45 -60l-66 -66h130v-100h-295v79z" />
    <glyph glyph-name="threequarters" unicode="&#xbe;" horiz-adv-x="960" 
d="M112 511h40q23 0 36 11t13 26t-10 24.5t-28 9.5q-21 0 -44.5 -6.5t-48.5 -17.5l-39 89q79 33 156 33q31 0 57 -8.5t44.5 -24.5t29 -37.5t10.5 -47.5q0 -31 -13 -54.5t-38 -35.5q26 -12 43.5 -39t17.5 -62q0 -27 -11 -49.5t-31.5 -39t-48 -25.5t-60.5 -9q-41 0 -82.5 8.5
t-83.5 27.5l39 88q26 -12 51 -19t49 -7q21 0 34.5 10.5t13.5 27.5q0 18 -15 30.5t-41 12.5h-40v84zM688 705l88 -66l-504 -672l-88 66zM785 77h-188v88l179 251h121v-249h42v-90h-42v-77h-112v77zM785 167v115l-81 -115h81z" />
    <glyph glyph-name="questiondown" unicode="&#xbf;" horiz-adv-x="413" 
d="M320 259v-23q0 -42 -18.5 -71t-40.5 -51.5t-40.5 -43.5t-18.5 -47q0 -30 20.5 -48t52.5 -18q26 0 52.5 12.5t57.5 29.5l66 -125q-96 -63 -205 -63q-48 0 -88.5 14t-70 38.5t-45.5 58.5t-16 75q0 54 20.5 90.5t46.5 64.5t49.5 50.5t28.5 48.5l2 8h147zM347 406
q0 -44 -28 -72t-72 -28q-45 0 -73 28t-28 72t28 72t73 28q44 0 72 -28t28 -72z" />
    <glyph glyph-name="Agrave" unicode="&#xc0;" horiz-adv-x="692" 
d="M262 672h169l272 -672h-183l-50 136h-247l-50 -136h-184zM270 268h152l-76 205zM459 790l-66 -95l-211 125l77 110z" />
    <glyph glyph-name="Aacute" unicode="&#xc1;" horiz-adv-x="692" 
d="M262 672h169l272 -672h-183l-50 136h-247l-50 -136h-184zM270 268h152l-76 205zM314 695l-66 95l200 140l76 -110z" />
    <glyph glyph-name="Acircumflex" unicode="&#xc2;" horiz-adv-x="692" 
d="M262 672h169l272 -672h-183l-50 136h-247l-50 -136h-184zM270 268h152l-76 205zM294 896h104l127 -120l-74 -81l-105 83l-105 -83l-74 81z" />
    <glyph glyph-name="Atilde" unicode="&#xc3;" horiz-adv-x="692" 
d="M262 672h169l272 -672h-183l-50 136h-247l-50 -136h-184zM270 268h152l-76 205zM282 878q21 0 37.5 -5t30 -11.5t25 -11.5t20.5 -5q23 0 34 33l103 -30q-8 -55 -40.5 -88t-81.5 -33q-21 0 -37.5 5t-30 11.5t-25 11.5t-20.5 5q-26 0 -34 -33l-103 30q8 55 40.5 88t81.5 33
z" />
    <glyph glyph-name="Adieresis" unicode="&#xc4;" horiz-adv-x="692" 
d="M262 672h169l272 -672h-183l-50 136h-247l-50 -136h-184zM270 268h152l-76 205zM140 802q0 40 24.5 65t64.5 25t64.5 -25t24.5 -65t-24.5 -64.5t-64.5 -24.5t-64.5 24.5t-24.5 64.5zM376 802q0 40 24.5 65t64.5 25t64.5 -25t24.5 -65t-24.5 -64.5t-64.5 -24.5t-64.5 24.5
t-24.5 64.5z" />
    <glyph glyph-name="Aring" unicode="&#xc5;" horiz-adv-x="692" 
d="M262 672h169l272 -672h-183l-50 136h-247l-50 -136h-184zM270 268h152l-76 205zM229 802q0 49 32.5 79.5t84.5 30.5t84.5 -30.5t32.5 -79.5q0 -48 -32.5 -78.5t-84.5 -30.5t-84.5 30.5t-32.5 78.5zM310 802q0 -16 10 -25.5t26 -9.5t26 9.5t10 25.5q0 17 -10 26.5t-26 9.5
t-26 -9.5t-10 -26.5z" />
    <glyph glyph-name="AE" unicode="&#xc6;" horiz-adv-x="989" 
d="M459 136h-216l-80 -136h-205l420 672h560v-136h-303v-126h271v-132h-271v-142h319v-136h-495v136zM319 268h140v243z" />
    <glyph glyph-name="Ccedilla" unicode="&#xc7;" horiz-adv-x="655" 
d="M28 336q0 76 26.5 140t73.5 110.5t113 72t146 25.5q65 0 130 -20.5t125 -58.5l-73 -121q-39 26 -77.5 40.5t-79.5 14.5q-44 0 -80 -15t-62 -41.5t-40.5 -64t-14.5 -82.5t14.5 -82.5t40.5 -64t62 -41.5t80 -15q41 0 79.5 14.5t77.5 40.5l73 -121q-96 -63 -202 -75l-4 -24
q33 -10 51.5 -36t18.5 -61q0 -49 -42 -79t-111 -30q-26 0 -53.5 4.5t-55.5 15.5l27 96q19 -6 35 -9.5t29 -3.5q14 0 23 6.5t9 17.5q0 10 -11.5 16.5t-31.5 6.5h-16l15 82q-66 9 -120.5 38t-93.5 73.5t-60 103t-21 127.5z" />
    <glyph glyph-name="Egrave" unicode="&#xc8;" horiz-adv-x="607" 
d="M69 672h487v-136h-304v-126h272v-132h-272v-142h320v-136h-503v672zM424 790l-66 -95l-211 125l77 110z" />
    <glyph glyph-name="Eacute" unicode="&#xc9;" horiz-adv-x="607" 
d="M69 672h487v-136h-304v-126h272v-132h-272v-142h320v-136h-503v672zM279 695l-66 95l200 140l76 -110z" />
    <glyph glyph-name="Ecircumflex" unicode="&#xca;" horiz-adv-x="607" 
d="M69 672h487v-136h-304v-126h272v-132h-272v-142h320v-136h-503v672zM259 896h104l127 -120l-74 -81l-105 83l-105 -83l-74 81z" />
    <glyph glyph-name="Edieresis" unicode="&#xcb;" horiz-adv-x="607" 
d="M69 672h487v-136h-304v-126h272v-132h-272v-142h320v-136h-503v672zM104 802q0 40 24.5 65t64.5 25t64.5 -25t24.5 -65t-24.5 -64.5t-64.5 -24.5t-64.5 24.5t-24.5 64.5zM340 802q0 40 24.5 65t64.5 25t64.5 -25t24.5 -65t-24.5 -64.5t-64.5 -24.5t-64.5 24.5t-24.5 64.5
z" />
    <glyph glyph-name="Igrave" unicode="&#xcc;" horiz-adv-x="321" 
d="M69 672h183v-672h-183v672zM274 790l-66 -95l-211 125l77 110z" />
    <glyph glyph-name="Iacute" unicode="&#xcd;" horiz-adv-x="321" 
d="M69 672h183v-672h-183v672zM129 695l-66 95l200 140l76 -110z" />
    <glyph glyph-name="Icircumflex" unicode="&#xce;" horiz-adv-x="321" 
d="M69 672h183v-672h-183v672zM109 896h104l127 -120l-74 -81l-105 83l-105 -83l-74 81z" />
    <glyph glyph-name="Idieresis" unicode="&#xcf;" horiz-adv-x="321" 
d="M69 672h183v-672h-183v672zM-46 802q0 40 24.5 65t64.5 25t64.5 -25t24.5 -65t-24.5 -64.5t-64.5 -24.5t-64.5 24.5t-24.5 64.5zM190 802q0 40 24.5 65t64.5 25t64.5 -25t24.5 -65t-24.5 -64.5t-64.5 -24.5t-64.5 24.5t-24.5 64.5z" />
    <glyph glyph-name="Eth" unicode="&#xd0;" horiz-adv-x="756" 
d="M85 278h-68v132h68v262h293q78 0 143 -24.5t111 -68.5t71.5 -106t25.5 -137q0 -74 -25.5 -136t-71.5 -106.5t-111 -69t-143 -24.5h-293v278zM549 336q0 43 -13.5 79t-38.5 62t-59 40.5t-74 14.5h-103v-122h135v-132h-135v-138h103q40 0 74 14.5t59 40.5t38.5 62t13.5 79z
" />
    <glyph glyph-name="Ntilde" unicode="&#xd1;" horiz-adv-x="788" 
d="M69 672h176l306 -423v423h168v-672h-176l-305 423v-423h-169v672zM330 878q21 0 37.5 -5t30 -11.5t25 -11.5t20.5 -5q23 0 34 33l103 -30q-8 -55 -40.5 -88t-81.5 -33q-21 0 -37.5 5t-30 11.5t-25 11.5t-20.5 5q-26 0 -34 -33l-103 30q8 55 40.5 88t81.5 33z" />
    <glyph glyph-name="Ograve" unicode="&#xd2;" horiz-adv-x="788" 
d="M28 336q0 76 27 140t75.5 110.5t115.5 72t148 25.5t148 -25.5t116 -72t76 -110.5t27 -140q0 -77 -27 -140.5t-76 -110t-116 -72t-148 -25.5t-148 25.5t-115.5 72t-75.5 110t-27 140.5zM215 336q0 -45 13 -82.5t36.5 -65t56.5 -42.5t73 -15t73 15t57 42.5t37 65t13 82.5
t-13 82.5t-37 65t-57 42.5t-73 15t-73 -15t-56.5 -42.5t-36.5 -65t-13 -82.5zM507 790l-66 -95l-211 125l77 110z" />
    <glyph glyph-name="Oacute" unicode="&#xd3;" horiz-adv-x="788" 
d="M28 336q0 76 27 140t75.5 110.5t115.5 72t148 25.5t148 -25.5t116 -72t76 -110.5t27 -140q0 -77 -27 -140.5t-76 -110t-116 -72t-148 -25.5t-148 25.5t-115.5 72t-75.5 110t-27 140.5zM215 336q0 -45 13 -82.5t36.5 -65t56.5 -42.5t73 -15t73 15t57 42.5t37 65t13 82.5
t-13 82.5t-37 65t-57 42.5t-73 15t-73 -15t-56.5 -42.5t-36.5 -65t-13 -82.5zM362 695l-66 95l200 140l76 -110z" />
    <glyph glyph-name="Ocircumflex" unicode="&#xd4;" horiz-adv-x="788" 
d="M28 336q0 76 27 140t75.5 110.5t115.5 72t148 25.5t148 -25.5t116 -72t76 -110.5t27 -140q0 -77 -27 -140.5t-76 -110t-116 -72t-148 -25.5t-148 25.5t-115.5 72t-75.5 110t-27 140.5zM215 336q0 -45 13 -82.5t36.5 -65t56.5 -42.5t73 -15t73 15t57 42.5t37 65t13 82.5
t-13 82.5t-37 65t-57 42.5t-73 15t-73 -15t-56.5 -42.5t-36.5 -65t-13 -82.5zM342 896h104l127 -120l-74 -81l-105 83l-105 -83l-74 81z" />
    <glyph glyph-name="Otilde" unicode="&#xd5;" horiz-adv-x="788" 
d="M28 336q0 76 27 140t75.5 110.5t115.5 72t148 25.5t148 -25.5t116 -72t76 -110.5t27 -140q0 -77 -27 -140.5t-76 -110t-116 -72t-148 -25.5t-148 25.5t-115.5 72t-75.5 110t-27 140.5zM215 336q0 -45 13 -82.5t36.5 -65t56.5 -42.5t73 -15t73 15t57 42.5t37 65t13 82.5
t-13 82.5t-37 65t-57 42.5t-73 15t-73 -15t-56.5 -42.5t-36.5 -65t-13 -82.5zM330 878q21 0 37.5 -5t30 -11.5t25 -11.5t20.5 -5q23 0 34 33l103 -30q-8 -55 -40.5 -88t-81.5 -33q-21 0 -37.5 5t-30 11.5t-25 11.5t-20.5 5q-26 0 -34 -33l-103 30q8 55 40.5 88t81.5 33z" />
    <glyph glyph-name="Odieresis" unicode="&#xd6;" horiz-adv-x="788" 
d="M28 336q0 76 27 140t75.5 110.5t115.5 72t148 25.5t148 -25.5t116 -72t76 -110.5t27 -140q0 -77 -27 -140.5t-76 -110t-116 -72t-148 -25.5t-148 25.5t-115.5 72t-75.5 110t-27 140.5zM215 336q0 -45 13 -82.5t36.5 -65t56.5 -42.5t73 -15t73 15t57 42.5t37 65t13 82.5
t-13 82.5t-37 65t-57 42.5t-73 15t-73 -15t-56.5 -42.5t-36.5 -65t-13 -82.5zM187 802q0 40 24.5 65t64.5 25t64.5 -25t24.5 -65t-24.5 -64.5t-64.5 -24.5t-64.5 24.5t-24.5 64.5zM423 802q0 40 24.5 65t64.5 25t64.5 -25t24.5 -65t-24.5 -64.5t-64.5 -24.5t-64.5 24.5
t-24.5 64.5z" />
    <glyph glyph-name="multiply" unicode="&#xd7;" horiz-adv-x="576" 
d="M35 138l149 150l-149 150l103 103l150 -149l150 149l103 -103l-149 -150l149 -150l-103 -103l-150 149l-150 -149z" />
    <glyph glyph-name="Oslash" unicode="&#xd8;" horiz-adv-x="788" 
d="M28 336q0 76 27 140t75 110.5t115.5 72t148.5 25.5q48 0 90 -9.5t79 -26.5l55 74l83 -63l-50 -67q52 -46 81 -111t29 -145q0 -77 -27 -140.5t-75.5 -110t-116 -72t-148.5 -25.5q-48 0 -90 9.5t-80 26.5l-54 -74l-83 63l49 66q-52 47 -80 112t-28 145zM200 336
q0 -73 34 -126l241 320q-36 18 -81 18q-43 0 -79 -15.5t-61.5 -43.5t-39.5 -67t-14 -86zM588 336q0 37 -9 68.5t-26 57.5l-240 -321q37 -17 81 -17q43 0 79 15.5t61.5 43.5t39.5 67t14 86z" />
    <glyph glyph-name="Ugrave" unicode="&#xd9;" horiz-adv-x="788" 
d="M727 270q0 -63 -25 -115t-69 -89t-105 -57.5t-134 -20.5t-134 20.5t-105.5 57.5t-69 89t-24.5 115v402h183v-395q0 -33 11 -59.5t31 -46t47.5 -30t60.5 -10.5t61 10.5t47.5 30t30.5 46t11 59.5v395h183v-402zM507 790l-66 -95l-211 125l77 110z" />
    <glyph glyph-name="Uacute" unicode="&#xda;" horiz-adv-x="788" 
d="M727 270q0 -63 -25 -115t-69 -89t-105 -57.5t-134 -20.5t-134 20.5t-105.5 57.5t-69 89t-24.5 115v402h183v-395q0 -33 11 -59.5t31 -46t47.5 -30t60.5 -10.5t61 10.5t47.5 30t30.5 46t11 59.5v395h183v-402zM362 695l-66 95l200 140l76 -110z" />
    <glyph glyph-name="Ucircumflex" unicode="&#xdb;" horiz-adv-x="788" 
d="M727 270q0 -63 -25 -115t-69 -89t-105 -57.5t-134 -20.5t-134 20.5t-105.5 57.5t-69 89t-24.5 115v402h183v-395q0 -33 11 -59.5t31 -46t47.5 -30t60.5 -10.5t61 10.5t47.5 30t30.5 46t11 59.5v395h183v-402zM342 896h104l127 -120l-74 -81l-105 83l-105 -83l-74 81z" />
    <glyph glyph-name="Udieresis" unicode="&#xdc;" horiz-adv-x="788" 
d="M727 270q0 -63 -25 -115t-69 -89t-105 -57.5t-134 -20.5t-134 20.5t-105.5 57.5t-69 89t-24.5 115v402h183v-395q0 -33 11 -59.5t31 -46t47.5 -30t60.5 -10.5t61 10.5t47.5 30t30.5 46t11 59.5v395h183v-402zM187 802q0 40 24.5 65t64.5 25t64.5 -25t24.5 -65
t-24.5 -64.5t-64.5 -24.5t-64.5 24.5t-24.5 64.5zM423 802q0 40 24.5 65t64.5 25t64.5 -25t24.5 -65t-24.5 -64.5t-64.5 -24.5t-64.5 24.5t-24.5 64.5z" />
    <glyph glyph-name="Yacute" unicode="&#xdd;" horiz-adv-x="634" 
d="M225 260l-244 412h198l138 -250l138 250h198l-244 -412v-260h-184v260zM285 695l-66 95l200 140l76 -110z" />
    <glyph glyph-name="Thorn" unicode="&#xde;" horiz-adv-x="637" 
d="M69 672h176v-96h121q55 0 101 -17t79.5 -48t52 -73.5t18.5 -93.5t-18.5 -93.5t-52 -73.5t-79.5 -48t-101 -17h-121v-112h-176v672zM245 251h92q45 0 73 26t28 67q0 40 -28 66.5t-73 26.5h-92v-186z" />
    <glyph glyph-name="germandbls" unicode="&#xdf;" horiz-adv-x="650" 
d="M291 353q0 30 10.5 52.5t23 41.5t23 37t10.5 41q0 26 -17.5 42.5t-46.5 16.5q-32 0 -52.5 -21.5t-20.5 -55.5v-507h-169v514q0 45 18 82t51 63.5t78.5 41.5t101.5 15q51 0 93.5 -13.5t73.5 -38t48.5 -58.5t17.5 -74q0 -33 -10.5 -57t-23 -42t-23 -33.5t-10.5 -32.5
q0 -18 12 -29.5t30.5 -22t39.5 -22.5t39.5 -30t30.5 -44.5t12 -66.5q0 -37 -15 -67.5t-42 -52t-64 -33t-82 -11.5q-41 0 -83.5 8.5t-87.5 27.5l44 125q64 -29 113 -29q23 0 36 8.5t13 23.5q0 14 -12.5 24t-32 19.5t-41.5 21t-41.5 29t-32 43.5t-12.5 64z" />
    <glyph glyph-name="agrave" unicode="&#xe0;" horiz-adv-x="572" 
d="M27 149q0 80 60.5 123.5t169.5 43.5q39 0 85 -8v4q0 29 -24 47.5t-62 18.5q-37 0 -77.5 -9.5t-82.5 -26.5l-44 121q60 23 116 33.5t110 10.5q51 0 92.5 -14.5t71 -40.5t45.5 -62.5t16 -81.5v-163q0 -25 25 -25q6 0 12 0.5t11 1.5l11 -126q-40 -8 -83 -8q-37 0 -65 15
t-45 42q-35 -28 -77 -42.5t-83 -14.5q-40 0 -73.5 12t-57.5 33t-37.5 50.5t-13.5 65.5zM192 160q0 -22 18 -36.5t46 -14.5q38 0 62 23.5t24 59.5v18q-15 3 -30.5 5t-32.5 2q-39 0 -63 -15.5t-24 -41.5zM391 613l-66 -95l-211 125l77 110z" />
    <glyph glyph-name="aacute" unicode="&#xe1;" horiz-adv-x="572" 
d="M27 149q0 80 60.5 123.5t169.5 43.5q39 0 85 -8v4q0 29 -24 47.5t-62 18.5q-37 0 -77.5 -9.5t-82.5 -26.5l-44 121q60 23 116 33.5t110 10.5q51 0 92.5 -14.5t71 -40.5t45.5 -62.5t16 -81.5v-163q0 -25 25 -25q6 0 12 0.5t11 1.5l11 -126q-40 -8 -83 -8q-37 0 -65 15
t-45 42q-35 -28 -77 -42.5t-83 -14.5q-40 0 -73.5 12t-57.5 33t-37.5 50.5t-13.5 65.5zM192 160q0 -22 18 -36.5t46 -14.5q38 0 62 23.5t24 59.5v18q-15 3 -30.5 5t-32.5 2q-39 0 -63 -15.5t-24 -41.5zM246 518l-66 95l200 140l76 -110z" />
    <glyph glyph-name="acircumflex" unicode="&#xe2;" horiz-adv-x="572" 
d="M27 149q0 80 60.5 123.5t169.5 43.5q39 0 85 -8v4q0 29 -24 47.5t-62 18.5q-37 0 -77.5 -9.5t-82.5 -26.5l-44 121q60 23 116 33.5t110 10.5q51 0 92.5 -14.5t71 -40.5t45.5 -62.5t16 -81.5v-163q0 -25 25 -25q6 0 12 0.5t11 1.5l11 -126q-40 -8 -83 -8q-37 0 -65 15
t-45 42q-35 -28 -77 -42.5t-83 -14.5q-40 0 -73.5 12t-57.5 33t-37.5 50.5t-13.5 65.5zM192 160q0 -22 18 -36.5t46 -14.5q38 0 62 23.5t24 59.5v18q-15 3 -30.5 5t-32.5 2q-39 0 -63 -15.5t-24 -41.5zM226 719h104l127 -120l-74 -81l-105 83l-105 -83l-74 81z" />
    <glyph glyph-name="atilde" unicode="&#xe3;" horiz-adv-x="572" 
d="M27 149q0 80 60.5 123.5t169.5 43.5q39 0 85 -8v4q0 29 -24 47.5t-62 18.5q-37 0 -77.5 -9.5t-82.5 -26.5l-44 121q60 23 116 33.5t110 10.5q51 0 92.5 -14.5t71 -40.5t45.5 -62.5t16 -81.5v-163q0 -25 25 -25q6 0 12 0.5t11 1.5l11 -126q-40 -8 -83 -8q-37 0 -65 15
t-45 42q-35 -28 -77 -42.5t-83 -14.5q-40 0 -73.5 12t-57.5 33t-37.5 50.5t-13.5 65.5zM192 160q0 -22 18 -36.5t46 -14.5q38 0 62 23.5t24 59.5v18q-15 3 -30.5 5t-32.5 2q-39 0 -63 -15.5t-24 -41.5zM214 701q21 0 37.5 -5t30 -11.5t25 -11.5t20.5 -5q23 0 34 33l103 -30
q-8 -55 -40.5 -88t-81.5 -33q-21 0 -37.5 5t-30 11.5t-25 11.5t-20.5 5q-26 0 -34 -33l-103 30q8 55 40.5 88t81.5 33z" />
    <glyph glyph-name="adieresis" unicode="&#xe4;" horiz-adv-x="572" 
d="M27 149q0 80 60.5 123.5t169.5 43.5q39 0 85 -8v4q0 29 -24 47.5t-62 18.5q-37 0 -77.5 -9.5t-82.5 -26.5l-44 121q60 23 116 33.5t110 10.5q51 0 92.5 -14.5t71 -40.5t45.5 -62.5t16 -81.5v-163q0 -25 25 -25q6 0 12 0.5t11 1.5l11 -126q-40 -8 -83 -8q-37 0 -65 15
t-45 42q-35 -28 -77 -42.5t-83 -14.5q-40 0 -73.5 12t-57.5 33t-37.5 50.5t-13.5 65.5zM192 160q0 -22 18 -36.5t46 -14.5q38 0 62 23.5t24 59.5v18q-15 3 -30.5 5t-32.5 2q-39 0 -63 -15.5t-24 -41.5zM71 625q0 40 24.5 65t64.5 25t64.5 -25t24.5 -65t-24.5 -64.5
t-64.5 -24.5t-64.5 24.5t-24.5 64.5zM307 625q0 40 24.5 65t64.5 25t64.5 -25t24.5 -65t-24.5 -64.5t-64.5 -24.5t-64.5 24.5t-24.5 64.5z" />
    <glyph glyph-name="aring" unicode="&#xe5;" horiz-adv-x="572" 
d="M27 149q0 80 60.5 123.5t169.5 43.5q39 0 85 -8v4q0 29 -24 47.5t-62 18.5q-37 0 -77.5 -9.5t-82.5 -26.5l-44 121q60 23 116 33.5t110 10.5q51 0 92.5 -14.5t71 -40.5t45.5 -62.5t16 -81.5v-163q0 -25 25 -25q6 0 12 0.5t11 1.5l11 -126q-40 -8 -83 -8q-37 0 -65 15
t-45 42q-35 -28 -77 -42.5t-83 -14.5q-40 0 -73.5 12t-57.5 33t-37.5 50.5t-13.5 65.5zM192 160q0 -22 18 -36.5t46 -14.5q38 0 62 23.5t24 59.5v18q-15 3 -30.5 5t-32.5 2q-39 0 -63 -15.5t-24 -41.5zM161 625q0 49 32.5 79.5t84.5 30.5t84.5 -30.5t32.5 -79.5
q0 -48 -32.5 -78.5t-84.5 -30.5t-84.5 30.5t-32.5 78.5zM242 625q0 -16 10 -25.5t26 -9.5t26 9.5t10 25.5q0 17 -10 26.5t-26 9.5t-26 -9.5t-10 -26.5z" />
    <glyph glyph-name="ae" unicode="&#xe6;" horiz-adv-x="864" 
d="M27 146q0 81 60.5 125.5t169.5 44.5q39 0 85 -8v4q0 29 -24 47.5t-62 18.5q-37 0 -77.5 -9.5t-82.5 -26.5l-44 121q60 23 116 33.5t110 10.5q48 0 89 -14.5t64 -39.5q34 27 76 40.5t87 13.5q55 0 101.5 -18.5t79.5 -51.5t51.5 -79.5t18.5 -102.5q0 -28 -3 -53h-339
q10 -39 44.5 -62t84.5 -23q60 0 137 40l52 -118q-53 -26 -105 -38.5t-102 -12.5q-57 0 -110 17t-96 52q-39 -34 -86.5 -51.5t-98.5 -17.5q-43 0 -79 11.5t-62 32.5t-40.5 50t-14.5 64zM594 378q-35 0 -59 -20t-32 -53h173q-4 33 -26 53t-56 20zM192 160q0 -22 18 -36.5
t46 -14.5q38 0 62 23.5t24 59.5v18q-15 3 -30.5 5t-32.5 2q-39 0 -63 -15.5t-24 -41.5z" />
    <glyph glyph-name="ccedilla" unicode="&#xe7;" horiz-adv-x="509" 
d="M27 247q0 57 20.5 104.5t57 82t87 54t110.5 19.5q107 0 203 -60l-70 -117q-29 17 -54 27t-54 10q-54 0 -87 -33t-33 -87t33 -86.5t87 -32.5q29 0 54 10t54 27l70 -118q-72 -44 -154 -55l-3 -24q32 -10 50.5 -36t18.5 -61q0 -49 -42 -79t-111 -30q-26 0 -53.5 4.5
t-55.5 15.5l28 96q19 -6 34.5 -9.5t28.5 -3.5q14 0 23 6.5t9 17.5q0 10 -11.5 16.5t-31.5 6.5h-15l15 83q-47 9 -85.5 31t-65.5 55t-42 75t-15 91z" />
    <glyph glyph-name="egrave" unicode="&#xe8;" horiz-adv-x="564" 
d="M27 247q0 57 19.5 105t55 82.5t84.5 53.5t108 19q55 0 101.5 -18.5t79.5 -51.5t51.5 -79.5t18.5 -102.5q0 -28 -3 -53h-339q10 -39 44.5 -62t84.5 -23q60 0 137 40l52 -118q-57 -26 -110.5 -38.5t-100.5 -12.5q-63 0 -115 19t-89.5 53.5t-58 82t-20.5 104.5zM294 378
q-35 0 -59 -20t-32 -53h173q-5 33 -27 53t-55 20zM407 613l-66 -95l-211 125l77 110z" />
    <glyph glyph-name="eacute" unicode="&#xe9;" horiz-adv-x="564" 
d="M27 247q0 57 19.5 105t55 82.5t84.5 53.5t108 19q55 0 101.5 -18.5t79.5 -51.5t51.5 -79.5t18.5 -102.5q0 -28 -3 -53h-339q10 -39 44.5 -62t84.5 -23q60 0 137 40l52 -118q-57 -26 -110.5 -38.5t-100.5 -12.5q-63 0 -115 19t-89.5 53.5t-58 82t-20.5 104.5zM294 378
q-35 0 -59 -20t-32 -53h173q-5 33 -27 53t-55 20zM262 518l-66 95l200 140l76 -110z" />
    <glyph glyph-name="ecircumflex" unicode="&#xea;" horiz-adv-x="564" 
d="M27 247q0 57 19.5 105t55 82.5t84.5 53.5t108 19q55 0 101.5 -18.5t79.5 -51.5t51.5 -79.5t18.5 -102.5q0 -28 -3 -53h-339q10 -39 44.5 -62t84.5 -23q60 0 137 40l52 -118q-57 -26 -110.5 -38.5t-100.5 -12.5q-63 0 -115 19t-89.5 53.5t-58 82t-20.5 104.5zM294 378
q-35 0 -59 -20t-32 -53h173q-5 33 -27 53t-55 20zM242 719h104l127 -120l-74 -81l-105 83l-105 -83l-74 81z" />
    <glyph glyph-name="edieresis" unicode="&#xeb;" horiz-adv-x="564" 
d="M27 247q0 57 19.5 105t55 82.5t84.5 53.5t108 19q55 0 101.5 -18.5t79.5 -51.5t51.5 -79.5t18.5 -102.5q0 -28 -3 -53h-339q10 -39 44.5 -62t84.5 -23q60 0 137 40l52 -118q-57 -26 -110.5 -38.5t-100.5 -12.5q-63 0 -115 19t-89.5 53.5t-58 82t-20.5 104.5zM294 378
q-35 0 -59 -20t-32 -53h173q-5 33 -27 53t-55 20zM87 625q0 40 24.5 65t64.5 25t64.5 -25t24.5 -65t-24.5 -64.5t-64.5 -24.5t-64.5 24.5t-24.5 64.5zM323 625q0 40 24.5 65t64.5 25t64.5 -25t24.5 -65t-24.5 -64.5t-64.5 -24.5t-64.5 24.5t-24.5 64.5z" />
    <glyph glyph-name="igrave" unicode="&#xec;" horiz-adv-x="281" 
d="M52 495h176v-495h-176v495zM253 613l-66 -95l-211 125l77 110z" />
    <glyph glyph-name="iacute" unicode="&#xed;" horiz-adv-x="281" 
d="M52 495h176v-495h-176v495zM108 518l-66 95l200 140l76 -110z" />
    <glyph glyph-name="icircumflex" unicode="&#xee;" horiz-adv-x="281" 
d="M52 495h176v-495h-176v495zM88 719h104l127 -120l-74 -81l-105 83l-105 -83l-74 81z" />
    <glyph glyph-name="idieresis" unicode="&#xef;" horiz-adv-x="281" 
d="M52 495h176v-495h-176v495zM-67 625q0 40 24.5 65t64.5 25t64.5 -25t24.5 -65t-24.5 -64.5t-64.5 -24.5t-64.5 24.5t-24.5 64.5zM169 625q0 40 24.5 65t64.5 25t64.5 -25t24.5 -65t-24.5 -64.5t-64.5 -24.5t-64.5 24.5t-24.5 64.5z" />
    <glyph glyph-name="eth" unicode="&#xf0;" 
d="M27 244q0 55 18 99.5t50.5 76t77.5 48.5t99 17q50 0 97 -23q-21 50 -72 87l-123 -61l-45 89l54 26q-9 4 -18.5 7t-19.5 6l37 118q44 -9 83 -22.5t74 -30.5l105 53l45 -89l-53 -27q70 -60 108 -139t39 -174q0 -17 -1.5 -33.5t-3.5 -32.5q-9 -56 -33.5 -102.5t-61.5 -79.5
t-85 -51t-104 -18q-59 0 -108 19t-84 53t-55 81t-20 103zM199 236q0 -53 28.5 -86t73.5 -33t74 33.5t29 87.5q0 53 -29 85.5t-74 32.5t-73.5 -33t-28.5 -87z" />
    <glyph glyph-name="ntilde" unicode="&#xf1;" 
d="M52 495h140l22 -54q29 32 70.5 49t91.5 17q44 0 80.5 -14.5t62.5 -40t40.5 -61t14.5 -78.5v-313h-176v284q0 35 -22 57t-56 22q-41 0 -66.5 -27t-25.5 -71v-265h-176v495zM245 701q21 0 37.5 -5t30 -11.5t25 -11.5t20.5 -5q23 0 34 33l103 -30q-8 -55 -40.5 -88
t-81.5 -33q-21 0 -37.5 5t-30 11.5t-25 11.5t-20.5 5q-26 0 -34 -33l-103 30q8 55 40.5 88t81.5 33z" />
    <glyph glyph-name="ograve" unicode="&#xf2;" 
d="M27 247q0 57 21 105t58.5 82.5t89 53.5t113.5 19t114 -19t89.5 -53.5t58 -82.5t20.5 -105t-20.5 -104.5t-58 -82t-89.5 -53.5t-114 -19t-113.5 19t-89 53.5t-58.5 82t-21 104.5zM207 247q0 -54 28.5 -88.5t73.5 -34.5t74 34.5t29 88.5q0 55 -29 89.5t-74 34.5
t-73.5 -34.5t-28.5 -89.5zM422 613l-66 -95l-211 125l77 110z" />
    <glyph glyph-name="oacute" unicode="&#xf3;" 
d="M27 247q0 57 21 105t58.5 82.5t89 53.5t113.5 19t114 -19t89.5 -53.5t58 -82.5t20.5 -105t-20.5 -104.5t-58 -82t-89.5 -53.5t-114 -19t-113.5 19t-89 53.5t-58.5 82t-21 104.5zM207 247q0 -54 28.5 -88.5t73.5 -34.5t74 34.5t29 88.5q0 55 -29 89.5t-74 34.5
t-73.5 -34.5t-28.5 -89.5zM277 518l-66 95l200 140l76 -110z" />
    <glyph glyph-name="ocircumflex" unicode="&#xf4;" 
d="M27 247q0 57 21 105t58.5 82.5t89 53.5t113.5 19t114 -19t89.5 -53.5t58 -82.5t20.5 -105t-20.5 -104.5t-58 -82t-89.5 -53.5t-114 -19t-113.5 19t-89 53.5t-58.5 82t-21 104.5zM207 247q0 -54 28.5 -88.5t73.5 -34.5t74 34.5t29 88.5q0 55 -29 89.5t-74 34.5
t-73.5 -34.5t-28.5 -89.5zM257 719h104l127 -120l-74 -81l-105 83l-105 -83l-74 81z" />
    <glyph glyph-name="otilde" unicode="&#xf5;" 
d="M27 247q0 57 21 105t58.5 82.5t89 53.5t113.5 19t114 -19t89.5 -53.5t58 -82.5t20.5 -105t-20.5 -104.5t-58 -82t-89.5 -53.5t-114 -19t-113.5 19t-89 53.5t-58.5 82t-21 104.5zM207 247q0 -54 28.5 -88.5t73.5 -34.5t74 34.5t29 88.5q0 55 -29 89.5t-74 34.5
t-73.5 -34.5t-28.5 -89.5zM245 701q21 0 37.5 -5t30 -11.5t25 -11.5t20.5 -5q23 0 34 33l103 -30q-8 -55 -40.5 -88t-81.5 -33q-21 0 -37.5 5t-30 11.5t-25 11.5t-20.5 5q-26 0 -34 -33l-103 30q8 55 40.5 88t81.5 33z" />
    <glyph glyph-name="odieresis" unicode="&#xf6;" 
d="M27 247q0 57 21 105t58.5 82.5t89 53.5t113.5 19t114 -19t89.5 -53.5t58 -82.5t20.5 -105t-20.5 -104.5t-58 -82t-89.5 -53.5t-114 -19t-113.5 19t-89 53.5t-58.5 82t-21 104.5zM207 247q0 -54 28.5 -88.5t73.5 -34.5t74 34.5t29 88.5q0 55 -29 89.5t-74 34.5
t-73.5 -34.5t-28.5 -89.5zM102 625q0 40 24.5 65t64.5 25t64.5 -25t24.5 -65t-24.5 -64.5t-64.5 -24.5t-64.5 24.5t-24.5 64.5zM338 625q0 40 24.5 65t64.5 25t64.5 -25t24.5 -65t-24.5 -64.5t-64.5 -24.5t-64.5 24.5t-24.5 64.5z" />
    <glyph glyph-name="divide" unicode="&#xf7;" horiz-adv-x="576" 
d="M35 354h506v-132h-506v132zM199 480q0 39 25 64t64 25t64 -23.5t25 -65.5q0 -39 -25 -64t-64 -25t-64 25t-25 64zM199 96q0 39 25 64t64 25t64 -25t25 -64t-25 -64t-64 -25t-64 25t-25 64z" />
    <glyph glyph-name="oslash" unicode="&#xf8;" 
d="M27 247q0 57 21 105t58.5 82.5t89 53.5t113.5 19q33 0 63.5 -6t57.5 -17l42 56l72 -54l-37 -49q40 -35 62 -83t22 -107q0 -57 -20.5 -104.5t-58 -82t-89.5 -53.5t-114 -19q-67 0 -121 23l-42 -56l-72 54l36 47q-40 35 -61.5 83t-21.5 108zM192 247q0 -35 14 -63l140 187
q-9 3 -18 5t-19 2q-51 0 -84 -36.5t-33 -94.5zM426 247q0 35 -14 63l-139 -186q14 -7 36 -7q51 0 84 36t33 94z" />
    <glyph glyph-name="ugrave" unicode="&#xf9;" 
d="M566 0h-140l-22 54q-29 -32 -70.5 -49t-91.5 -17q-44 0 -80 14t-62.5 39.5t-41 61.5t-14.5 79v313h176v-284q0 -35 22 -57.5t57 -22.5q40 0 65.5 27t25.5 71v266h176v-495zM422 613l-66 -95l-211 125l77 110z" />
    <glyph glyph-name="uacute" unicode="&#xfa;" 
d="M566 0h-140l-22 54q-29 -32 -70.5 -49t-91.5 -17q-44 0 -80 14t-62.5 39.5t-41 61.5t-14.5 79v313h176v-284q0 -35 22 -57.5t57 -22.5q40 0 65.5 27t25.5 71v266h176v-495zM277 518l-66 95l200 140l76 -110z" />
    <glyph glyph-name="ucircumflex" unicode="&#xfb;" 
d="M566 0h-140l-22 54q-29 -32 -70.5 -49t-91.5 -17q-44 0 -80 14t-62.5 39.5t-41 61.5t-14.5 79v313h176v-284q0 -35 22 -57.5t57 -22.5q40 0 65.5 27t25.5 71v266h176v-495zM257 719h104l127 -120l-74 -81l-105 83l-105 -83l-74 81z" />
    <glyph glyph-name="udieresis" unicode="&#xfc;" 
d="M566 0h-140l-22 54q-29 -32 -70.5 -49t-91.5 -17q-44 0 -80 14t-62.5 39.5t-41 61.5t-14.5 79v313h176v-284q0 -35 22 -57.5t57 -22.5q40 0 65.5 27t25.5 71v266h176v-495zM102 625q0 40 24.5 65t64.5 25t64.5 -25t24.5 -65t-24.5 -64.5t-64.5 -24.5t-64.5 24.5
t-24.5 64.5zM338 625q0 40 24.5 65t64.5 25t64.5 -25t24.5 -65t-24.5 -64.5t-64.5 -24.5t-64.5 24.5t-24.5 64.5z" />
    <glyph glyph-name="yacute" unicode="&#xfd;" horiz-adv-x="554" 
d="M347 -38q-71 -182 -223 -182q-17 0 -39.5 2.5t-45.5 7.5l22 136q25 -6 45 -6q29 0 48.5 15t33.5 50l9 22l-201 488h184l97 -297l97 297h184zM245 518l-66 95l200 140l76 -110z" />
    <glyph glyph-name="thorn" unicode="&#xfe;" 
d="M52 704h176v-244q56 47 133 47q51 0 93 -19t72.5 -53.5t47.5 -82.5t17 -105t-17 -104.5t-47.5 -82t-72.5 -53.5t-93 -19q-77 0 -133 47v-243h-176v912zM412 247q0 54 -27.5 88t-70.5 34q-40 0 -64.5 -27t-24.5 -69v-52q0 -42 24.5 -68.5t64.5 -26.5q43 0 70.5 33.5
t27.5 87.5z" />
    <glyph glyph-name="ydieresis" unicode="&#xff;" horiz-adv-x="554" 
d="M347 -38q-71 -182 -223 -182q-17 0 -39.5 2.5t-45.5 7.5l22 136q25 -6 45 -6q29 0 48.5 15t33.5 50l9 22l-201 488h184l97 -297l97 297h184zM70 625q0 40 24.5 65t64.5 25t64.5 -25t24.5 -65t-24.5 -64.5t-64.5 -24.5t-64.5 24.5t-24.5 64.5zM306 625q0 40 24.5 65
t64.5 25t64.5 -25t24.5 -65t-24.5 -64.5t-64.5 -24.5t-64.5 24.5t-24.5 64.5z" />
    <glyph glyph-name="Amacron" unicode="&#x100;" horiz-adv-x="692" 
d="M262 672h169l272 -672h-183l-50 136h-247l-50 -136h-184zM270 268h152l-76 205zM181 861h330v-117h-330v117z" />
    <glyph glyph-name="amacron" unicode="&#x101;" horiz-adv-x="572" 
d="M27 149q0 80 60.5 123.5t169.5 43.5q39 0 85 -8v4q0 29 -24 47.5t-62 18.5q-37 0 -77.5 -9.5t-82.5 -26.5l-44 121q60 23 116 33.5t110 10.5q51 0 92.5 -14.5t71 -40.5t45.5 -62.5t16 -81.5v-163q0 -25 25 -25q6 0 12 0.5t11 1.5l11 -126q-40 -8 -83 -8q-37 0 -65 15
t-45 42q-35 -28 -77 -42.5t-83 -14.5q-40 0 -73.5 12t-57.5 33t-37.5 50.5t-13.5 65.5zM192 160q0 -22 18 -36.5t46 -14.5q38 0 62 23.5t24 59.5v18q-15 3 -30.5 5t-32.5 2q-39 0 -63 -15.5t-24 -41.5zM113 684h330v-117h-330v117z" />
    <glyph glyph-name="Abreve" unicode="&#x102;" horiz-adv-x="692" 
d="M262 672h169l272 -672h-183l-50 136h-247l-50 -136h-184zM270 268h152l-76 205zM278 880q2 -29 20.5 -45t47.5 -16t47.5 16t20.5 45h111q-2 -42 -16 -75.5t-37.5 -56.5t-56 -35t-69.5 -12q-38 0 -70 12t-55.5 35t-38 56.5t-15.5 75.5h111z" />
    <glyph glyph-name="abreve" unicode="&#x103;" horiz-adv-x="572" 
d="M27 149q0 80 60.5 123.5t169.5 43.5q39 0 85 -8v4q0 29 -24 47.5t-62 18.5q-37 0 -77.5 -9.5t-82.5 -26.5l-44 121q60 23 116 33.5t110 10.5q51 0 92.5 -14.5t71 -40.5t45.5 -62.5t16 -81.5v-163q0 -25 25 -25q6 0 12 0.5t11 1.5l11 -126q-40 -8 -83 -8q-37 0 -65 15
t-45 42q-35 -28 -77 -42.5t-83 -14.5q-40 0 -73.5 12t-57.5 33t-37.5 50.5t-13.5 65.5zM192 160q0 -22 18 -36.5t46 -14.5q38 0 62 23.5t24 59.5v18q-15 3 -30.5 5t-32.5 2q-39 0 -63 -15.5t-24 -41.5zM210 703q2 -29 20.5 -45t47.5 -16t47.5 16t20.5 45h111
q-2 -42 -16 -75.5t-37.5 -56.5t-56 -35t-69.5 -12q-38 0 -70 12t-55.5 35t-38 56.5t-15.5 75.5h111z" />
    <glyph glyph-name="Aogonek" unicode="&#x104;" horiz-adv-x="693" 
d="M262 672h169l272 -672q-35 -27 -53 -52.5t-18 -47.5q0 -17 11 -26t27 -9q6 0 14 1t16 3l18 -93q-23 -8 -46 -11t-46 -3q-56 0 -89.5 28t-33.5 77q0 35 21 69t61 64h-65l-50 136h-247l-50 -136h-184zM270 268h152l-76 205z" />
    <glyph glyph-name="aogonek" unicode="&#x105;" horiz-adv-x="572" 
d="M27 149q0 80 60.5 123.5t169.5 43.5q39 0 85 -8v4q0 29 -24 47.5t-62 18.5q-37 0 -77.5 -9.5t-82.5 -26.5l-44 121q60 23 116 33.5t110 10.5q51 0 92.5 -14.5t71 -40.5t45.5 -62.5t16 -81.5v-163q0 -25 25 -25q6 0 12 0.5t11 1.5l11 -126q-34 -26 -52.5 -50.5
t-18.5 -45.5q0 -17 11 -26t27 -9q7 0 14.5 1t15.5 3l18 -93q-22 -8 -45.5 -11t-46.5 -3q-55 0 -89 28t-34 77q0 33 19.5 65.5t55.5 61.5q-45 12 -68 51q-35 -28 -77 -42.5t-83 -14.5q-40 0 -73.5 12t-57.5 33t-37.5 50.5t-13.5 65.5zM192 160q0 -22 18 -36.5t46 -14.5
q38 0 62 23.5t24 59.5v18q-15 3 -30.5 5t-32.5 2q-39 0 -63 -15.5t-24 -41.5z" />
    <glyph glyph-name="Cacute" unicode="&#x106;" horiz-adv-x="655" 
d="M28 336q0 76 26.5 140t73.5 110.5t113 72t146 25.5q65 0 130 -20.5t125 -58.5l-73 -121q-39 26 -77.5 40.5t-79.5 14.5q-44 0 -80 -15t-62 -41.5t-40.5 -64t-14.5 -82.5t14.5 -82.5t40.5 -64t62 -41.5t80 -15q41 0 79.5 14.5t77.5 40.5l73 -121q-60 -38 -125 -58.5
t-130 -20.5q-80 0 -146 26t-113 72t-73.5 110t-26.5 140zM343 695l-66 95l200 140l76 -110z" />
    <glyph glyph-name="cacute" unicode="&#x107;" horiz-adv-x="509" 
d="M27 247q0 57 20.5 104.5t57 82t87 54t110.5 19.5q107 0 203 -60l-70 -117q-27 17 -53 27t-55 10q-54 0 -87 -33t-33 -87t33 -86.5t87 -32.5q29 0 55 10t53 27l70 -118q-97 -59 -203 -59q-60 0 -110.5 19t-87 53.5t-57 82t-20.5 104.5zM255 518l-66 95l200 140l76 -110z
" />
    <glyph glyph-name="Ccircumflex" unicode="&#x108;" horiz-adv-x="655" 
d="M28 336q0 76 26.5 140t73.5 110.5t113 72t146 25.5q65 0 130 -20.5t125 -58.5l-73 -121q-39 26 -77.5 40.5t-79.5 14.5q-44 0 -80 -15t-62 -41.5t-40.5 -64t-14.5 -82.5t14.5 -82.5t40.5 -64t62 -41.5t80 -15q41 0 79.5 14.5t77.5 40.5l73 -121q-60 -38 -125 -58.5
t-130 -20.5q-80 0 -146 26t-113 72t-73.5 110t-26.5 140zM323 896h104l127 -120l-74 -81l-105 83l-105 -83l-74 81z" />
    <glyph glyph-name="ccircumflex" unicode="&#x109;" horiz-adv-x="509" 
d="M27 247q0 57 20.5 104.5t57 82t87 54t110.5 19.5q107 0 203 -60l-70 -117q-27 17 -53 27t-55 10q-54 0 -87 -33t-33 -87t33 -86.5t87 -32.5q29 0 55 10t53 27l70 -118q-97 -59 -203 -59q-60 0 -110.5 19t-87 53.5t-57 82t-20.5 104.5zM235 719h104l127 -120l-74 -81
l-105 83l-105 -83l-74 81z" />
    <glyph glyph-name="Cdotaccent" unicode="&#x10a;" horiz-adv-x="655" 
d="M28 336q0 76 26.5 140t73.5 110.5t113 72t146 25.5q65 0 130 -20.5t125 -58.5l-73 -121q-39 26 -77.5 40.5t-79.5 14.5q-44 0 -80 -15t-62 -41.5t-40.5 -64t-14.5 -82.5t14.5 -82.5t40.5 -64t62 -41.5t80 -15q41 0 79.5 14.5t77.5 40.5l73 -121q-60 -38 -125 -58.5
t-130 -20.5q-80 0 -146 26t-113 72t-73.5 110t-26.5 140zM278 802q0 43 27 70t70 27t70 -27t27 -70q0 -42 -27 -69t-70 -27t-70 27t-27 69z" />
    <glyph glyph-name="cdotaccent" unicode="&#x10b;" horiz-adv-x="509" 
d="M27 247q0 57 20.5 104.5t57 82t87 54t110.5 19.5q107 0 203 -60l-70 -117q-27 17 -53 27t-55 10q-54 0 -87 -33t-33 -87t33 -86.5t87 -32.5q29 0 55 10t53 27l70 -118q-97 -59 -203 -59q-60 0 -110.5 19t-87 53.5t-57 82t-20.5 104.5zM190 625q0 43 27 70t70 27t70 -27
t27 -70q0 -42 -27 -69t-70 -27t-70 27t-27 69z" />
    <glyph glyph-name="Ccaron" unicode="&#x10c;" horiz-adv-x="655" 
d="M28 336q0 76 26.5 140t73.5 110.5t113 72t146 25.5q65 0 130 -20.5t125 -58.5l-73 -121q-39 26 -77.5 40.5t-79.5 14.5q-44 0 -80 -15t-62 -41.5t-40.5 -64t-14.5 -82.5t14.5 -82.5t40.5 -64t62 -41.5t80 -15q41 0 79.5 14.5t77.5 40.5l73 -121q-60 -38 -125 -58.5
t-130 -20.5q-80 0 -146 26t-113 72t-73.5 110t-26.5 140zM427 709h-104l-127 120l74 81l105 -83l105 83l74 -81z" />
    <glyph glyph-name="ccaron" unicode="&#x10d;" horiz-adv-x="509" 
d="M27 247q0 57 20.5 104.5t57 82t87 54t110.5 19.5q107 0 203 -60l-70 -117q-27 17 -53 27t-55 10q-54 0 -87 -33t-33 -87t33 -86.5t87 -32.5q29 0 55 10t53 27l70 -118q-97 -59 -203 -59q-60 0 -110.5 19t-87 53.5t-57 82t-20.5 104.5zM339 532h-104l-127 120l74 81
l105 -83l105 83l74 -81z" />
    <glyph glyph-name="Dcaron" unicode="&#x10e;" horiz-adv-x="740" 
d="M69 672h293q78 0 143 -24.5t111 -68.5t71.5 -106t25.5 -137q0 -74 -25.5 -136t-71.5 -106.5t-111 -69t-143 -24.5h-293v672zM526 336q0 43 -13.5 79t-38.5 62t-59 40.5t-75 14.5h-88v-392h88q41 0 75 14.5t59 40.5t38.5 62t13.5 79zM406 709h-104l-127 120l74 81l105 -83
l105 83l74 -81z" />
    <glyph glyph-name="dcaron" unicode="&#x10f;" horiz-adv-x="726" 
d="M566 0h-140l-22 46q-28 -29 -65.5 -43.5t-81.5 -14.5q-51 0 -93 19t-72.5 53.5t-47.5 82t-17 104.5t17 105t47.5 82.5t72.5 53.5t93 19q38 0 72 -12t61 -35v244h176v-704zM207 247q0 -54 27 -87.5t70 -33.5q40 0 64.5 26.5t24.5 68.5v52q0 42 -24.5 69t-64.5 27
q-43 0 -70 -34t-27 -88zM695 522l-114 38l64 193l125 -43z" />
    <glyph glyph-name="Dcroat" unicode="&#x110;" horiz-adv-x="756" 
d="M85 278h-68v132h68v262h293q78 0 143 -24.5t111 -68.5t71.5 -106t25.5 -137q0 -74 -25.5 -136t-71.5 -106.5t-111 -69t-143 -24.5h-293v278zM549 336q0 43 -13.5 79t-38.5 62t-59 40.5t-74 14.5h-103v-122h135v-132h-135v-138h103q40 0 74 14.5t59 40.5t38.5 62t13.5 79z
" />
    <glyph glyph-name="dcroat" unicode="&#x111;" 
d="M566 652h51v-118h-51v-534h-140l-22 46q-28 -29 -65.5 -43.5t-81.5 -14.5q-51 0 -93 19t-72.5 53.5t-47.5 82t-17 104.5t17 105t47.5 82.5t72.5 53.5t93 19q38 0 72 -12t61 -35v74h-149v118h149v52h176v-52zM207 247q0 -54 27 -87.5t70 -33.5q40 0 64.5 26.5t24.5 68.5
v52q0 42 -24.5 69t-64.5 27q-43 0 -70 -34t-27 -88z" />
    <glyph glyph-name="Emacron" unicode="&#x112;" horiz-adv-x="607" 
d="M69 672h487v-136h-304v-126h272v-132h-272v-142h320v-136h-503v672zM146 861h330v-117h-330v117z" />
    <glyph glyph-name="emacron" unicode="&#x113;" horiz-adv-x="564" 
d="M27 247q0 57 19.5 105t55 82.5t84.5 53.5t108 19q55 0 101.5 -18.5t79.5 -51.5t51.5 -79.5t18.5 -102.5q0 -28 -3 -53h-339q10 -39 44.5 -62t84.5 -23q60 0 137 40l52 -118q-57 -26 -110.5 -38.5t-100.5 -12.5q-63 0 -115 19t-89.5 53.5t-58 82t-20.5 104.5zM294 378
q-35 0 -59 -20t-32 -53h173q-5 33 -27 53t-55 20zM129 684h330v-117h-330v117z" />
    <glyph glyph-name="Ebreve" unicode="&#x114;" horiz-adv-x="607" 
d="M69 672h487v-136h-304v-126h272v-132h-272v-142h320v-136h-503v672zM243 880q2 -29 20.5 -45t47.5 -16t47.5 16t20.5 45h111q-2 -42 -16 -75.5t-37.5 -56.5t-56 -35t-69.5 -12q-38 0 -70 12t-55.5 35t-38 56.5t-15.5 75.5h111z" />
    <glyph glyph-name="ebreve" unicode="&#x115;" horiz-adv-x="564" 
d="M27 247q0 57 19.5 105t55 82.5t84.5 53.5t108 19q55 0 101.5 -18.5t79.5 -51.5t51.5 -79.5t18.5 -102.5q0 -28 -3 -53h-339q10 -39 44.5 -62t84.5 -23q60 0 137 40l52 -118q-57 -26 -110.5 -38.5t-100.5 -12.5q-63 0 -115 19t-89.5 53.5t-58 82t-20.5 104.5zM294 378
q-35 0 -59 -20t-32 -53h173q-5 33 -27 53t-55 20zM225 703q2 -29 20.5 -45t47.5 -16t47.5 16t20.5 45h111q-2 -42 -16 -75.5t-37.5 -56.5t-56 -35t-69.5 -12q-38 0 -70 12t-55.5 35t-38 56.5t-15.5 75.5h111z" />
    <glyph glyph-name="Edotaccent" unicode="&#x116;" horiz-adv-x="607" 
d="M69 672h487v-136h-304v-126h272v-132h-272v-142h320v-136h-503v672zM214 802q0 43 27 70t70 27t70 -27t27 -70q0 -42 -27 -69t-70 -27t-70 27t-27 69z" />
    <glyph glyph-name="edotaccent" unicode="&#x117;" horiz-adv-x="564" 
d="M27 247q0 57 19.5 105t55 82.5t84.5 53.5t108 19q55 0 101.5 -18.5t79.5 -51.5t51.5 -79.5t18.5 -102.5q0 -28 -3 -53h-339q10 -39 44.5 -62t84.5 -23q60 0 137 40l52 -118q-57 -26 -110.5 -38.5t-100.5 -12.5q-63 0 -115 19t-89.5 53.5t-58 82t-20.5 104.5zM294 378
q-35 0 -59 -20t-32 -53h173q-5 33 -27 53t-55 20zM197 625q0 43 27 70t70 27t70 -27t27 -70q0 -42 -27 -69t-70 -27t-70 27t-27 69z" />
    <glyph glyph-name="Eogonek" unicode="&#x118;" horiz-adv-x="607" 
d="M69 672h487v-136h-304v-126h272v-132h-272v-142h320v-136q-35 -27 -53 -52.5t-18 -47.5q0 -17 11 -26t27 -9q6 0 14 1t16 3l18 -93q-23 -8 -46 -11t-46 -3q-56 0 -89.5 28t-33.5 77q0 35 21 69t61 64h-385v672z" />
    <glyph glyph-name="eogonek" unicode="&#x119;" horiz-adv-x="564" 
d="M27 247q0 57 19.5 105t55 82.5t84.5 53.5t108 19q55 0 101.5 -18.5t79.5 -51.5t51.5 -79.5t18.5 -102.5q0 -28 -3 -53h-339q10 -39 44.5 -62t84.5 -23q60 0 137 40l52 -118q-48 -39 -67.5 -71t-19.5 -60q0 -20 11 -31.5t27 -11.5q7 0 13.5 1t12.5 3l23 -91
q-23 -8 -46 -12t-46 -4q-56 0 -90 29t-34 80q0 32 14.5 62.5t45.5 58.5q-14 -2 -28 -3t-27 -1q-63 0 -115 19t-89.5 53.5t-58 82t-20.5 104.5zM294 378q-35 0 -59 -20t-32 -53h173q-5 33 -27 53t-55 20z" />
    <glyph glyph-name="Ecaron" unicode="&#x11a;" horiz-adv-x="607" 
d="M69 672h487v-136h-304v-126h272v-132h-272v-142h320v-136h-503v672zM363 709h-104l-127 120l74 81l105 -83l105 83l74 -81z" />
    <glyph glyph-name="ecaron" unicode="&#x11b;" horiz-adv-x="564" 
d="M27 247q0 57 19.5 105t55 82.5t84.5 53.5t108 19q55 0 101.5 -18.5t79.5 -51.5t51.5 -79.5t18.5 -102.5q0 -28 -3 -53h-339q10 -39 44.5 -62t84.5 -23q60 0 137 40l52 -118q-57 -26 -110.5 -38.5t-100.5 -12.5q-63 0 -115 19t-89.5 53.5t-58 82t-20.5 104.5zM294 378
q-35 0 -59 -20t-32 -53h173q-5 33 -27 53t-55 20zM346 532h-104l-127 120l74 81l105 -83l105 83l74 -81z" />
    <glyph glyph-name="Gcircumflex" unicode="&#x11c;" horiz-adv-x="724" 
d="M673 47q-67 -28 -133 -43.5t-137 -15.5q-83 0 -151.5 25.5t-118.5 72t-77.5 110t-27.5 140.5q0 76 27 140t76 110.5t116 72t148 25.5q130 0 263 -71l-66 -122q-48 25 -90 39t-85 14q-47 0 -85.5 -15.5t-66 -43t-43 -65.5t-15.5 -84q0 -47 15.5 -85.5t43 -65.5t66 -42
t85.5 -15t88 15v117h-134v133h302v-346zM339 896h104l127 -120l-74 -81l-105 83l-105 -83l-74 81z" />
    <glyph glyph-name="gcircumflex" unicode="&#x11d;" 
d="M566 26q0 -54 -21.5 -99t-60 -77.5t-91.5 -51t-115 -18.5q-53 0 -109.5 11.5t-116.5 35.5l48 129q47 -21 88.5 -30.5t74.5 -9.5q57 0 92 28.5t35 74.5v16q-27 -23 -61 -35t-72 -12q-51 0 -93 19t-72.5 53.5t-47.5 82t-17 104.5t17 105t47.5 82.5t72.5 53.5t93 19
q44 0 81.5 -15t65.5 -43l22 46h140v-469zM207 247q0 -54 27 -87.5t70 -33.5q40 0 64.5 26.5t24.5 68.5v52q0 42 -24.5 69t-64.5 27q-43 0 -70 -34t-27 -88zM257 719h104l127 -120l-74 -81l-105 83l-105 -83l-74 81z" />
    <glyph glyph-name="Gbreve" unicode="&#x11e;" horiz-adv-x="724" 
d="M673 47q-67 -28 -133 -43.5t-137 -15.5q-83 0 -151.5 25.5t-118.5 72t-77.5 110t-27.5 140.5q0 76 27 140t76 110.5t116 72t148 25.5q130 0 263 -71l-66 -122q-48 25 -90 39t-85 14q-47 0 -85.5 -15.5t-66 -43t-43 -65.5t-15.5 -84q0 -47 15.5 -85.5t43 -65.5t66 -42
t85.5 -15t88 15v117h-134v133h302v-346zM322 880q2 -29 20.5 -45t47.5 -16t47.5 16t20.5 45h111q-2 -42 -16 -75.5t-37.5 -56.5t-56 -35t-69.5 -12q-38 0 -70 12t-55.5 35t-38 56.5t-15.5 75.5h111z" />
    <glyph glyph-name="gbreve" unicode="&#x11f;" 
d="M566 26q0 -54 -21.5 -99t-60 -77.5t-91.5 -51t-115 -18.5q-53 0 -109.5 11.5t-116.5 35.5l48 129q47 -21 88.5 -30.5t74.5 -9.5q57 0 92 28.5t35 74.5v16q-27 -23 -61 -35t-72 -12q-51 0 -93 19t-72.5 53.5t-47.5 82t-17 104.5t17 105t47.5 82.5t72.5 53.5t93 19
q44 0 81.5 -15t65.5 -43l22 46h140v-469zM207 247q0 -54 27 -87.5t70 -33.5q40 0 64.5 26.5t24.5 68.5v52q0 42 -24.5 69t-64.5 27q-43 0 -70 -34t-27 -88zM241 703q2 -29 20.5 -45t47.5 -16t47.5 16t20.5 45h111q-2 -42 -16 -75.5t-37.5 -56.5t-56 -35t-69.5 -12
q-38 0 -70 12t-55.5 35t-38 56.5t-15.5 75.5h111z" />
    <glyph glyph-name="Gdotaccent" unicode="&#x120;" horiz-adv-x="724" 
d="M673 47q-67 -28 -133 -43.5t-137 -15.5q-83 0 -151.5 25.5t-118.5 72t-77.5 110t-27.5 140.5q0 76 27 140t76 110.5t116 72t148 25.5q130 0 263 -71l-66 -122q-48 25 -90 39t-85 14q-47 0 -85.5 -15.5t-66 -43t-43 -65.5t-15.5 -84q0 -47 15.5 -85.5t43 -65.5t66 -42
t85.5 -15t88 15v117h-134v133h302v-346zM294 802q0 43 27 70t70 27t70 -27t27 -70q0 -42 -27 -69t-70 -27t-70 27t-27 69z" />
    <glyph glyph-name="gdotaccent" unicode="&#x121;" 
d="M566 26q0 -54 -21.5 -99t-60 -77.5t-91.5 -51t-115 -18.5q-53 0 -109.5 11.5t-116.5 35.5l48 129q47 -21 88.5 -30.5t74.5 -9.5q57 0 92 28.5t35 74.5v16q-27 -23 -61 -35t-72 -12q-51 0 -93 19t-72.5 53.5t-47.5 82t-17 104.5t17 105t47.5 82.5t72.5 53.5t93 19
q44 0 81.5 -15t65.5 -43l22 46h140v-469zM207 247q0 -54 27 -87.5t70 -33.5q40 0 64.5 26.5t24.5 68.5v52q0 42 -24.5 69t-64.5 27q-43 0 -70 -34t-27 -88zM212 625q0 43 27 70t70 27t70 -27t27 -70q0 -42 -27 -69t-70 -27t-70 27t-27 69z" />
    <glyph glyph-name="Gcommaaccent" unicode="&#x122;" horiz-adv-x="724" 
d="M673 47q-67 -28 -133 -43.5t-137 -15.5q-83 0 -151.5 25.5t-118.5 72t-77.5 110t-27.5 140.5q0 76 27 140t76 110.5t116 72t148 25.5q130 0 263 -71l-66 -122q-48 25 -90 39t-85 14q-47 0 -85.5 -15.5t-66 -43t-43 -65.5t-15.5 -84q0 -47 15.5 -85.5t43 -65.5t66 -42
t85.5 -15t88 15v117h-134v133h302v-346zM302 -118q0 40 24.5 64.5t64.5 24.5t65 -28.5t25 -70.5q0 -58 -31.5 -108.5t-91.5 -84.5l-45 59q40 36 57 69q-30 1 -49 23t-19 52z" />
    <glyph glyph-name="gcommaaccent" unicode="&#x123;" 
d="M566 26q0 -54 -21.5 -99t-60 -77.5t-91.5 -51t-115 -18.5q-53 0 -109.5 11.5t-116.5 35.5l48 129q47 -21 88.5 -30.5t74.5 -9.5q57 0 92 28.5t35 74.5v16q-27 -23 -61 -35t-72 -12q-51 0 -93 19t-72.5 53.5t-47.5 82t-17 104.5t17 105t47.5 82.5t72.5 53.5t93 19
q44 0 81.5 -15t65.5 -43l22 46h140v-469zM207 247q0 -54 27 -87.5t70 -33.5q40 0 64.5 26.5t24.5 68.5v52q0 42 -24.5 69t-64.5 27q-43 0 -70 -34t-27 -88zM398 613q0 -40 -24.5 -64.5t-64.5 -24.5t-65 28t-25 70q0 59 31.5 109t91.5 85l45 -59q-20 -17 -34.5 -35t-22.5 -34
q30 -3 49 -24.5t19 -50.5z" />
    <glyph glyph-name="Hcircumflex" unicode="&#x124;" horiz-adv-x="788" 
d="M69 672h183v-258h284v258h183v-672h-183v274h-284v-274h-183v672zM342 896h104l127 -120l-74 -81l-105 83l-105 -83l-74 81z" />
    <glyph glyph-name="hcircumflex" unicode="&#x125;" 
d="M52 704h176v-252q29 26 66 40.5t82 14.5q44 0 80.5 -14.5t62.5 -40t40.5 -61t14.5 -78.5v-313h-176v284q0 35 -22 57t-56 22q-41 0 -66.5 -27t-25.5 -71v-265h-176v704zM88 928h104l127 -120l-74 -81l-105 83l-105 -83l-74 81z" />
    <glyph glyph-name="Hbar" unicode="&#x126;" horiz-adv-x="788" 
d="M69 486h-52v118h52v68h183v-68h284v68h183v-68h52v-118h-52v-486h-183v274h-284v-274h-183v486zM536 414v72h-284v-72h284z" />
    <glyph glyph-name="hbar" unicode="&#x127;" 
d="M52 534h-51v118h51v52h176v-52h149v-118h-149v-82q29 26 66 40.5t82 14.5q44 0 80.5 -14.5t62.5 -40t40.5 -61t14.5 -78.5v-313h-176v284q0 35 -22 57t-56 22q-41 0 -66.5 -27t-25.5 -71v-265h-176v534z" />
    <glyph glyph-name="Itilde" unicode="&#x128;" horiz-adv-x="321" 
d="M69 672h183v-672h-183v672zM97 878q21 0 37.5 -5t30 -11.5t25 -11.5t20.5 -5q23 0 34 33l103 -30q-8 -55 -40.5 -88t-81.5 -33q-21 0 -37.5 5t-30 11.5t-25 11.5t-20.5 5q-26 0 -34 -33l-103 30q8 55 40.5 88t81.5 33z" />
    <glyph glyph-name="itilde" unicode="&#x129;" horiz-adv-x="281" 
d="M52 495h176v-495h-176v495zM76 701q21 0 37.5 -5t30 -11.5t25 -11.5t20.5 -5q23 0 34 33l103 -30q-8 -55 -40.5 -88t-81.5 -33q-21 0 -37.5 5t-30 11.5t-25 11.5t-20.5 5q-26 0 -34 -33l-103 30q8 55 40.5 88t81.5 33z" />
    <glyph glyph-name="Imacron" unicode="&#x12a;" horiz-adv-x="321" 
d="M69 672h183v-672h-183v672zM-4 861h330v-117h-330v117z" />
    <glyph glyph-name="imacron" unicode="&#x12b;" horiz-adv-x="281" 
d="M52 495h176v-495h-176v495zM-25 684h330v-117h-330v117z" />
    <glyph glyph-name="Ibreve" unicode="&#x12c;" horiz-adv-x="321" 
d="M69 672h183v-672h-183v672zM92 880q2 -29 20.5 -45t47.5 -16t47.5 16t20.5 45h111q-2 -42 -16 -75.5t-37.5 -56.5t-56 -35t-69.5 -12q-38 0 -70 12t-55.5 35t-38 56.5t-15.5 75.5h111z" />
    <glyph glyph-name="ibreve" unicode="&#x12d;" horiz-adv-x="281" 
d="M52 495h176v-495h-176v495zM72 703q2 -29 20.5 -45t47.5 -16t47.5 16t20.5 45h111q-2 -42 -16 -75.5t-37.5 -56.5t-56 -35t-69.5 -12q-38 0 -70 12t-55.5 35t-38 56.5t-15.5 75.5h111z" />
    <glyph glyph-name="Iogonek" unicode="&#x12e;" horiz-adv-x="321" 
d="M252 0q-35 -27 -53 -52.5t-18 -47.5q0 -17 11 -26t27 -9q6 0 14 1t16 3l18 -93q-23 -8 -46 -11t-46 -3q-56 0 -89.5 28t-33.5 77q0 35 21 69t61 64h-65v672h183v-672z" />
    <glyph glyph-name="iogonek" unicode="&#x12f;" horiz-adv-x="281" 
d="M228 0q-35 -27 -53 -52.5t-18 -47.5q0 -17 11 -26t27 -9q6 0 14 1t16 3l18 -93q-23 -8 -46 -11t-46 -3q-56 0 -89.5 28t-33.5 77q0 35 21 69t61 64h-58v495h176v-495zM40 625q0 45 28 73t72 28q45 0 73 -28t28 -73q0 -44 -28 -72t-73 -28q-44 0 -72 28t-28 72z" />
    <glyph glyph-name="Idotaccent" unicode="&#x130;" horiz-adv-x="321" 
d="M69 672h183v-672h-183v672zM64 802q0 43 27 70t70 27t70 -27t27 -70q0 -42 -27 -69t-70 -27t-70 27t-27 69z" />
    <glyph glyph-name="dotlessi" unicode="&#x131;" horiz-adv-x="281" 
d="M52 495h176v-495h-176v495z" />
    <glyph glyph-name="IJ" unicode="&#x132;" horiz-adv-x="783" 
d="M69 672h183v-672h-183v672zM713 207q0 -49 -16.5 -89.5t-47 -69t-72.5 -44.5t-93 -16q-36 0 -73.5 4.5t-79.5 15.5l22 139q23 -5 45.5 -8.5t41.5 -3.5q39 0 64.5 24.5t25.5 65.5v447h183v-465z" />
    <glyph glyph-name="ij" unicode="&#x133;" horiz-adv-x="569" 
d="M52 495h176v-495h-176v495zM40 625q0 45 28 73t72 28q45 0 73 -28t28 -73q0 -44 -28 -72t-73 -28q-44 0 -72 28t-28 72zM517 -45q0 -39 -13.5 -71.5t-37.5 -55.5t-58 -35.5t-76 -12.5q-59 0 -124 16l22 130q33 -6 58 -6t39 14t14 39v522h176v-540zM329 625q0 45 28 73
t72 28q45 0 73 -28t28 -73q0 -44 -28 -72t-73 -28q-44 0 -72 28t-28 72z" />
    <glyph glyph-name="Jcircumflex" unicode="&#x134;" horiz-adv-x="461" 
d="M392 207q0 -49 -16.5 -89.5t-47 -69t-72.5 -44.5t-93 -16q-36 0 -73.5 4.5t-79.5 15.5l22 139q23 -5 45.5 -8.5t41.5 -3.5q39 0 64.5 24.5t25.5 65.5v447h183v-465zM248 896h104l127 -120l-74 -81l-105 83l-105 -83l-74 81z" />
    <glyph glyph-name="jcircumflex" unicode="&#x135;" horiz-adv-x="289" 
d="M236 -45q0 -39 -13.5 -71.5t-37.5 -55.5t-58 -35.5t-76 -12.5q-59 0 -124 16l22 130q33 -6 58 -6t39 14t14 39v522h176v-540zM96 719h104l127 -120l-74 -81l-105 83l-105 -83l-74 81z" />
    <glyph glyph-name="Kcommaaccent" unicode="&#x136;" horiz-adv-x="698" 
d="M69 672h176v-284l248 284h210l-286 -314l298 -358h-213l-207 251l-50 -54v-197h-176v672zM268 -118q0 40 24.5 64.5t64.5 24.5t65 -28.5t25 -70.5q0 -58 -31.5 -108.5t-91.5 -84.5l-45 59q40 36 57 69q-30 1 -49 23t-19 52z" />
    <glyph glyph-name="kcommaaccent" unicode="&#x137;" horiz-adv-x="553" 
d="M52 704h169v-388l143 179h198l-203 -232l211 -263h-202l-122 160l-25 -27v-133h-169v704zM187 -118q0 40 24.5 64.5t64.5 24.5t65 -28.5t25 -70.5q0 -58 -31.5 -108.5t-91.5 -84.5l-45 59q40 36 57 69q-30 1 -49 23t-19 52z" />
    <glyph glyph-name="kgreenlandic" unicode="&#x138;" horiz-adv-x="553" 
d="M52 495h169v-179l143 179h198l-203 -232l211 -263h-202l-122 160l-25 -27v-133h-169v495z" />
    <glyph glyph-name="Lacute" unicode="&#x139;" horiz-adv-x="543" 
d="M69 672h183v-532h273v-140h-456v672zM129 695l-66 95l200 140l76 -110z" />
    <glyph glyph-name="lacute" unicode="&#x13a;" horiz-adv-x="329" 
d="M228 167q0 -18 11 -28.5t29 -10.5q9 0 19.5 1t21.5 3l18 -132q-54 -12 -103 -12q-80 0 -126 43.5t-46 117.5v555h176v-537zM108 727l-66 95l200 140l76 -110z" />
    <glyph glyph-name="Lcommaaccent" unicode="&#x13b;" horiz-adv-x="543" 
d="M69 672h183v-532h273v-140h-456v672zM214 -118q0 40 24.5 64.5t64.5 24.5t65 -28.5t25 -70.5q0 -58 -31.5 -108.5t-91.5 -84.5l-45 59q40 36 57 69q-30 1 -49 23t-19 52z" />
    <glyph glyph-name="lcommaaccent" unicode="&#x13c;" horiz-adv-x="329" 
d="M228 167q0 -18 11 -28.5t29 -10.5q9 0 19.5 1t21.5 3l18 -132q-54 -12 -103 -12q-80 0 -126 43.5t-46 117.5v555h176v-537zM93 -118q0 40 24.5 64.5t64.5 24.5t65 -28.5t25 -70.5q0 -58 -31.5 -108.5t-91.5 -84.5l-45 59q40 36 57 69q-30 1 -49 23t-19 52z" />
    <glyph glyph-name="Lcaron" unicode="&#x13d;" horiz-adv-x="543" 
d="M69 672h183v-532h273v-140h-456v672zM406 490l-114 38l64 193l125 -43z" />
    <glyph glyph-name="lcaron" unicode="&#x13e;" horiz-adv-x="314" 
d="M228 167q0 -18 11 -28.5t29 -10.5q9 0 19.5 1t21.5 3l18 -132q-54 -12 -103 -12q-80 0 -126 43.5t-46 117.5v555h176v-537zM366 522l-114 38l64 193l125 -43z" />
    <glyph glyph-name="Ldot" unicode="&#x13f;" horiz-adv-x="559" 
d="M69 672h183v-532h273v-140h-456v672zM343 359q0 43 27 70t70 27t70 -27t27 -70q0 -42 -27 -69t-70 -27t-70 27t-27 69z" />
    <glyph glyph-name="ldot" unicode="&#x140;" horiz-adv-x="433" 
d="M228 167q0 -18 11 -28.5t29 -10.5q9 0 19.5 1t21.5 3l18 -132q-54 -12 -103 -12q-80 0 -126 43.5t-46 117.5v555h176v-537zM260 344q0 43 27 70t70 27t70 -27t27 -70q0 -42 -27 -69t-70 -27t-70 27t-27 69z" />
    <glyph glyph-name="Lslash" unicode="&#x141;" horiz-adv-x="559" 
d="M85 227l-38 -19l-55 105l93 47v312h183v-220l88 44l56 -105l-144 -72v-179h273v-140h-456v227z" />
    <glyph glyph-name="lslash" unicode="&#x142;" horiz-adv-x="361" 
d="M60 378v326h176v-238l61 30l55 -104l-116 -58v-167q0 -18 11 -28.5t29 -10.5q9 0 19.5 1t21.5 3l18 -132q-54 -12 -103 -12q-38 0 -70 12t-54.5 33.5t-35 51t-12.5 64.5v97l-44 -22l-55 104z" />
    <glyph glyph-name="Nacute" unicode="&#x143;" horiz-adv-x="804" 
d="M69 672h176l306 -423v423h168v-672h-176l-305 423v-423h-169v672zM362 695l-66 95l200 140l76 -110z" />
    <glyph glyph-name="nacute" unicode="&#x144;" 
d="M52 495h140l22 -54q29 32 70.5 49t91.5 17q44 0 80.5 -14.5t62.5 -40t40.5 -61t14.5 -78.5v-313h-176v284q0 35 -22 57t-56 22q-41 0 -66.5 -27t-25.5 -71v-265h-176v495zM281 518l-66 95l200 140l76 -110z" />
    <glyph glyph-name="Ncommaaccent" unicode="&#x145;" horiz-adv-x="788" 
d="M69 672h176l306 -423v423h168v-672h-176l-305 423v-423h-169v672zM305 -118q0 40 24.5 64.5t64.5 24.5t65 -28.5t25 -70.5q0 -58 -31.5 -108.5t-91.5 -84.5l-45 59q40 36 57 69q-30 1 -49 23t-19 52z" />
    <glyph glyph-name="ncommaaccent" unicode="&#x146;" 
d="M52 495h140l22 -54q29 32 70.5 49t91.5 17q44 0 80.5 -14.5t62.5 -40t40.5 -61t14.5 -78.5v-313h-176v284q0 35 -22 57t-56 22q-41 0 -66.5 -27t-25.5 -71v-265h-176v495zM224 -118q0 40 24.5 64.5t64.5 24.5t65 -28.5t25 -70.5q0 -58 -31.5 -108.5t-91.5 -84.5l-45 59
q40 36 57 69q-30 1 -49 23t-19 52z" />
    <glyph glyph-name="Ncaron" unicode="&#x147;" horiz-adv-x="788" 
d="M69 672h176l306 -423v423h168v-672h-176l-305 423v-423h-169v672zM446 709h-104l-127 120l74 81l105 -83l105 83l74 -81z" />
    <glyph glyph-name="ncaron" unicode="&#x148;" 
d="M52 495h140l22 -54q29 32 70.5 49t91.5 17q44 0 80.5 -14.5t62.5 -40t40.5 -61t14.5 -78.5v-313h-176v284q0 35 -22 57t-56 22q-41 0 -66.5 -27t-25.5 -71v-265h-176v495zM365 532h-104l-127 120l74 81l105 -83l105 83l74 -81z" />
    <glyph glyph-name="napostrophe" unicode="&#x149;" horiz-adv-x="804" 
d="M238 495h140l22 -54q29 32 70.5 49t91.5 17q44 0 80.5 -14.5t62.5 -40t40.5 -61t14.5 -78.5v-313h-176v284q0 35 -22 57t-56 22q-41 0 -66.5 -27t-25.5 -71v-265h-176v495zM15 596q0 40 24.5 64.5t64.5 24.5t65 -28.5t25 -70.5q0 -58 -31.5 -108.5t-91.5 -84.5l-45 59
q40 36 57 69q-30 1 -49 23t-19 52z" />
    <glyph glyph-name="Eng" unicode="&#x14a;" horiz-adv-x="788" 
d="M69 672h176l306 -423v423h168v-673q0 -49 -16.5 -89.5t-47 -69t-72.5 -44.5t-93 -16q-35 0 -73 4.5t-80 15.5l23 139q26 -5 50.5 -8.5t46.5 -3.5q37 0 61.5 18.5t24.5 45.5v9l-305 423v-423h-169v672z" />
    <glyph glyph-name="eng" unicode="&#x14b;" 
d="M52 495h140l22 -54q29 32 70.5 49t91.5 17q44 0 80.5 -14.5t62.5 -40t40.5 -61.5t14.5 -79v-357q0 -39 -13.5 -71.5t-38 -55.5t-58.5 -35.5t-76 -12.5q-59 0 -123 16l22 130q31 -6 58 -6q25 0 39 14t14 39v310q0 35 -22 57.5t-56 22.5q-41 0 -66.5 -26t-25.5 -68v-269
h-176v495z" />
    <glyph glyph-name="Omacron" unicode="&#x14c;" horiz-adv-x="788" 
d="M28 336q0 76 27 140t75.5 110.5t115.5 72t148 25.5t148 -25.5t116 -72t76 -110.5t27 -140q0 -77 -27 -140.5t-76 -110t-116 -72t-148 -25.5t-148 25.5t-115.5 72t-75.5 110t-27 140.5zM215 336q0 -45 13 -82.5t36.5 -65t56.5 -42.5t73 -15t73 15t57 42.5t37 65t13 82.5
t-13 82.5t-37 65t-57 42.5t-73 15t-73 -15t-56.5 -42.5t-36.5 -65t-13 -82.5zM229 861h330v-117h-330v117z" />
    <glyph glyph-name="omacron" unicode="&#x14d;" 
d="M27 247q0 57 21 105t58.5 82.5t89 53.5t113.5 19t114 -19t89.5 -53.5t58 -82.5t20.5 -105t-20.5 -104.5t-58 -82t-89.5 -53.5t-114 -19t-113.5 19t-89 53.5t-58.5 82t-21 104.5zM207 247q0 -54 28.5 -88.5t73.5 -34.5t74 34.5t29 88.5q0 55 -29 89.5t-74 34.5
t-73.5 -34.5t-28.5 -89.5zM144 684h330v-117h-330v117z" />
    <glyph glyph-name="Obreve" unicode="&#x14e;" horiz-adv-x="788" 
d="M28 336q0 76 27 140t75.5 110.5t115.5 72t148 25.5t148 -25.5t116 -72t76 -110.5t27 -140q0 -77 -27 -140.5t-76 -110t-116 -72t-148 -25.5t-148 25.5t-115.5 72t-75.5 110t-27 140.5zM215 336q0 -45 13 -82.5t36.5 -65t56.5 -42.5t73 -15t73 15t57 42.5t37 65t13 82.5
t-13 82.5t-37 65t-57 42.5t-73 15t-73 -15t-56.5 -42.5t-36.5 -65t-13 -82.5zM326 880q2 -29 20.5 -45t47.5 -16t47.5 16t20.5 45h111q-2 -42 -16 -75.5t-37.5 -56.5t-56 -35t-69.5 -12q-38 0 -70 12t-55.5 35t-38 56.5t-15.5 75.5h111z" />
    <glyph glyph-name="obreve" unicode="&#x14f;" 
d="M27 247q0 57 21 105t58.5 82.5t89 53.5t113.5 19t114 -19t89.5 -53.5t58 -82.5t20.5 -105t-20.5 -104.5t-58 -82t-89.5 -53.5t-114 -19t-113.5 19t-89 53.5t-58.5 82t-21 104.5zM207 247q0 -54 28.5 -88.5t73.5 -34.5t74 34.5t29 88.5q0 55 -29 89.5t-74 34.5
t-73.5 -34.5t-28.5 -89.5zM241 703q2 -29 20.5 -45t47.5 -16t47.5 16t20.5 45h111q-2 -42 -16 -75.5t-37.5 -56.5t-56 -35t-69.5 -12q-38 0 -70 12t-55.5 35t-38 56.5t-15.5 75.5h111z" />
    <glyph glyph-name="Ohungarumlaut" unicode="&#x150;" horiz-adv-x="788" 
d="M28 336q0 76 27 140t75.5 110.5t115.5 72t148 25.5t148 -25.5t116 -72t76 -110.5t27 -140q0 -77 -27 -140.5t-76 -110t-116 -72t-148 -25.5t-148 25.5t-115.5 72t-75.5 110t-27 140.5zM215 336q0 -45 13 -82.5t36.5 -65t56.5 -42.5t73 -15t73 15t57 42.5t37 65t13 82.5
t-13 82.5t-37 65t-57 42.5t-73 15t-73 -15t-56.5 -42.5t-36.5 -65t-13 -82.5zM509 694l-88 88l161 172l99 -99zM262 694l-88 88l161 172l99 -99z" />
    <glyph glyph-name="ohungarumlaut" unicode="&#x151;" 
d="M27 247q0 57 21 105t58.5 82.5t89 53.5t113.5 19t114 -19t89.5 -53.5t58 -82.5t20.5 -105t-20.5 -104.5t-58 -82t-89.5 -53.5t-114 -19t-113.5 19t-89 53.5t-58.5 82t-21 104.5zM207 247q0 -54 28.5 -88.5t73.5 -34.5t74 34.5t29 88.5q0 55 -29 89.5t-74 34.5
t-73.5 -34.5t-28.5 -89.5zM424 517l-88 88l161 172l99 -99zM177 517l-88 88l161 172l99 -99z" />
    <glyph glyph-name="OE" unicode="&#x152;" horiz-adv-x="1008" 
d="M28 336q0 74 25 136t70 106.5t108 69t140 24.5h586v-136h-303v-126h271v-132h-271v-142h319v-136h-602q-77 0 -140 24.5t-108 68.5t-70 106t-25 137zM215 336q0 -43 13 -79t37 -62t56.5 -40.5t71.5 -14.5h78v392h-78q-39 0 -71.5 -14.5t-56.5 -40.5t-37 -62t-13 -79z" />
    <glyph glyph-name="oe" unicode="&#x153;" horiz-adv-x="952" 
d="M27 247q0 57 21 105t58.5 82.5t89 53.5t113.5 19q57 0 106.5 -18.5t85.5 -50.5q38 32 84 50.5t97 18.5q55 0 101.5 -18.5t79.5 -52t51.5 -80t18.5 -101.5q0 -28 -3 -53h-339q10 -39 44.5 -62t84.5 -23q60 0 137 40l52 -118q-57 -26 -110 -38.5t-101 -12.5q-57 0 -107 19
t-88 54q-37 -34 -86.5 -53.5t-107.5 -19.5q-62 0 -113.5 19t-89 53.5t-58.5 82t-21 104.5zM207 247q0 -54 28.5 -88.5t73.5 -34.5t74 34.5t29 88.5q0 55 -29 89.5t-74 34.5t-73.5 -34.5t-28.5 -89.5zM682 378q-35 0 -59 -20t-32 -53h173q-4 33 -26 53t-56 20z" />
    <glyph glyph-name="Racute" unicode="&#x154;" horiz-adv-x="669" 
d="M69 672h304q54 0 98.5 -16.5t77 -45.5t50.5 -69.5t18 -89.5q0 -73 -37.5 -126.5t-103.5 -72.5l172 -252h-198l-143 223h-62v-223h-176v672zM245 363h99q41 0 67 23t26 62q0 38 -26 61t-67 23h-99v-169zM311 695l-66 95l200 140l76 -110z" />
    <glyph glyph-name="racute" unicode="&#x155;" horiz-adv-x="418" 
d="M52 495h140l22 -62q23 33 58.5 51.5t79.5 18.5q12 0 27.5 -2t29.5 -5l-15 -139q-12 2 -27 4t-30 2q-51 0 -80 -33t-29 -87v-243h-176v495zM190 518l-66 95l200 140l76 -110z" />
    <glyph glyph-name="Rcommaaccent" unicode="&#x156;" horiz-adv-x="669" 
d="M69 672h304q54 0 98.5 -16.5t77 -45.5t50.5 -69.5t18 -89.5q0 -73 -37.5 -126.5t-103.5 -72.5l172 -252h-198l-143 223h-62v-223h-176v672zM245 363h99q41 0 67 23t26 62q0 38 -26 61t-67 23h-99v-169zM254 -118q0 40 24.5 64.5t64.5 24.5t65 -28.5t25 -70.5
q0 -58 -31.5 -108.5t-91.5 -84.5l-45 59q40 36 57 69q-30 1 -49 23t-19 52z" />
    <glyph glyph-name="rcommaaccent" unicode="&#x157;" horiz-adv-x="418" 
d="M52 495h140l22 -62q23 33 58.5 51.5t79.5 18.5q12 0 27.5 -2t29.5 -5l-15 -139q-12 2 -27 4t-30 2q-51 0 -80 -33t-29 -87v-243h-176v495zM51 -118q0 40 24.5 64.5t64.5 24.5t65 -28.5t25 -70.5q0 -58 -31.5 -108.5t-91.5 -84.5l-45 59q40 36 57 69q-30 1 -49 23t-19 52z
" />
    <glyph glyph-name="Rcaron" unicode="&#x158;" horiz-adv-x="669" 
d="M69 672h304q54 0 98.5 -16.5t77 -45.5t50.5 -69.5t18 -89.5q0 -73 -37.5 -126.5t-103.5 -72.5l172 -252h-198l-143 223h-62v-223h-176v672zM245 363h99q41 0 67 23t26 62q0 38 -26 61t-67 23h-99v-169zM395 709h-104l-127 120l74 81l105 -83l105 83l74 -81z" />
    <glyph glyph-name="rcaron" unicode="&#x159;" horiz-adv-x="418" 
d="M52 495h140l22 -62q23 33 58.5 51.5t79.5 18.5q12 0 27.5 -2t29.5 -5l-15 -139q-12 2 -27 4t-30 2q-51 0 -80 -33t-29 -87v-243h-176v495zM274 532h-104l-127 120l74 81l105 -83l105 83l74 -81z" />
    <glyph glyph-name="Sacute" unicode="&#x15a;" horiz-adv-x="597" 
d="M35 480q0 45 19.5 82.5t54.5 64.5t83.5 42t106.5 15q59 0 118.5 -12t124.5 -36l-41 -136q-103 41 -188 41q-45 0 -71.5 -16t-26.5 -45q0 -27 26 -40.5t65 -23t84.5 -20.5t84.5 -33.5t65 -61.5t26 -105q0 -47 -19.5 -85t-55 -65.5t-84.5 -42.5t-108 -15q-63 0 -129.5 13.5
t-138.5 42.5l41 136q59 -23 113 -36t99 -13q48 0 75 17t27 48q0 28 -26 42t-65 24.5t-84.5 22t-84.5 33.5t-65 60t-26 102zM267 695l-66 95l200 140l76 -110z" />
    <glyph glyph-name="sacute" unicode="&#x15b;" horiz-adv-x="476" 
d="M31 347q0 34 15 63.5t42.5 51t65.5 33.5t84 12q47 0 95.5 -9.5t99.5 -26.5l-37 -125q-38 14 -74.5 23t-69.5 9q-49 0 -49 -31q0 -15 18 -21.5t45.5 -12t59.5 -13t59.5 -24.5t45.5 -46t18 -78q0 -36 -15.5 -66t-43 -51.5t-66.5 -34t-86 -12.5q-101 0 -211 40l37 125
q87 -36 159 -36q26 0 39.5 9.5t13.5 25.5q0 15 -18 22.5t-45.5 13t-59 13.5t-59 24.5t-45.5 45t-18 76.5zM206 518l-66 95l200 140l76 -110z" />
    <glyph glyph-name="Scircumflex" unicode="&#x15c;" horiz-adv-x="597" 
d="M35 480q0 45 19.5 82.5t54.5 64.5t83.5 42t106.5 15q59 0 118.5 -12t124.5 -36l-41 -136q-103 41 -188 41q-45 0 -71.5 -16t-26.5 -45q0 -27 26 -40.5t65 -23t84.5 -20.5t84.5 -33.5t65 -61.5t26 -105q0 -47 -19.5 -85t-55 -65.5t-84.5 -42.5t-108 -15q-63 0 -129.5 13.5
t-138.5 42.5l41 136q59 -23 113 -36t99 -13q48 0 75 17t27 48q0 28 -26 42t-65 24.5t-84.5 22t-84.5 33.5t-65 60t-26 102zM247 896h104l127 -120l-74 -81l-105 83l-105 -83l-74 81z" />
    <glyph glyph-name="scircumflex" unicode="&#x15d;" horiz-adv-x="476" 
d="M31 347q0 34 15 63.5t42.5 51t65.5 33.5t84 12q47 0 95.5 -9.5t99.5 -26.5l-37 -125q-38 14 -74.5 23t-69.5 9q-49 0 -49 -31q0 -15 18 -21.5t45.5 -12t59.5 -13t59.5 -24.5t45.5 -46t18 -78q0 -36 -15.5 -66t-43 -51.5t-66.5 -34t-86 -12.5q-101 0 -211 40l37 125
q87 -36 159 -36q26 0 39.5 9.5t13.5 25.5q0 15 -18 22.5t-45.5 13t-59 13.5t-59 24.5t-45.5 45t-18 76.5zM186 719h104l127 -120l-74 -81l-105 83l-105 -83l-74 81z" />
    <glyph glyph-name="Scedilla" unicode="&#x15e;" horiz-adv-x="597" 
d="M35 480q0 45 19.5 82.5t54.5 64.5t83.5 42t106.5 15q59 0 118.5 -12t124.5 -36l-41 -136q-103 41 -188 41q-45 0 -71.5 -16t-26.5 -45q0 -27 26 -40.5t65 -23t84.5 -20.5t84.5 -33.5t65 -61.5t26 -105q0 -80 -55 -134t-147 -69l-4 -25q32 -10 50.5 -36t18.5 -61
q0 -49 -42 -79t-111 -30q-26 0 -53.5 4.5t-55.5 15.5l28 96q19 -6 34.5 -9.5t28.5 -3.5q14 0 23 6.5t9 17.5q0 10 -11.5 16.5t-31.5 6.5h-15l14 79q-51 4 -104.5 16.5t-110.5 36.5l41 136q59 -23 113 -36t99 -13q48 0 75 17t27 48q0 28 -26 42t-65 24.5t-84.5 22t-84.5 33.5
t-65 60t-26 102z" />
    <glyph glyph-name="scedilla" unicode="&#x15f;" horiz-adv-x="476" 
d="M31 347q0 34 15 63.5t42.5 51t65.5 33.5t84 12q47 0 95.5 -9.5t99.5 -26.5l-37 -125q-38 14 -74.5 23t-69.5 9q-49 0 -49 -31q0 -15 18 -21.5t45.5 -12t59.5 -13t59.5 -24.5t45.5 -46t18 -78q0 -58 -39.5 -100t-105.5 -57l-5 -27q32 -10 51 -36t19 -61q0 -49 -42.5 -79
t-111.5 -30q-26 0 -53.5 4.5t-55.5 15.5l28 96q19 -6 35 -9.5t28 -3.5q14 0 23 6.5t9 17.5q0 10 -11.5 16.5t-31.5 6.5h-15l14 79q-38 4 -77 12.5t-81 24.5l37 125q87 -36 159 -36q26 0 39.5 9.5t13.5 25.5q0 15 -18 22.5t-45.5 13t-59 13.5t-59 24.5t-45.5 45t-18 76.5z
" />
    <glyph glyph-name="Scaron" unicode="&#x160;" horiz-adv-x="597" 
d="M35 480q0 45 19.5 82.5t54.5 64.5t83.5 42t106.5 15q59 0 118.5 -12t124.5 -36l-41 -136q-103 41 -188 41q-45 0 -71.5 -16t-26.5 -45q0 -27 26 -40.5t65 -23t84.5 -20.5t84.5 -33.5t65 -61.5t26 -105q0 -47 -19.5 -85t-55 -65.5t-84.5 -42.5t-108 -15q-63 0 -129.5 13.5
t-138.5 42.5l41 136q59 -23 113 -36t99 -13q48 0 75 17t27 48q0 28 -26 42t-65 24.5t-84.5 22t-84.5 33.5t-65 60t-26 102zM351 709h-104l-127 120l74 81l105 -83l105 83l74 -81z" />
    <glyph glyph-name="scaron" unicode="&#x161;" horiz-adv-x="476" 
d="M31 347q0 34 15 63.5t42.5 51t65.5 33.5t84 12q47 0 95.5 -9.5t99.5 -26.5l-37 -125q-38 14 -74.5 23t-69.5 9q-49 0 -49 -31q0 -15 18 -21.5t45.5 -12t59.5 -13t59.5 -24.5t45.5 -46t18 -78q0 -36 -15.5 -66t-43 -51.5t-66.5 -34t-86 -12.5q-101 0 -211 40l37 125
q87 -36 159 -36q26 0 39.5 9.5t13.5 25.5q0 15 -18 22.5t-45.5 13t-59 13.5t-59 24.5t-45.5 45t-18 76.5zM290 532h-104l-127 120l74 81l105 -83l105 83l74 -81z" />
    <glyph glyph-name="Tcommaaccent" unicode="&#x162;" horiz-adv-x="607" 
d="M212 532h-195v140h572v-140h-194v-532h-183v532zM214 -118q0 40 24.5 64.5t64.5 24.5t65 -28.5t25 -70.5q0 -58 -31.5 -108.5t-91.5 -84.5l-45 59q40 36 57 69q-30 1 -49 23t-19 52z" />
    <glyph glyph-name="tcommaaccent" unicode="&#x163;" horiz-adv-x="428" 
d="M276 495h118v-133h-118v-181q0 -25 14.5 -39t38.5 -14q26 0 58 6l22 -130q-64 -16 -123 -16q-42 0 -76 12.5t-58.5 35.5t-38 55.5t-13.5 71.5v199h-83v133h83v144h176v-144zM158 -118q0 40 24.5 64.5t64.5 24.5t65 -28.5t25 -70.5q0 -58 -31.5 -108.5t-91.5 -84.5l-45 59
q40 36 57 69q-30 1 -49 23t-19 52z" />
    <glyph glyph-name="Tcaron" unicode="&#x164;" horiz-adv-x="607" 
d="M212 532h-195v140h572v-140h-194v-532h-183v532zM359 709h-104l-127 120l74 81l105 -83l105 83l74 -81z" />
    <glyph glyph-name="tcaron" unicode="&#x165;" horiz-adv-x="428" 
d="M276 495h118v-133h-118v-181q0 -25 14.5 -39t38.5 -14q26 0 58 6l22 -130q-64 -16 -123 -16q-42 0 -76 12.5t-58.5 35.5t-38 55.5t-13.5 71.5v199h-83v133h83v144h176v-144zM406 522l-114 38l64 193l125 -43z" />
    <glyph glyph-name="Tbar" unicode="&#x166;" horiz-adv-x="607" 
d="M212 250h-113v133h113v149h-195v140h572v-140h-194v-149h113v-133h-113v-250h-183v250z" />
    <glyph glyph-name="tbar" unicode="&#x167;" horiz-adv-x="428" 
d="M276 495h118v-133h-118v-53h102v-118h-102v-14q0 -23 15 -36t38 -13q26 0 58 6l22 -130q-64 -16 -123 -16q-42 0 -76 12.5t-58.5 35.5t-38 55t-13.5 72v28h-75v118h75v53h-83v133h83v144h176v-144z" />
    <glyph glyph-name="Utilde" unicode="&#x168;" horiz-adv-x="788" 
d="M727 270q0 -63 -25 -115t-69 -89t-105 -57.5t-134 -20.5t-134 20.5t-105.5 57.5t-69 89t-24.5 115v402h183v-395q0 -33 11 -59.5t31 -46t47.5 -30t60.5 -10.5t61 10.5t47.5 30t30.5 46t11 59.5v395h183v-402zM330 878q21 0 37.5 -5t30 -11.5t25 -11.5t20.5 -5q23 0 34 33
l103 -30q-8 -55 -40.5 -88t-81.5 -33q-21 0 -37.5 5t-30 11.5t-25 11.5t-20.5 5q-26 0 -34 -33l-103 30q8 55 40.5 88t81.5 33z" />
    <glyph glyph-name="utilde" unicode="&#x169;" 
d="M566 0h-140l-22 54q-29 -32 -70.5 -49t-91.5 -17q-44 0 -80 14t-62.5 39.5t-41 61.5t-14.5 79v313h176v-284q0 -35 22 -57.5t57 -22.5q40 0 65.5 27t25.5 71v266h176v-495zM241 701q21 0 37.5 -5t30 -11.5t25 -11.5t20.5 -5q23 0 34 33l103 -30q-8 -55 -40.5 -88
t-81.5 -33q-21 0 -37.5 5t-30 11.5t-25 11.5t-20.5 5q-26 0 -34 -33l-103 30q8 55 40.5 88t81.5 33z" />
    <glyph glyph-name="Umacron" unicode="&#x16a;" horiz-adv-x="788" 
d="M727 270q0 -63 -25 -115t-69 -89t-105 -57.5t-134 -20.5t-134 20.5t-105.5 57.5t-69 89t-24.5 115v402h183v-395q0 -33 11 -59.5t31 -46t47.5 -30t60.5 -10.5t61 10.5t47.5 30t30.5 46t11 59.5v395h183v-402zM229 861h330v-117h-330v117z" />
    <glyph glyph-name="umacron" unicode="&#x16b;" 
d="M566 0h-140l-22 54q-29 -32 -70.5 -49t-91.5 -17q-44 0 -80 14t-62.5 39.5t-41 61.5t-14.5 79v313h176v-284q0 -35 22 -57.5t57 -22.5q40 0 65.5 27t25.5 71v266h176v-495zM140 684h330v-117h-330v117z" />
    <glyph glyph-name="Ubreve" unicode="&#x16c;" horiz-adv-x="788" 
d="M727 270q0 -63 -25 -115t-69 -89t-105 -57.5t-134 -20.5t-134 20.5t-105.5 57.5t-69 89t-24.5 115v402h183v-395q0 -33 11 -59.5t31 -46t47.5 -30t60.5 -10.5t61 10.5t47.5 30t30.5 46t11 59.5v395h183v-402zM326 880q2 -29 20.5 -45t47.5 -16t47.5 16t20.5 45h111
q-2 -42 -16 -75.5t-37.5 -56.5t-56 -35t-69.5 -12q-38 0 -70 12t-55.5 35t-38 56.5t-15.5 75.5h111z" />
    <glyph glyph-name="ubreve" unicode="&#x16d;" 
d="M566 0h-140l-22 54q-29 -32 -70.5 -49t-91.5 -17q-44 0 -80 14t-62.5 39.5t-41 61.5t-14.5 79v313h176v-284q0 -35 22 -57.5t57 -22.5q40 0 65.5 27t25.5 71v266h176v-495zM237 703q2 -29 20.5 -45t47.5 -16t47.5 16t20.5 45h111q-2 -42 -16 -75.5t-37.5 -56.5t-56 -35
t-69.5 -12q-38 0 -70 12t-55.5 35t-38 56.5t-15.5 75.5h111z" />
    <glyph glyph-name="Uring" unicode="&#x16e;" horiz-adv-x="788" 
d="M727 270q0 -63 -25 -115t-69 -89t-105 -57.5t-134 -20.5t-134 20.5t-105.5 57.5t-69 89t-24.5 115v402h183v-395q0 -33 11 -59.5t31 -46t47.5 -30t60.5 -10.5t61 10.5t47.5 30t30.5 46t11 59.5v395h183v-402zM277 802q0 49 32.5 79.5t84.5 30.5t84.5 -30.5t32.5 -79.5
q0 -48 -32.5 -78.5t-84.5 -30.5t-84.5 30.5t-32.5 78.5zM358 802q0 -16 10 -25.5t26 -9.5t26 9.5t10 25.5q0 17 -10 26.5t-26 9.5t-26 -9.5t-10 -26.5z" />
    <glyph glyph-name="uring" unicode="&#x16f;" 
d="M566 0h-140l-22 54q-29 -32 -70.5 -49t-91.5 -17q-44 0 -80 14t-62.5 39.5t-41 61.5t-14.5 79v313h176v-284q0 -35 22 -57.5t57 -22.5q40 0 65.5 27t25.5 71v266h176v-495zM188 625q0 49 32.5 79.5t84.5 30.5t84.5 -30.5t32.5 -79.5q0 -48 -32.5 -78.5t-84.5 -30.5
t-84.5 30.5t-32.5 78.5zM269 625q0 -16 10 -25.5t26 -9.5t26 9.5t10 25.5q0 17 -10 26.5t-26 9.5t-26 -9.5t-10 -26.5z" />
    <glyph glyph-name="Uhungarumlaut" unicode="&#x170;" horiz-adv-x="788" 
d="M727 270q0 -63 -25 -115t-69 -89t-105 -57.5t-134 -20.5t-134 20.5t-105.5 57.5t-69 89t-24.5 115v402h183v-395q0 -33 11 -59.5t31 -46t47.5 -30t60.5 -10.5t61 10.5t47.5 30t30.5 46t11 59.5v395h183v-402zM509 694l-88 88l161 172l99 -99zM262 694l-88 88l161 172
l99 -99z" />
    <glyph glyph-name="uhungarumlaut" unicode="&#x171;" 
d="M566 0h-140l-22 54q-29 -32 -70.5 -49t-91.5 -17q-44 0 -80 14t-62.5 39.5t-41 61.5t-14.5 79v313h176v-284q0 -35 22 -57.5t57 -22.5q40 0 65.5 27t25.5 71v266h176v-495zM420 517l-88 88l161 172l99 -99zM173 517l-88 88l161 172l99 -99z" />
    <glyph glyph-name="Uogonek" unicode="&#x172;" horiz-adv-x="788" 
d="M727 284q0 -91 -48.5 -157.5t-140.5 -118.5q-33 -19 -54.5 -35t-34 -29t-17 -24t-4.5 -20q0 -17 11 -26t27 -9q6 0 12.5 1t13.5 3l22 -91q-44 -16 -92 -16q-55 0 -89 27.5t-34 77.5q0 67 75 121q-12 0 -24.5 1t-24.5 3q-52 7 -100 30.5t-84.5 59.5t-58 84t-21.5 104v402
h183v-395q0 -32 11 -59t31 -46.5t47.5 -30t60.5 -10.5t60.5 11t47.5 30.5t31 46t11 58.5v395h183v-388z" />
    <glyph glyph-name="uogonek" unicode="&#x173;" 
d="M566 0q-35 -27 -53 -52.5t-18 -47.5q0 -17 11 -26t27 -9q6 0 14 1t16 3l18 -93q-23 -8 -46 -11t-46 -3q-56 0 -89.5 28t-33.5 77q0 35 21 69t61 64h-22l-22 54q-29 -32 -70.5 -49t-91.5 -17q-44 0 -80 14t-62.5 39.5t-41 61.5t-14.5 79v313h176v-284q0 -35 22 -57.5
t57 -22.5q40 0 65.5 27t25.5 71v266h176v-495z" />
    <glyph glyph-name="Wcircumflex" unicode="&#x174;" horiz-adv-x="1028" 
d="M815 0h-178l-123 452l-122 -452h-178l-213 672h183l123 -452l123 452h169l122 -452l123 452h183zM462 896h104l127 -120l-74 -81l-105 83l-105 -83l-74 81z" />
    <glyph glyph-name="wcircumflex" unicode="&#x175;" horiz-adv-x="810" 
d="M646 0h-169l-72 296l-72 -296h-169l-160 495h176l72 -296l72 296h162l72 -296l72 296h176zM353 719h104l127 -120l-74 -81l-105 83l-105 -83l-74 81z" />
    <glyph glyph-name="Ycircumflex" unicode="&#x176;" horiz-adv-x="634" 
d="M225 260l-244 412h198l138 -250l138 250h198l-244 -412v-260h-184v260zM265 896h104l127 -120l-74 -81l-105 83l-105 -83l-74 81z" />
    <glyph glyph-name="ycircumflex" unicode="&#x177;" horiz-adv-x="554" 
d="M347 -38q-71 -182 -223 -182q-17 0 -39.5 2.5t-45.5 7.5l22 136q25 -6 45 -6q29 0 48.5 15t33.5 50l9 22l-201 488h184l97 -297l97 297h184zM225 719h104l127 -120l-74 -81l-105 83l-105 -83l-74 81z" />
    <glyph glyph-name="Ydieresis" unicode="&#x178;" horiz-adv-x="634" 
d="M225 260l-244 412h198l138 -250l138 250h198l-244 -412v-260h-184v260zM110 802q0 40 24.5 65t64.5 25t64.5 -25t24.5 -65t-24.5 -64.5t-64.5 -24.5t-64.5 24.5t-24.5 64.5zM346 802q0 40 24.5 65t64.5 25t64.5 -25t24.5 -65t-24.5 -64.5t-64.5 -24.5t-64.5 24.5
t-24.5 64.5z" />
    <glyph glyph-name="Zacute" unicode="&#x179;" horiz-adv-x="645" 
d="M31 103l336 429h-324v140h559v-103l-336 -429h348v-140h-583v103zM291 695l-66 95l200 140l76 -110z" />
    <glyph glyph-name="zacute" unicode="&#x17a;" horiz-adv-x="508" 
d="M27 96l218 266h-210v133h438v-96l-219 -267h227v-132h-454v96zM222 518l-66 95l200 140l76 -110z" />
    <glyph glyph-name="Zdotaccent" unicode="&#x17b;" horiz-adv-x="645" 
d="M31 103l336 429h-324v140h559v-103l-336 -429h348v-140h-583v103zM226 802q0 43 27 70t70 27t70 -27t27 -70q0 -42 -27 -69t-70 -27t-70 27t-27 69z" />
    <glyph glyph-name="zdotaccent" unicode="&#x17c;" horiz-adv-x="508" 
d="M27 96l218 266h-210v133h438v-96l-219 -267h227v-132h-454v96zM157 625q0 43 27 70t70 27t70 -27t27 -70q0 -42 -27 -69t-70 -27t-70 27t-27 69z" />
    <glyph glyph-name="Zcaron" unicode="&#x17d;" horiz-adv-x="645" 
d="M31 103l336 429h-324v140h559v-103l-336 -429h348v-140h-583v103zM375 709h-104l-127 120l74 81l105 -83l105 83l74 -81z" />
    <glyph glyph-name="zcaron" unicode="&#x17e;" horiz-adv-x="508" 
d="M27 96l218 266h-210v133h438v-96l-219 -267h227v-132h-454v96zM306 532h-104l-127 120l74 81l105 -83l105 83l74 -81z" />
    <glyph glyph-name="florin" unicode="&#x192;" horiz-adv-x="576" 
d="M116 445h76v66q0 38 13.5 70t38 55t58.5 35.5t74 12.5q29 0 57.5 -3t58.5 -11l-23 -136q-24 7 -46 7q-21 0 -34.5 -12t-13.5 -32v-52h86v-132h-86v-152q0 -38 -13.5 -70t-38 -55t-58 -35.5t-73.5 -12.5q-29 0 -58 3t-58 11l22 136q14 -4 27 -5.5t23 -1.5q20 0 32 12
t12 32v138h-76v132z" />
    <glyph glyph-name="Acaron" unicode="&#x1cd;" horiz-adv-x="692" 
d="M262 672h169l272 -672h-183l-50 136h-247l-50 -136h-184zM270 268h152l-76 205zM398 709h-104l-127 120l74 81l105 -83l105 83l74 -81z" />
    <glyph glyph-name="acaron" unicode="&#x1ce;" horiz-adv-x="564" 
d="M27 149q0 80 60.5 123.5t169.5 43.5q39 0 85 -8v4q0 29 -24 47.5t-62 18.5q-37 0 -77.5 -9.5t-82.5 -26.5l-44 121q60 23 116 33.5t110 10.5q51 0 92.5 -14.5t71 -40.5t45.5 -62.5t16 -81.5v-163q0 -25 25 -25q6 0 12 0.5t11 1.5l11 -126q-40 -8 -83 -8q-37 0 -65 15
t-45 42q-35 -28 -77 -42.5t-83 -14.5q-40 0 -73.5 12t-57.5 33t-37.5 50.5t-13.5 65.5zM192 160q0 -22 18 -36.5t46 -14.5q38 0 62 23.5t24 59.5v18q-15 3 -30.5 5t-32.5 2q-39 0 -63 -15.5t-24 -41.5zM334 532h-104l-127 120l74 81l105 -83l105 83l74 -81z" />
    <glyph glyph-name="Aringacute" unicode="&#x1fa;" horiz-adv-x="709" 
d="M262 672h169l272 -672h-183l-50 136h-247l-50 -136h-184zM270 268h152l-76 205zM452 861q20 -25 20 -59q0 -45 -32.5 -74t-84.5 -29t-84.5 29t-32.5 74q0 28 13.5 50t36.5 38l176 118l69 -104zM316 802q0 -17 11 -28.5t28 -11.5t28 11.5t11 28.5t-11 28t-28 11t-28 -11
t-11 -28z" />
    <glyph glyph-name="aringacute" unicode="&#x1fb;" horiz-adv-x="572" 
d="M27 149q0 80 60.5 123.5t169.5 43.5q39 0 85 -8v4q0 29 -24 47.5t-62 18.5q-37 0 -77.5 -9.5t-82.5 -26.5l-44 121q60 23 116 33.5t110 10.5q51 0 92.5 -14.5t71 -40.5t45.5 -62.5t16 -81.5v-163q0 -25 25 -25q6 0 12 0.5t11 1.5l11 -126q-40 -8 -83 -8q-37 0 -65 15
t-45 42q-35 -28 -77 -42.5t-83 -14.5q-40 0 -73.5 12t-57.5 33t-37.5 50.5t-13.5 65.5zM192 160q0 -22 18 -36.5t46 -14.5q38 0 62 23.5t24 59.5v18q-15 3 -30.5 5t-32.5 2q-39 0 -63 -15.5t-24 -41.5zM375 684q20 -25 20 -59q0 -45 -32.5 -74t-84.5 -29t-84.5 29t-32.5 74
q0 28 13.5 50t36.5 38l176 118l69 -104zM239 625q0 -17 11 -28.5t28 -11.5t28 11.5t11 28.5t-11 28t-28 11t-28 -11t-11 -28z" />
    <glyph glyph-name="AEacute" unicode="&#x1fc;" horiz-adv-x="989" 
d="M459 136h-216l-80 -136h-205l420 672h560v-136h-303v-126h271v-132h-271v-142h319v-136h-495v136zM319 268h140v243zM551 695l-66 95l200 140l76 -110z" />
    <glyph glyph-name="aeacute" unicode="&#x1fd;" horiz-adv-x="864" 
d="M400 518l-66 95l200 140l76 -110zM27 146q0 81 60.5 125.5t169.5 44.5q39 0 85 -8v4q0 29 -24 47.5t-62 18.5q-37 0 -77.5 -9.5t-82.5 -26.5l-44 121q60 23 116 33.5t110 10.5q48 0 89 -14.5t64 -39.5q34 27 76 40.5t87 13.5q55 0 101.5 -18.5t79.5 -51.5t51.5 -79.5
t18.5 -102.5q0 -28 -3 -53h-339q10 -39 44.5 -62t84.5 -23q60 0 137 40l52 -118q-53 -26 -105 -38.5t-102 -12.5q-57 0 -110 17t-96 52q-39 -34 -86.5 -51.5t-98.5 -17.5q-43 0 -79 11.5t-62 32.5t-40.5 50t-14.5 64zM594 378q-35 0 -59 -20t-32 -53h173q-4 33 -26 53
t-56 20zM192 160q0 -22 18 -36.5t46 -14.5q38 0 62 23.5t24 59.5v18q-15 3 -30.5 5t-32.5 2q-39 0 -63 -15.5t-24 -41.5z" />
    <glyph glyph-name="Oslashacute" unicode="&#x1fe;" horiz-adv-x="788" 
d="M28 336q0 76 27 140t75 110.5t115.5 72t148.5 25.5q48 0 90 -9.5t79 -26.5l55 74l83 -63l-50 -67q52 -46 81 -111t29 -145q0 -77 -27 -140.5t-75.5 -110t-116 -72t-148.5 -25.5q-48 0 -90 9.5t-80 26.5l-54 -74l-83 63l49 66q-52 47 -80 112t-28 145zM200 336
q0 -73 34 -126l241 320q-36 18 -81 18q-43 0 -79 -15.5t-61.5 -43.5t-39.5 -67t-14 -86zM588 336q0 37 -9 68.5t-26 57.5l-240 -321q37 -17 81 -17q43 0 79 15.5t61.5 43.5t39.5 67t14 86zM362 695l-66 95l200 140l76 -110z" />
    <glyph glyph-name="oslashacute" unicode="&#x1ff;" 
d="M27 247q0 57 21 105t58.5 82.5t89 53.5t113.5 19q33 0 63.5 -6t57.5 -17l42 56l72 -54l-37 -49q40 -35 62 -83t22 -107q0 -57 -20.5 -104.5t-58 -82t-89.5 -53.5t-114 -19q-67 0 -121 23l-42 -56l-72 54l36 47q-40 35 -61.5 83t-21.5 108zM192 247q0 -35 14 -63l140 187
q-9 3 -18 5t-19 2q-51 0 -84 -36.5t-33 -94.5zM426 247q0 35 -14 63l-139 -186q14 -7 36 -7q51 0 84 36t33 94zM277 518l-66 95l200 140l76 -110z" />
    <glyph glyph-name="Scommaaccent" unicode="&#x218;" horiz-adv-x="597" 
d="M35 480q0 45 19.5 82.5t54.5 64.5t83.5 42t106.5 15q59 0 118.5 -12t124.5 -36l-41 -136q-103 41 -188 41q-45 0 -71.5 -16t-26.5 -45q0 -27 26 -40.5t65 -23t84.5 -20.5t84.5 -33.5t65 -61.5t26 -105q0 -47 -19.5 -85t-55 -65.5t-84.5 -42.5t-108 -15q-63 0 -129.5 13.5
t-138.5 42.5l41 136q59 -23 113 -36t99 -13q48 0 75 17t27 48q0 28 -26 42t-65 24.5t-84.5 22t-84.5 33.5t-65 60t-26 102zM210 -118q0 40 24.5 64.5t64.5 24.5t65 -28.5t25 -70.5q0 -58 -31.5 -108.5t-91.5 -84.5l-45 59q40 36 57 69q-30 1 -49 23t-19 52z" />
    <glyph glyph-name="scommaaccent" unicode="&#x219;" horiz-adv-x="476" 
d="M31 347q0 34 15 63.5t42.5 51t65.5 33.5t84 12q47 0 95.5 -9.5t99.5 -26.5l-37 -125q-38 14 -74.5 23t-69.5 9q-49 0 -49 -31q0 -15 18 -21.5t45.5 -12t59.5 -13t59.5 -24.5t45.5 -46t18 -78q0 -36 -15.5 -66t-43 -51.5t-66.5 -34t-86 -12.5q-101 0 -211 40l37 125
q87 -36 159 -36q26 0 39.5 9.5t13.5 25.5q0 15 -18 22.5t-45.5 13t-59 13.5t-59 24.5t-45.5 45t-18 76.5zM149 -118q0 40 24.5 64.5t64.5 24.5t65 -28.5t25 -70.5q0 -58 -31.5 -108.5t-91.5 -84.5l-45 59q40 36 57 69q-30 1 -49 23t-19 52z" />
    <glyph glyph-name="uni021A" unicode="&#x21a;" horiz-adv-x="607" 
d="M212 532h-195v140h572v-140h-194v-532h-183v532zM214 -118q0 40 24.5 64.5t64.5 24.5t65 -28.5t25 -70.5q0 -58 -31.5 -108.5t-91.5 -84.5l-45 59q40 36 57 69q-30 1 -49 23t-19 52z" />
    <glyph glyph-name="uni021B" unicode="&#x21b;" horiz-adv-x="428" 
d="M276 495h118v-133h-118v-181q0 -25 14.5 -39t38.5 -14q26 0 58 6l22 -130q-64 -16 -123 -16q-42 0 -76 12.5t-58.5 35.5t-38 55.5t-13.5 71.5v199h-83v133h83v144h176v-144zM158 -118q0 40 24.5 64.5t64.5 24.5t65 -28.5t25 -70.5q0 -58 -31.5 -108.5t-91.5 -84.5l-45 59
q40 36 57 69q-30 1 -49 23t-19 52z" />
    <glyph glyph-name="circumflex" unicode="&#x2c6;" horiz-adv-x="240" 
d="M68 719h104l127 -120l-74 -81l-105 83l-105 -83l-74 81z" />
    <glyph glyph-name="caron" unicode="&#x2c7;" horiz-adv-x="240" 
d="M172 532h-104l-127 120l74 81l105 -83l105 83l74 -81z" />
    <glyph glyph-name="breve" unicode="&#x2d8;" horiz-adv-x="240" 
d="M52 703q2 -29 20.5 -45t47.5 -16t47.5 16t20.5 45h111q-2 -42 -16 -75.5t-37.5 -56.5t-56 -35t-69.5 -12q-38 0 -70 12t-55.5 35t-38 56.5t-15.5 75.5h111z" />
    <glyph glyph-name="dotaccent" unicode="&#x2d9;" horiz-adv-x="240" 
d="M23 625q0 43 27 70t70 27t70 -27t27 -70q0 -42 -27 -69t-70 -27t-70 27t-27 69z" />
    <glyph glyph-name="ring" unicode="&#x2da;" horiz-adv-x="240" 
d="M3 625q0 49 32.5 79.5t84.5 30.5t84.5 -30.5t32.5 -79.5q0 -48 -32.5 -78.5t-84.5 -30.5t-84.5 30.5t-32.5 78.5zM84 625q0 -16 10 -25.5t26 -9.5t26 9.5t10 25.5q0 17 -10 26.5t-26 9.5t-26 -9.5t-10 -26.5z" />
    <glyph glyph-name="ogonek" unicode="&#x2db;" horiz-adv-x="240" 
d="M208 0q-35 -27 -53 -52.5t-18 -47.5q0 -17 11 -26t27 -9q6 0 14 1t16 3l18 -93q-23 -8 -46 -11t-46 -3q-56 0 -89.5 28t-33.5 77q0 39 27 78t78 71z" />
    <glyph glyph-name="tilde" unicode="&#x2dc;" horiz-adv-x="240" 
d="M56 701q21 0 37.5 -5t30 -11.5t25 -11.5t20.5 -5q23 0 34 33l103 -30q-8 -55 -40.5 -88t-81.5 -33q-21 0 -37.5 5t-30 11.5t-25 11.5t-20.5 5q-26 0 -34 -33l-103 30q8 55 40.5 88t81.5 33z" />
    <glyph glyph-name="hungarumlaut" unicode="&#x2dd;" horiz-adv-x="240" 
d="M235 517l-88 88l161 172l99 -99zM-12 517l-88 88l161 172l99 -99z" />
    <glyph glyph-name="uni0374" unicode="&#x374;" horiz-adv-x="240" 
d="M147 375l-124 45l87 271l154 -55z" />
    <glyph glyph-name="uni0375" unicode="&#x375;" horiz-adv-x="240" 
d="M77 163l124 -45l-87 -272l-154 55z" />
    <glyph glyph-name="uni037E" unicode="&#x37e;" horiz-adv-x="298" 
d="M45 92q0 45 29 74.5t75 29.5q47 0 76 -33t29 -87q0 -70 -38.5 -132t-107.5 -104l-52 67q25 21 43 43.5t29 45.5q-38 5 -60.5 31.5t-22.5 64.5zM45 402q0 46 29.5 75t74.5 29t74.5 -29t29.5 -75q0 -45 -29.5 -74.5t-74.5 -29.5t-74.5 29.5t-29.5 74.5z" />
    <glyph glyph-name="tonos" unicode="&#x384;" horiz-adv-x="240" 
d="M165 520l-119 40l70 223l133 -46z" />
    <glyph glyph-name="dieresistonos" unicode="&#x385;" horiz-adv-x="240" 
d="M131 524l-79 22l64 233l96 -25zM-117 625q0 37 22.5 59.5t59.5 22.5q36 0 59 -22.5t23 -59.5q0 -36 -23 -59t-59 -23q-37 0 -59.5 23t-22.5 59zM193 625q0 37 23 59.5t59 22.5q37 0 59.5 -22.5t22.5 -59.5q0 -36 -22.5 -59t-59.5 -23q-36 0 -59 23t-23 59z" />
    <glyph glyph-name="Alphatonos" unicode="&#x386;" horiz-adv-x="723" 
d="M293 672h169l272 -672h-183l-50 136h-247l-50 -136h-184zM301 268h152l-76 205zM117 457l-119 40l70 223l133 -46z" />
    <glyph glyph-name="anoteleia" unicode="&#x387;" horiz-adv-x="282" 
d="M37 247q0 46 29.5 75t74.5 29t74.5 -29t29.5 -75q0 -45 -29.5 -74.5t-74.5 -29.5t-74.5 29.5t-29.5 74.5z" />
    <glyph glyph-name="Epsilontonos" unicode="&#x388;" horiz-adv-x="764" 
d="M226 672h487v-136h-304v-126h272v-132h-272v-142h320v-136h-503v672zM101 457l-119 40l70 223l133 -46z" />
    <glyph glyph-name="Etatonos" unicode="&#x389;" horiz-adv-x="945" 
d="M226 672h183v-258h284v258h183v-672h-183v274h-284v-274h-183v672zM101 457l-119 40l70 223l133 -46z" />
    <glyph glyph-name="Iotatonos" unicode="&#x38a;" horiz-adv-x="479" 
d="M226 672h183v-672h-183v672zM101 457l-119 40l70 223l133 -46z" />
    <glyph glyph-name="Omicrontonos" unicode="&#x38c;" horiz-adv-x="899" 
d="M139 336q0 76 27 140t75.5 110.5t115.5 72t148 25.5t148 -25.5t116 -72t76 -110.5t27 -140q0 -77 -27 -140.5t-76 -110t-116 -72t-148 -25.5t-148 25.5t-115.5 72t-75.5 110t-27 140.5zM326 336q0 -45 13 -82.5t36.5 -65t56.5 -42.5t73 -15t73 15t57 42.5t37 65t13 82.5
t-13 82.5t-37 65t-57 42.5t-73 15t-73 -15t-56.5 -42.5t-36.5 -65t-13 -82.5zM101 457l-119 40l70 223l133 -46z" />
    <glyph glyph-name="Upsilontonos" unicode="&#x38e;" horiz-adv-x="838" 
d="M429 260l-244 412h198l138 -250l138 250h198l-244 -412v-260h-184v260zM101 457l-119 40l70 223l133 -46z" />
    <glyph glyph-name="Omegatonos" unicode="&#x38f;" horiz-adv-x="908" 
d="M131 140h121q-48 47 -73 104.5t-25 122.5q0 70 25.5 128t71.5 100t110 65.5t141 23.5q76 0 140 -23.5t110 -65.5t71.5 -100t25.5 -128q0 -65 -24.5 -122.5t-73.5 -104.5h122v-140h-328v118q54 44 87.5 101.5t33.5 133.5q0 42 -11.5 76.5t-32.5 59t-51.5 38.5t-68.5 14
t-68.5 -14t-52 -38.5t-33 -59t-11.5 -76.5q0 -76 34 -133.5t88 -101.5v-118h-328v140zM101 457l-119 40l70 223l133 -46z" />
    <glyph glyph-name="iotadieresistonos" unicode="&#x390;" horiz-adv-x="329" 
d="M228 167q0 -18 11 -28.5t29 -10.5q9 0 19.5 1t21.5 3l18 -132q-54 -12 -103 -12q-80 0 -126 43.5t-46 117.5v346h176v-328zM151 524l-79 22l64 233l96 -25zM-97 625q0 37 22.5 59.5t59.5 22.5q36 0 59 -22.5t23 -59.5q0 -36 -23 -59t-59 -23q-37 0 -59.5 23t-22.5 59z
M213 625q0 37 23 59.5t59 22.5q37 0 59.5 -22.5t22.5 -59.5q0 -36 -22.5 -59t-59.5 -23q-36 0 -59 23t-23 59z" />
    <glyph glyph-name="Alpha" unicode="&#x391;" horiz-adv-x="692" 
d="M262 672h169l272 -672h-183l-50 136h-247l-50 -136h-184zM270 268h152l-76 205z" />
    <glyph glyph-name="Beta" unicode="&#x392;" horiz-adv-x="669" 
d="M69 672h313q50 0 92 -13.5t72 -37.5t46.5 -58t16.5 -74q0 -48 -23.5 -83.5t-59.5 -54.5q50 -20 78.5 -62.5t28.5 -97.5q0 -42 -17.5 -77t-48.5 -60.5t-74.5 -39.5t-94.5 -14h-329v672zM245 132h124q38 0 61.5 21t23.5 56t-23.5 55.5t-61.5 20.5h-124v-153zM245 403h112
q34 0 55 18.5t21 49.5t-21 50t-55 19h-112v-137z" />
    <glyph glyph-name="Gamma" unicode="&#x393;" horiz-adv-x="543" 
d="M69 672h456v-140h-273v-532h-183v672z" />
    <glyph glyph-name="Delta" unicode="&#x394;" horiz-adv-x="692" 
d="M19 103l243 569h169l243 -569v-103h-655v103zM209 140h274l-137 333z" />
    <glyph glyph-name="Epsilon" unicode="&#x395;" horiz-adv-x="607" 
d="M69 672h487v-136h-304v-126h272v-132h-272v-142h320v-136h-503v672z" />
    <glyph glyph-name="Zeta" unicode="&#x396;" horiz-adv-x="645" 
d="M31 103l336 429h-324v140h559v-103l-336 -429h348v-140h-583v103z" />
    <glyph glyph-name="Eta" unicode="&#x397;" horiz-adv-x="788" 
d="M69 672h183v-258h284v258h183v-672h-183v274h-284v-274h-183v672z" />
    <glyph glyph-name="Theta" unicode="&#x398;" horiz-adv-x="788" 
d="M28 336q0 76 27 140t75 110.5t115.5 72t148.5 25.5t148.5 -25.5t116 -72t75.5 -110.5t27 -140q0 -77 -27 -140.5t-75.5 -110t-116 -72t-148.5 -25.5t-148.5 25.5t-115.5 72t-75 110t-27 140.5zM207 336q0 -46 14 -84t38.5 -65.5t59 -43t75.5 -15.5t75.5 15.5t59 43
t38.5 65.5t14 84t-14 84t-38.5 65.5t-59 43t-75.5 15.5t-75.5 -15.5t-59 -43t-38.5 -65.5t-14 -84zM252 406h285v-132h-285v132z" />
    <glyph glyph-name="Iota" unicode="&#x399;" horiz-adv-x="321" 
d="M69 672h183v-672h-183v672z" />
    <glyph glyph-name="Kappa" unicode="&#x39a;" horiz-adv-x="698" 
d="M69 672h176v-284l248 284h210l-286 -314l298 -358h-213l-207 251l-50 -54v-197h-176v672z" />
    <glyph glyph-name="Lambda" unicode="&#x39b;" horiz-adv-x="692" 
d="M262 672h169l272 -672h-190l-167 452l-166 -452h-191z" />
    <glyph glyph-name="Mu" unicode="&#x39c;" horiz-adv-x="876" 
d="M69 672h176l193 -267l193 267h176v-672h-168v423l-151 -209h-100l-150 209v-423h-169v672z" />
    <glyph glyph-name="Nu" unicode="&#x39d;" horiz-adv-x="788" 
d="M69 672h176l306 -423v423h168v-672h-176l-305 423v-423h-169v672z" />
    <glyph glyph-name="Xi" unicode="&#x39e;" horiz-adv-x="653" 
d="M35 147h583v-147h-583v147zM83 412h487v-144h-487v144zM51 672h551v-147h-551v147z" />
    <glyph glyph-name="Omicron" unicode="&#x39f;" horiz-adv-x="788" 
d="M28 336q0 76 27 140t75.5 110.5t115.5 72t148 25.5t148 -25.5t116 -72t76 -110.5t27 -140q0 -77 -27 -140.5t-76 -110t-116 -72t-148 -25.5t-148 25.5t-115.5 72t-75.5 110t-27 140.5zM215 336q0 -45 13 -82.5t36.5 -65t56.5 -42.5t73 -15t73 15t57 42.5t37 65t13 82.5
t-13 82.5t-37 65t-57 42.5t-73 15t-73 -15t-56.5 -42.5t-36.5 -65t-13 -82.5z" />
    <glyph glyph-name="Pi" unicode="&#x3a0;" horiz-adv-x="788" 
d="M69 672h650v-672h-183v532h-284v-532h-183v672z" />
    <glyph glyph-name="Rho" unicode="&#x3a1;" horiz-adv-x="637" 
d="M69 672h297q55 0 101 -17t79.5 -48t52 -73.5t18.5 -93.5t-18.5 -94t-52 -73.5t-79.5 -48t-101 -17.5h-121v-207h-176v672zM245 347h92q45 0 73 25.5t28 67.5q0 40 -28 66t-73 26h-92v-185z" />
    <glyph glyph-name="Sigma" unicode="&#x3a3;" horiz-adv-x="621" 
d="M32 110l204 234l-192 218v110h543v-140h-305l130 -144v-88l-142 -160h329v-140h-567v110z" />
    <glyph glyph-name="Tau" unicode="&#x3a4;" horiz-adv-x="607" 
d="M212 532h-195v140h572v-140h-194v-532h-183v532z" />
    <glyph glyph-name="Upsilon" unicode="&#x3a5;" horiz-adv-x="634" 
d="M225 260l-244 412h198l138 -250l138 250h198l-244 -412v-260h-184v260z" />
    <glyph glyph-name="Phi" unicode="&#x3a6;" horiz-adv-x="810" 
d="M321 51q-66 5 -121.5 28.5t-95.5 61.5t-62 89.5t-22 113.5q0 61 22 112.5t62 90t95.5 62t121.5 28.5v67h168v-67q66 -5 121.5 -28.5t95.5 -62t62.5 -90t22.5 -112.5q0 -62 -22.5 -113.5t-62.5 -89.5t-95.5 -61.5t-121.5 -28.5v-83h-168v83zM192 344q0 -60 35 -101t94 -52
v306q-59 -11 -94 -52t-35 -101zM618 344q0 60 -35 101t-94 52v-306q59 11 94 52t35 101z" />
    <glyph glyph-name="Chi" unicode="&#x3a7;" horiz-adv-x="700" 
d="M233 344l-230 328h201l146 -214l146 214h202l-231 -328l243 -344h-206l-154 230l-154 -230h-205z" />
    <glyph glyph-name="Psi" unicode="&#x3a8;" horiz-adv-x="828" 
d="M329 177q-66 5 -120 28.5t-92.5 61.5t-59.5 90t-21 114v201h169v-186q0 -74 34.5 -117t89.5 -45v348h169v-348q56 2 90.5 46t34.5 117v185h168v-199q0 -62 -21 -114t-59.5 -91t-92.5 -62.5t-120 -28.5v-177h-169v177z" />
    <glyph glyph-name="Omega" unicode="&#x3a9;" horiz-adv-x="812" 
d="M35 140h121q-48 47 -73 104.5t-25 122.5q0 70 25.5 128t71.5 100t110 65.5t141 23.5q76 0 140 -23.5t110 -65.5t71.5 -100t25.5 -128q0 -65 -24.5 -122.5t-73.5 -104.5h122v-140h-328v118q54 44 87.5 101.5t33.5 133.5q0 42 -11.5 76.5t-32.5 59t-51.5 38.5t-68.5 14
t-68.5 -14t-52 -38.5t-33 -59t-11.5 -76.5q0 -76 34 -133.5t88 -101.5v-118h-328v140z" />
    <glyph glyph-name="Iotadieresis" unicode="&#x3aa;" horiz-adv-x="321" 
d="M69 672h183v-672h-183v672zM-46 802q0 40 24.5 65t64.5 25t64.5 -25t24.5 -65t-24.5 -64.5t-64.5 -24.5t-64.5 24.5t-24.5 64.5zM190 802q0 40 24.5 65t64.5 25t64.5 -25t24.5 -65t-24.5 -64.5t-64.5 -24.5t-64.5 24.5t-24.5 64.5z" />
    <glyph glyph-name="Upsilondieresis" unicode="&#x3ab;" horiz-adv-x="634" 
d="M225 260l-244 412h198l138 -250l138 250h198l-244 -412v-260h-184v260zM110 802q0 40 24.5 65t64.5 25t64.5 -25t24.5 -65t-24.5 -64.5t-64.5 -24.5t-64.5 24.5t-24.5 64.5zM346 802q0 40 24.5 65t64.5 25t64.5 -25t24.5 -65t-24.5 -64.5t-64.5 -24.5t-64.5 24.5
t-24.5 64.5z" />
    <glyph glyph-name="alphatonos" unicode="&#x3ac;" horiz-adv-x="668" 
d="M35 247q0 56 17 104t47 82.5t72 54t92 19.5q62 0 107 -21.5t72 -61.5l32 71h165l-109 -240q11 -37 21.5 -61.5t21.5 -39t22.5 -20.5t24.5 -6q8 0 15 0.5t13 1.5l18 -135q-19 -3 -38.5 -5t-36.5 -2q-48 0 -84.5 24.5t-57.5 72.5q-30 -48 -77 -72.5t-109 -24.5
q-50 0 -92 19.5t-72 54t-47 82t-17 103.5zM207 247q0 -54 20 -85t58 -31q32 0 54.5 30.5t36.5 85.5q-14 55 -36.5 85.5t-54.5 30.5q-37 0 -57.5 -31t-20.5 -85zM387 520l-119 40l70 223l133 -46z" />
    <glyph glyph-name="epsilontonos" unicode="&#x3ad;" horiz-adv-x="460" 
d="M323 202h-55q-31 0 -50 -12t-19 -32q0 -17 16 -27.5t41 -10.5q34 0 70 9.5t76 27.5l47 -122q-60 -23 -112.5 -35t-105.5 -12q-45 0 -82.5 11.5t-64.5 31.5t-42 47.5t-15 59.5q0 41 22 73t54 46q-29 13 -46.5 42.5t-17.5 64.5q0 31 14 57.5t39 45.5t60.5 29.5t78.5 10.5
q97 0 206 -44l-47 -121q-36 14 -71.5 23t-65.5 9q-23 0 -34 -10t-11 -23q0 -17 16 -26.5t44 -9.5h55v-103zM291 520l-119 40l70 223l133 -46z" />
    <glyph glyph-name="etatonos" unicode="&#x3ae;" horiz-adv-x="634" 
d="M68 342q0 25 -25 25q-5 0 -10.5 -0.5t-10.5 -1.5l-13 134q20 4 40 6t43 2q42 0 73.5 -18t48.5 -50q32 30 76.5 49t101.5 19q44 0 80.5 -14.5t62.5 -40t40.5 -61t14.5 -78.5v-521h-176v492q0 35 -22 57t-56 22q-41 0 -66.5 -27t-25.5 -71v-265h-176v342zM362 520l-119 40
l70 223l133 -46z" />
    <glyph glyph-name="iotatonos" unicode="&#x3af;" horiz-adv-x="329" 
d="M228 167q0 -18 11 -28.5t29 -10.5q9 0 19.5 1t21.5 3l18 -132q-54 -12 -103 -12q-80 0 -126 43.5t-46 117.5v346h176v-328zM185 520l-119 40l70 223l133 -46z" />
    <glyph glyph-name="upsilondieresistonos" unicode="&#x3b0;" 
d="M550 495q16 -60 24.5 -120t8.5 -120q0 -59 -21 -108t-59.5 -84t-91.5 -55t-116 -20q-56 0 -102 17t-79 48t-51.5 74t-18.5 94q0 32 4 62.5t4 61.5q0 35 -4 73t-12 77h176q8 -35 12 -71.5t4 -71.5q0 -31 -4 -61.5t-4 -62.5q0 -43 24 -70t61 -27q45 0 73.5 38.5t28.5 99.5
q0 55 -9 109t-24 117h176zM312 524l-79 22l64 233l96 -25zM64 625q0 37 22.5 59.5t59.5 22.5q36 0 59 -22.5t23 -59.5q0 -36 -23 -59t-59 -23q-37 0 -59.5 23t-22.5 59zM374 625q0 37 23 59.5t59 22.5q37 0 59.5 -22.5t22.5 -59.5q0 -36 -22.5 -59t-59.5 -23q-36 0 -59 23
t-23 59z" />
    <glyph glyph-name="alpha" unicode="&#x3b1;" horiz-adv-x="668" 
d="M35 247q0 56 17 104t47 82.5t72 54t92 19.5q62 0 107 -21.5t72 -61.5l32 71h165l-109 -240q11 -37 21.5 -61.5t21.5 -39t22.5 -20.5t24.5 -6q8 0 15 0.5t13 1.5l18 -135q-19 -3 -38.5 -5t-36.5 -2q-48 0 -84.5 24.5t-57.5 72.5q-30 -48 -77 -72.5t-109 -24.5
q-50 0 -92 19.5t-72 54t-47 82t-17 103.5zM207 247q0 -54 20 -85t58 -31q32 0 54.5 30.5t36.5 85.5q-14 55 -36.5 85.5t-54.5 30.5q-37 0 -57.5 -31t-20.5 -85z" />
    <glyph glyph-name="beta" unicode="&#x3b2;" horiz-adv-x="602" 
d="M52 476q0 53 20 97.5t55 76t84 49t107 17.5q53 0 97.5 -14.5t76.5 -41t49.5 -63t17.5 -79.5q0 -49 -20 -87t-56 -59q50 -22 75 -66.5t25 -103.5q0 -47 -16.5 -86t-46 -67.5t-70 -44.5t-88.5 -16q-39 0 -75 12.5t-66 38.5v-247h-169v684zM282 434h28q35 0 58 21.5t23 53.5
q0 30 -21.5 50.5t-58.5 20.5q-42 0 -66 -26t-24 -71v-247q0 -49 28 -78.5t73 -29.5q38 0 63.5 23.5t25.5 61.5q0 41 -26 65t-68 24h-35v132z" />
    <glyph glyph-name="gamma" unicode="&#x3b3;" horiz-adv-x="554" 
d="M535 495q-16 -143 -58 -256.5t-113 -209.5v-237h-176v208l-184 495h184l96 -297q29 66 49 137.5t26 159.5h176z" />
    <glyph glyph-name="delta" unicode="&#x3b4;" horiz-adv-x="570" 
d="M19 211q0 70 33.5 122t85.5 87q-29 25 -45 55.5t-16 65.5q0 39 15 71t43 55t66.5 36t85.5 13t97.5 -10t104.5 -30l-44 -128q-38 17 -72 26.5t-65 9.5q-29 0 -45.5 -11.5t-16.5 -31.5t22.5 -34.5t56.5 -31t73.5 -36.5t73.5 -49.5t56.5 -72t22.5 -102.5q0 -49 -19.5 -90.5
t-54.5 -72t-84 -47.5t-108 -17q-60 0 -109 16.5t-84 46t-54 70.5t-19 90zM191 222q0 -42 26 -70t68 -28t68 28t26 70q0 77 -101 124q-43 -25 -65 -57t-22 -67z" />
    <glyph glyph-name="epsilon" unicode="&#x3b5;" horiz-adv-x="460" 
d="M323 202h-55q-31 0 -50 -12t-19 -32q0 -17 16 -27.5t41 -10.5q34 0 70 9.5t76 27.5l47 -122q-60 -23 -112.5 -35t-105.5 -12q-45 0 -82.5 11.5t-64.5 31.5t-42 47.5t-15 59.5q0 41 22 73t54 46q-29 13 -46.5 42.5t-17.5 64.5q0 31 14 57.5t39 45.5t60.5 29.5t78.5 10.5
q97 0 206 -44l-47 -121q-36 14 -71.5 23t-65.5 9q-23 0 -34 -10t-11 -23q0 -17 16 -26.5t44 -9.5h55v-103z" />
    <glyph glyph-name="zeta" unicode="&#x3b6;" horiz-adv-x="476" 
d="M466 601q-128 -126 -193.5 -210t-65.5 -139q0 -48 30 -78.5t97 -47.5q70 -19 105 -52t35 -87q0 -69 -46 -169l-136 36q21 52 21 89q0 46 -52 58q-116 28 -175 82t-59 140q0 37 14 74.5t42.5 79.5t71 90t98.5 105h-210v132h423v-103z" />
    <glyph glyph-name="eta" unicode="&#x3b7;" horiz-adv-x="634" 
d="M68 342q0 25 -25 25q-5 0 -10.5 -0.5t-10.5 -1.5l-13 134q20 4 40 6t43 2q42 0 73.5 -18t48.5 -50q32 30 76.5 49t101.5 19q44 0 80.5 -14.5t62.5 -40t40.5 -61t14.5 -78.5v-521h-176v492q0 35 -22 57t-56 22q-41 0 -66.5 -27t-25.5 -71v-265h-176v342z" />
    <glyph glyph-name="theta" unicode="&#x3b8;" 
d="M35 352q0 84 18.5 151.5t53.5 114.5t86 72.5t116 25.5t116 -25.5t86 -72.5t53.5 -114.5t18.5 -151.5t-18.5 -151.5t-53.5 -114.5t-86 -72.5t-116 -25.5t-116 25.5t-86 72.5t-53.5 114.5t-18.5 151.5zM309 124q48 0 76 44.5t30 125.5h-212q2 -81 30 -125.5t76 -44.5z
M309 580q-48 0 -75 -40.5t-30 -113.5h211q-4 73 -31 113.5t-75 40.5z" />
    <glyph glyph-name="iota" unicode="&#x3b9;" horiz-adv-x="329" 
d="M228 167q0 -18 11 -28.5t29 -10.5q9 0 19.5 1t21.5 3l18 -132q-54 -12 -103 -12q-80 0 -126 43.5t-46 117.5v346h176v-328z" />
    <glyph glyph-name="kappa" unicode="&#x3ba;" horiz-adv-x="569" 
d="M52 495h169v-172l53 55q48 48 100 83.5t108 55.5l59 -139q-44 -17 -85 -41t-71 -55l-26 -26l212 -256h-199l-130 160l-21 -21v-139h-169v495z" />
    <glyph glyph-name="lambda" unicode="&#x3bb;" horiz-adv-x="554" 
d="M197 487l-10 24q-13 35 -32.5 50t-48.5 15q-21 0 -45 -6l-22 136q23 5 45 7.5t40 2.5q151 0 223 -182l211 -534h-184l-97 289l-97 -289h-184z" />
    <glyph glyph-name="mu" unicode="&#x3bc;" horiz-adv-x="642" 
d="M52 495h176v-284q0 -35 22 -57.5t57 -22.5q40 0 65.5 27t25.5 71v266h176v-342q0 -25 25 -25q5 0 10.5 0.5t10.5 1.5l13 -134q-20 -4 -40 -6t-43 -2q-42 0 -73.5 18t-48.5 50q-29 -33 -62 -48.5t-65 -15.5q-43 0 -73 12v-212h-176v703z" />
    <glyph glyph-name="nu" unicode="&#x3bd;" horiz-adv-x="554" 
d="M535 495q-14 -143 -62.5 -266t-130.5 -229h-154l-184 495h184l96 -297q29 66 49 137.5t26 159.5h176z" />
    <glyph glyph-name="xi" unicode="&#x3be;" horiz-adv-x="476" 
d="M458 579h-122q-49 0 -77 -20.5t-28 -54.5q0 -31 22.5 -48t55.5 -17h85v-126h-63q-59 0 -91.5 -23.5t-32.5 -67.5q0 -34 30.5 -56.5t96.5 -39.5q70 -19 105 -52t35 -87q0 -69 -46 -169l-136 36q21 52 21 89q0 46 -52 58q-121 29 -177.5 79t-56.5 127q0 56 27.5 97.5
t74.5 67.5q-32 17 -51 47.5t-19 64.5q0 29 13 56t36 46h-65v118h415v-125z" />
    <glyph glyph-name="omicron" unicode="&#x3bf;" 
d="M27 247q0 57 21 105t58.5 82.5t89 53.5t113.5 19t114 -19t89.5 -53.5t58 -82.5t20.5 -105t-20.5 -104.5t-58 -82t-89.5 -53.5t-114 -19t-113.5 19t-89 53.5t-58.5 82t-21 104.5zM207 247q0 -54 28.5 -88.5t73.5 -34.5t74 34.5t29 88.5q0 55 -29 89.5t-74 34.5
t-73.5 -34.5t-28.5 -89.5z" />
    <glyph glyph-name="pi" unicode="&#x3c0;" horiz-adv-x="682" 
d="M649 362h-83v-207q0 -12 6.5 -19.5t17.5 -7.5q6 0 13 0.5t12 1.5l18 -134q-23 -4 -44.5 -6t-38.5 -2q-69 0 -111 40.5t-42 108.5v225h-128v-362h-169v362h-83v133h632v-133z" />
    <glyph glyph-name="rho" unicode="&#x3c1;" 
d="M44 242q0 61 20 110t56.5 83.5t89 53t118.5 18.5q58 0 106.5 -18.5t83 -52.5t54 -81t19.5 -104t-18.5 -105.5t-51 -83.5t-77.5 -54.5t-97 -19.5q-71 0 -127 44v-240h-176v450zM412 249q0 54 -27 88t-71 34t-70.5 -29t-26.5 -71v-50q0 -41 25.5 -67t67.5 -26q46 0 74 33.5
t28 87.5z" />
    <glyph glyph-name="sigma1" unicode="&#x3c2;" horiz-adv-x="493" 
d="M27 249q0 56 20 103.5t55.5 82t84.5 53.5t107 19q50 0 98.5 -12.5t96.5 -38.5l-66 -122q-26 16 -51.5 24.5t-48.5 8.5q-51 0 -83.5 -33t-32.5 -85q0 -45 25.5 -76.5t85.5 -46.5q70 -19 105 -52t35 -87q0 -69 -46 -169l-136 36q21 52 21 89q0 46 -52 58q-114 28 -166 93.5
t-52 154.5z" />
    <glyph glyph-name="sigma" unicode="&#x3c3;" horiz-adv-x="650" 
d="M27 243q0 58 20 105t57.5 79.5t91 50t121.5 17.5h316v-133h-73q23 -66 23 -123t-21 -103t-58.5 -79t-89.5 -51t-113 -18q-60 0 -110.5 18.5t-86.5 52t-56.5 80.5t-20.5 104zM207 243q0 -54 28.5 -86.5t72.5 -32.5q45 0 72 35t27 88q0 55 -31 115h-52q-54 0 -85.5 -32
t-31.5 -87z" />
    <glyph glyph-name="tau" unicode="&#x3c4;" horiz-adv-x="485" 
d="M460 362h-141v-195q0 -18 10.5 -28.5t28.5 -10.5q9 0 19.5 1t21.5 3l18 -132q-54 -12 -103 -12q-80 0 -125.5 43.5t-45.5 117.5v213h-126v133h443v-133z" />
    <glyph glyph-name="upsilon" unicode="&#x3c5;" 
d="M550 495q16 -60 24.5 -120t8.5 -120q0 -59 -21 -108t-59.5 -84t-91.5 -55t-116 -20q-56 0 -102 17t-79 48t-51.5 74t-18.5 94q0 32 4 62.5t4 61.5q0 35 -4 73t-12 77h176q8 -35 12 -71.5t4 -71.5q0 -31 -4 -61.5t-4 -62.5q0 -43 24 -70t61 -27q45 0 73.5 38.5t28.5 99.5
q0 55 -9 109t-24 117h176z" />
    <glyph glyph-name="phi" unicode="&#x3c6;" horiz-adv-x="729" 
d="M287 -5q-60 8 -108 29.5t-81.5 54.5t-52 75.5t-18.5 92.5t18.5 92.5t52 75.5t81.5 54.5t108 29.5v205h154v-205q60 -8 108.5 -29.5t82 -54.5t52 -75.5t18.5 -92.5t-18.5 -92.5t-52 -75.5t-82 -54.5t-108.5 -29.5v-203h-154v203zM185 247q0 -44 26.5 -75t75.5 -41v232
q-49 -10 -75.5 -41t-26.5 -75zM544 247q0 44 -27 75t-76 41v-232q49 10 76 41t27 75z" />
    <glyph glyph-name="chi" unicode="&#x3c7;" horiz-adv-x="556" 
d="M421 33q28 -57 49 -85t47 -28q17 0 32 3l23 -135q-21 -5 -40.5 -6.5t-36.5 -1.5q-34 0 -60 7.5t-47.5 23t-39 40t-34.5 58.5l-43 88l-106 -205h-176l209 367l-54 109q-25 52 -43.5 75.5t-44.5 23.5q-17 0 -32 -3l-23 135q21 5 40.5 6.5t36.5 1.5q67 0 107.5 -31t69.5 -91
l39 -80l98 190h172l-197 -351z" />
    <glyph glyph-name="psi" unicode="&#x3c8;" horiz-adv-x="748" 
d="M297 -10q-56 3 -102.5 21.5t-80 50.5t-52 75t-18.5 95q0 31 4 60.5t4 60.5q0 32 -3.5 67.5t-12.5 74.5h158q9 -35 12.5 -69t3.5 -66q0 -31 -4 -60.5t-4 -60.5q0 -45 25 -74t70 -32v506h154v-504q48 11 75.5 51.5t27.5 100.5q0 51 -7 101.5t-22 106.5h154
q16 -58 24.5 -110.5t8.5 -112.5q0 -57 -19.5 -106t-54 -85.5t-82.5 -59.5t-105 -29v-200h-154v198z" />
    <glyph glyph-name="omega" unicode="&#x3c9;" horiz-adv-x="812" 
d="M487 268q0 -137 61 -137q26 0 41 29.5t15 83.5t-15 116t-49 135h173q32 -70 48 -137t16 -128q0 -53 -15 -97.5t-42 -76.5t-64.5 -50t-82.5 -18q-60 0 -104.5 30t-62.5 82q-18 -52 -62.5 -82t-104.5 -30q-45 0 -82.5 18t-64.5 50t-42 76.5t-15 97.5q0 61 16 128t48 137
h172q-33 -73 -48.5 -135t-15.5 -116t15.5 -83.5t41.5 -29.5q61 0 61 137v113h162v-113z" />
    <glyph glyph-name="iotadieresis" unicode="&#x3ca;" horiz-adv-x="329" 
d="M228 167q0 -18 11 -28.5t29 -10.5q9 0 19.5 1t21.5 3l18 -132q-54 -12 -103 -12q-80 0 -126 43.5t-46 117.5v346h176v-328zM-67 625q0 40 24.5 65t64.5 25t64.5 -25t24.5 -65t-24.5 -64.5t-64.5 -24.5t-64.5 24.5t-24.5 64.5zM169 625q0 40 24.5 65t64.5 25t64.5 -25
t24.5 -65t-24.5 -64.5t-64.5 -24.5t-64.5 24.5t-24.5 64.5z" />
    <glyph glyph-name="upsilondieresis" unicode="&#x3cb;" 
d="M550 495q16 -60 24.5 -120t8.5 -120q0 -59 -21 -108t-59.5 -84t-91.5 -55t-116 -20q-56 0 -102 17t-79 48t-51.5 74t-18.5 94q0 32 4 62.5t4 61.5q0 35 -4 73t-12 77h176q8 -35 12 -71.5t4 -71.5q0 -31 -4 -61.5t-4 -62.5q0 -43 24 -70t61 -27q45 0 73.5 38.5t28.5 99.5
q0 55 -9 109t-24 117h176zM94 625q0 40 24.5 65t64.5 25t64.5 -25t24.5 -65t-24.5 -64.5t-64.5 -24.5t-64.5 24.5t-24.5 64.5zM330 625q0 40 24.5 65t64.5 25t64.5 -25t24.5 -65t-24.5 -64.5t-64.5 -24.5t-64.5 24.5t-24.5 64.5z" />
    <glyph glyph-name="omicrontonos" unicode="&#x3cc;" 
d="M27 247q0 57 21 105t58.5 82.5t89 53.5t113.5 19t114 -19t89.5 -53.5t58 -82.5t20.5 -105t-20.5 -104.5t-58 -82t-89.5 -53.5t-114 -19t-113.5 19t-89 53.5t-58.5 82t-21 104.5zM207 247q0 -54 28.5 -88.5t73.5 -34.5t74 34.5t29 88.5q0 55 -29 89.5t-74 34.5
t-73.5 -34.5t-28.5 -89.5zM354 520l-119 40l70 223l133 -46z" />
    <glyph glyph-name="upsilontonos" unicode="&#x3cd;" 
d="M550 495q16 -60 24.5 -120t8.5 -120q0 -59 -21 -108t-59.5 -84t-91.5 -55t-116 -20q-56 0 -102 17t-79 48t-51.5 74t-18.5 94q0 32 4 62.5t4 61.5q0 35 -4 73t-12 77h176q8 -35 12 -71.5t4 -71.5q0 -31 -4 -61.5t-4 -62.5q0 -43 24 -70t61 -27q45 0 73.5 38.5t28.5 99.5
q0 55 -9 109t-24 117h176zM346 520l-119 40l70 223l133 -46z" />
    <glyph glyph-name="omegatonos" unicode="&#x3ce;" horiz-adv-x="812" 
d="M487 268q0 -137 61 -137q26 0 41 29.5t15 83.5t-15 116t-49 135h173q32 -70 48 -137t16 -128q0 -53 -15 -97.5t-42 -76.5t-64.5 -50t-82.5 -18q-60 0 -104.5 30t-62.5 82q-18 -52 -62.5 -82t-104.5 -30q-45 0 -82.5 18t-64.5 50t-42 76.5t-15 97.5q0 61 16 128t48 137
h172q-33 -73 -48.5 -135t-15.5 -116t15.5 -83.5t41.5 -29.5q61 0 61 137v113h162v-113zM451 520l-119 40l70 223l133 -46z" />
    <glyph glyph-name="uni03D0" unicode="&#x3d0;" horiz-adv-x="570" 
d="M35 343q0 84 20 152.5t58 117.5t91.5 76t121.5 27q44 0 81 -13.5t63.5 -37.5t41.5 -58t15 -75q0 -72 -51 -123q38 -35 56.5 -79.5t18.5 -92.5q0 -52 -17.5 -97.5t-49.5 -79t-78.5 -53t-104.5 -19.5q-63 0 -112.5 24.5t-83.5 70t-52 111.5t-18 149zM362 525q0 26 -17 42.5
t-41 16.5q-23 0 -41 -12.5t-31.5 -34.5t-20.5 -52.5t-7 -66.5h5q34 0 62 8.5t48 23t31.5 34t11.5 41.5zM383 223q0 27 -10 53t-29 45q-29 -15 -62.5 -21.5t-65.5 -6.5h-12q0 -77 25 -125t72 -48q36 0 59 29.5t23 73.5z" />
    <glyph glyph-name="theta1" unicode="&#x3d1;" horiz-adv-x="682" 
d="M681 294h-85q-3 -69 -22 -125.5t-51 -96.5t-76.5 -62t-97.5 -22q-63 0 -102 16t-63 39.5t-37.5 51t-26 51t-28.5 39.5t-45 16q-6 0 -14.5 -1t-17.5 -3l-22 130q20 5 39.5 7.5t36.5 2.5q55 0 88.5 -16t54 -39.5t32.5 -51t23 -51t26 -39.5t42 -16q41 0 67 45t26 125h-20
q-62 0 -116.5 17.5t-95 48.5t-64.5 73t-24 92q0 42 16.5 77.5t45.5 60.5t68.5 39t86.5 14q54 0 102 -20t84 -57.5t58.5 -91.5t26.5 -121h85v-132zM273 521q0 -22 12 -39.5t32.5 -30t48 -19t57.5 -6.5h5q0 35 -8 63.5t-21 48.5t-30.5 31t-36.5 11q-26 0 -42.5 -16.5
t-16.5 -42.5z" />
    <glyph glyph-name="phi1" unicode="&#x3d5;" horiz-adv-x="745" 
d="M188 260q0 -48 25.5 -83t70.5 -46v161q0 47 15.5 86.5t43 68t65.5 44.5t84 16q50 0 91.5 -17t71.5 -47.5t46.5 -72t16.5 -90.5q0 -56 -19.5 -104.5t-55 -86t-86 -62t-112.5 -32.5v-203h-161v203q-59 8 -106 30.5t-81 56.5t-52 78.5t-18 95.5q0 68 34.5 131.5t106.5 115.5
l88 -118q-32 -24 -50 -56.5t-18 -68.5zM556 280q0 38 -16 62.5t-42 24.5q-24 0 -38.5 -20t-14.5 -55v-161q53 13 82 53t29 96z" />
    <glyph glyph-name="uni0400" unicode="&#x400;" horiz-adv-x="607" 
d="M69 672h487v-136h-304v-126h272v-132h-272v-142h320v-136h-503v672zM424 790l-66 -95l-211 125l77 110z" />
    <glyph glyph-name="afii10023" unicode="&#x401;" horiz-adv-x="607" 
d="M69 672h487v-136h-304v-126h272v-132h-272v-142h320v-136h-503v672zM104 802q0 40 24.5 65t64.5 25t64.5 -25t24.5 -65t-24.5 -64.5t-64.5 -24.5t-64.5 24.5t-24.5 64.5zM340 802q0 40 24.5 65t64.5 25t64.5 -25t24.5 -65t-24.5 -64.5t-64.5 -24.5t-64.5 24.5t-24.5 64.5
z" />
    <glyph glyph-name="afii10051" unicode="&#x402;" horiz-adv-x="847" 
d="M196 532h-179v140h572v-140h-210v-131q106 18 201 18q55 0 100.5 -15.5t78 -44t50.5 -67.5t18 -87t-18.5 -88t-51.5 -68.5t-78 -44.5t-98 -16q-73 0 -150 20l35 139q26 -6 50 -9t43 -3q36 0 58.5 17.5t22.5 48.5q0 33 -25 54t-72 21q-38 0 -79 -3.5t-85 -10.5v-262h-183
v532z" />
    <glyph glyph-name="afii10052" unicode="&#x403;" horiz-adv-x="543" 
d="M69 672h456v-140h-273v-532h-183v672zM271 695l-66 95l200 140l76 -110z" />
    <glyph glyph-name="afii10053" unicode="&#x404;" horiz-adv-x="663" 
d="M524 278h-310q14 -69 67 -109.5t131 -40.5q77 0 157 53l73 -118q-60 -38 -125 -56.5t-130 -18.5q-80 0 -146 26t-113 72t-73.5 110t-26.5 140t26.5 140t73.5 110.5t113 72t146 25.5q65 0 130 -18.5t125 -56.5l-73 -118q-80 53 -157 53q-74 0 -125.5 -36t-68.5 -98h306
v-132z" />
    <glyph glyph-name="afii10054" unicode="&#x405;" horiz-adv-x="597" 
d="M35 480q0 45 19.5 82.5t54.5 64.5t83.5 42t106.5 15q59 0 118.5 -12t124.5 -36l-41 -136q-103 41 -188 41q-45 0 -71.5 -16t-26.5 -45q0 -27 26 -40.5t65 -23t84.5 -20.5t84.5 -33.5t65 -61.5t26 -105q0 -47 -19.5 -85t-55 -65.5t-84.5 -42.5t-108 -15q-63 0 -129.5 13.5
t-138.5 42.5l41 136q59 -23 113 -36t99 -13q48 0 75 17t27 48q0 28 -26 42t-65 24.5t-84.5 22t-84.5 33.5t-65 60t-26 102z" />
    <glyph glyph-name="afii10055" unicode="&#x406;" horiz-adv-x="321" 
d="M69 672h183v-672h-183v672z" />
    <glyph glyph-name="afii10056" unicode="&#x407;" horiz-adv-x="321" 
d="M69 672h183v-672h-183v672zM-46 802q0 40 24.5 65t64.5 25t64.5 -25t24.5 -65t-24.5 -64.5t-64.5 -24.5t-64.5 24.5t-24.5 64.5zM190 802q0 40 24.5 65t64.5 25t64.5 -25t24.5 -65t-24.5 -64.5t-64.5 -24.5t-64.5 24.5t-24.5 64.5z" />
    <glyph glyph-name="afii10057" unicode="&#x408;" horiz-adv-x="461" 
d="M392 207q0 -49 -16.5 -89.5t-47 -69t-72.5 -44.5t-93 -16q-36 0 -73.5 4.5t-79.5 15.5l22 139q23 -5 45.5 -8.5t41.5 -3.5q39 0 64.5 24.5t25.5 65.5v447h183v-465z" />
    <glyph glyph-name="afii10058" unicode="&#x409;" horiz-adv-x="1135" 
d="M559 532h-230v-298q0 -56 -16.5 -101.5t-47.5 -77.5t-74 -49.5t-97 -17.5q-20 0 -43.5 1.5t-49.5 6.5l15 143q14 -2 26 -3t23 -1q42 0 65 30.5t23 83.5v423h574v-238h152q51 0 94.5 -16t75 -44.5t49 -68.5t17.5 -88t-17.5 -88t-49 -68.5t-75 -44.5t-94.5 -16h-320v532z
M727 140h130q38 0 62 21t24 56q0 34 -24 56t-62 22h-130v-155z" />
    <glyph glyph-name="afii10059" unicode="&#x40a;" horiz-adv-x="1111" 
d="M535 282h-290v-282h-176v672h176v-254h290v254h168v-254h152q52 0 95 -15t74.5 -43t49 -66.5t17.5 -84.5q0 -47 -17.5 -85t-49 -66t-74.5 -43t-95 -15h-320v282zM703 132h130q39 0 62.5 21t23.5 56q0 33 -23.5 55t-62.5 22h-130v-154z" />
    <glyph glyph-name="afii10060" unicode="&#x40b;" horiz-adv-x="847" 
d="M196 532h-179v140h572v-140h-210v-131q93 18 178 18q54 0 99.5 -17t78.5 -47t51 -72.5t18 -93.5v-189h-184v175q0 45 -30 73t-77 28q-29 0 -63.5 -3.5t-70.5 -10.5v-262h-183v532z" />
    <glyph glyph-name="afii10061" unicode="&#x40c;" horiz-adv-x="698" 
d="M69 672h176v-258h51l190 258h202l-242 -319l262 -353h-206l-199 274h-58v-274h-176v672zM325 695l-66 95l200 140l76 -110z" />
    <glyph glyph-name="uni040D" unicode="&#x40d;" horiz-adv-x="788" 
d="M507 790l-66 -95l-211 125l77 110zM69 672h169v-423l305 423h176v-672h-168v423l-306 -423h-176v672z" />
    <glyph glyph-name="afii10062" unicode="&#x40e;" horiz-adv-x="653" 
d="M414 140q-37 -78 -93 -115t-135 -37q-29 0 -56.5 4t-56.5 12l26 139q40 -8 65 -8q53 0 76 49l5 10l-240 478h191l139 -324l138 324h191zM267 880q2 -29 20.5 -45t47.5 -16t47.5 16t20.5 45h111q-2 -42 -16 -75.5t-37.5 -56.5t-56 -35t-69.5 -12q-38 0 -70 12t-55.5 35
t-38 56.5t-15.5 75.5h111z" />
    <glyph glyph-name="afii10145" unicode="&#x40f;" horiz-adv-x="788" 
d="M69 672h183v-532h284v532h183v-672h-240v-176h-169v176h-241v672z" />
    <glyph glyph-name="afii10017" unicode="&#x410;" horiz-adv-x="692" 
d="M262 672h169l272 -672h-183l-50 136h-247l-50 -136h-184zM270 268h152l-76 205z" />
    <glyph glyph-name="afii10018" unicode="&#x411;" horiz-adv-x="660" 
d="M69 672h502v-132h-326v-128h156q51 0 93.5 -15t73 -42.5t48 -65.5t17.5 -83q0 -46 -17.5 -84t-48 -65t-73 -42t-93.5 -15h-332v672zM245 132h127q38 0 60 20t22 54q0 33 -22 53t-60 20h-127v-147z" />
    <glyph glyph-name="afii10019" unicode="&#x412;" horiz-adv-x="669" 
d="M69 672h313q50 0 92 -13.5t72 -37.5t46.5 -58t16.5 -74q0 -48 -23.5 -83.5t-59.5 -54.5q50 -20 78.5 -62.5t28.5 -97.5q0 -42 -17.5 -77t-48.5 -60.5t-74.5 -39.5t-94.5 -14h-329v672zM245 132h124q38 0 61.5 21t23.5 56t-23.5 55.5t-61.5 20.5h-124v-153zM245 403h112
q34 0 55 18.5t21 49.5t-21 50t-55 19h-112v-137z" />
    <glyph glyph-name="afii10020" unicode="&#x413;" horiz-adv-x="543" 
d="M69 672h456v-140h-273v-532h-183v672z" />
    <glyph glyph-name="afii10021" unicode="&#x414;" horiz-adv-x="796" 
d="M11 140h48q35 59 54 129t19 151v252h549v-532h96v-316h-169v176h-428v-176h-169v316zM505 532h-197v-126q0 -75 -13.5 -142t-41.5 -124h252v392z" />
    <glyph glyph-name="afii10022" unicode="&#x415;" horiz-adv-x="607" 
d="M69 672h487v-136h-304v-126h272v-132h-272v-142h320v-136h-503v672z" />
    <glyph glyph-name="afii10024" unicode="&#x416;" horiz-adv-x="1040" 
d="M432 274h-58l-185 -274h-198l244 351l-225 321h191l178 -258h53v258h176v-258h53l178 258h191l-225 -321l244 -351h-198l-185 274h-58v-274h-176v274z" />
    <glyph glyph-name="afii10025" unicode="&#x417;" horiz-adv-x="557" 
d="M161 407h70q52 0 79 18.5t27 50.5q0 29 -21.5 47t-63.5 18q-40 0 -86 -11t-96 -30l-51 133q66 25 131 38t127 13q52 0 95.5 -13.5t75 -38.5t48.5 -59t17 -76q0 -52 -27.5 -92t-72.5 -57q51 -18 83.5 -63t32.5 -102q0 -44 -18.5 -79.5t-52 -61.5t-80 -40t-101.5 -14
q-65 0 -133.5 13t-140.5 42l51 133q52 -23 101.5 -34t92.5 -11q48 0 75 20t27 53q0 36 -31 56.5t-88 20.5h-70v126z" />
    <glyph glyph-name="afii10026" unicode="&#x418;" horiz-adv-x="788" 
d="M69 672h169v-423l305 423h176v-672h-168v423l-306 -423h-176v672z" />
    <glyph glyph-name="afii10027" unicode="&#x419;" horiz-adv-x="788" 
d="M326 880q2 -29 20.5 -45t47.5 -16t47.5 16t20.5 45h111q-2 -42 -16 -75.5t-37.5 -56.5t-56 -35t-69.5 -12q-38 0 -70 12t-55.5 35t-38 56.5t-15.5 75.5h111zM69 672h169v-423l305 423h176v-672h-168v423l-306 -423h-176v672z" />
    <glyph glyph-name="afii10028" unicode="&#x41a;" horiz-adv-x="698" 
d="M69 672h176v-258h51l190 258h202l-242 -319l262 -353h-206l-199 274h-58v-274h-176v672z" />
    <glyph glyph-name="afii10029" unicode="&#x41b;" horiz-adv-x="812" 
d="M743 0h-176v532h-238v-298q0 -56 -16.5 -101.5t-47.5 -77.5t-74 -49.5t-97 -17.5q-20 0 -43.5 1.5t-49.5 6.5l15 143q14 -2 26 -3t23 -1q42 0 65 30.5t23 83.5v423h590v-672z" />
    <glyph glyph-name="afii10030" unicode="&#x41c;" horiz-adv-x="876" 
d="M69 672h176l193 -267l193 267h176v-672h-168v423l-151 -209h-100l-150 209v-423h-169v672z" />
    <glyph glyph-name="afii10031" unicode="&#x41d;" horiz-adv-x="788" 
d="M69 672h183v-258h284v258h183v-672h-183v274h-284v-274h-183v672z" />
    <glyph glyph-name="afii10032" unicode="&#x41e;" horiz-adv-x="788" 
d="M28 336q0 76 27 140t75.5 110.5t115.5 72t148 25.5t148 -25.5t116 -72t76 -110.5t27 -140q0 -77 -27 -140.5t-76 -110t-116 -72t-148 -25.5t-148 25.5t-115.5 72t-75.5 110t-27 140.5zM215 336q0 -45 13 -82.5t36.5 -65t56.5 -42.5t73 -15t73 15t57 42.5t37 65t13 82.5
t-13 82.5t-37 65t-57 42.5t-73 15t-73 -15t-56.5 -42.5t-36.5 -65t-13 -82.5z" />
    <glyph glyph-name="afii10033" unicode="&#x41f;" horiz-adv-x="788" 
d="M69 672h650v-672h-183v532h-284v-532h-183v672z" />
    <glyph glyph-name="afii10034" unicode="&#x420;" horiz-adv-x="637" 
d="M69 672h297q55 0 101 -17t79.5 -48t52 -73.5t18.5 -93.5t-18.5 -94t-52 -73.5t-79.5 -48t-101 -17.5h-121v-207h-176v672zM245 347h92q45 0 73 25.5t28 67.5q0 40 -28 66t-73 26h-92v-185z" />
    <glyph glyph-name="afii10035" unicode="&#x421;" horiz-adv-x="655" 
d="M28 336q0 76 26.5 140t73.5 110.5t113 72t146 25.5q65 0 130 -20.5t125 -58.5l-73 -121q-39 26 -77.5 40.5t-79.5 14.5q-44 0 -80 -15t-62 -41.5t-40.5 -64t-14.5 -82.5t14.5 -82.5t40.5 -64t62 -41.5t80 -15q41 0 79.5 14.5t77.5 40.5l73 -121q-60 -38 -125 -58.5
t-130 -20.5q-80 0 -146 26t-113 72t-73.5 110t-26.5 140z" />
    <glyph glyph-name="afii10036" unicode="&#x422;" horiz-adv-x="607" 
d="M212 532h-195v140h572v-140h-194v-532h-183v532z" />
    <glyph glyph-name="afii10037" unicode="&#x423;" horiz-adv-x="653" 
d="M414 140q-37 -78 -93 -115t-135 -37q-29 0 -56.5 4t-56.5 12l26 139q40 -8 65 -8q53 0 76 49l5 10l-240 478h191l139 -324l138 324h191z" />
    <glyph glyph-name="afii10038" unicode="&#x424;" horiz-adv-x="810" 
d="M321 51q-66 5 -121.5 28.5t-95.5 61.5t-62 89.5t-22 113.5q0 61 22 112.5t62 90t95.5 62t121.5 28.5v67h168v-67q66 -5 121.5 -28.5t95.5 -62t62.5 -90t22.5 -112.5q0 -62 -22.5 -113.5t-62.5 -89.5t-95.5 -61.5t-121.5 -28.5v-83h-168v83zM192 344q0 -60 35 -101t94 -52
v306q-59 -11 -94 -52t-35 -101zM618 344q0 60 -35 101t-94 52v-306q59 11 94 52t35 101z" />
    <glyph glyph-name="afii10039" unicode="&#x425;" horiz-adv-x="700" 
d="M233 344l-230 328h201l146 -214l146 214h202l-231 -328l243 -344h-206l-154 230l-154 -230h-205z" />
    <glyph glyph-name="afii10040" unicode="&#x426;" horiz-adv-x="835" 
d="M69 672h183v-532h284v532h183v-532h96v-316h-168v176h-578v672z" />
    <glyph glyph-name="afii10041" unicode="&#x427;" horiz-adv-x="724" 
d="M471 255q-48 -8 -93 -13t-89 -5q-54 0 -99.5 18t-78 49.5t-50.5 75t-18 95.5v197h183v-183q0 -48 29.5 -78.5t77.5 -30.5q32 0 67 3.5t71 10.5v278h184v-672h-184v255z" />
    <glyph glyph-name="afii10042" unicode="&#x428;" horiz-adv-x="1103" 
d="M69 672h183v-532h208v532h183v-532h207v532h183v-672h-964v672z" />
    <glyph glyph-name="afii10043" unicode="&#x429;" horiz-adv-x="1149" 
d="M69 672h183v-532h208v532h183v-532h207v532h183v-532h96v-316h-176v176h-884v672z" />
    <glyph glyph-name="afii10044" unicode="&#x42a;" horiz-adv-x="781" 
d="M17 532v140h356v-238h152q52 0 95 -16t74.5 -44.5t49 -68.5t17.5 -88t-17.5 -88t-49 -68.5t-74.5 -44.5t-95 -16h-328v532h-180zM373 140h123q39 0 62.5 21t23.5 56q0 34 -23.5 56t-62.5 22h-123v-155z" />
    <glyph glyph-name="afii10045" unicode="&#x42b;" horiz-adv-x="975" 
d="M69 672h176v-238h152q52 0 95 -16t74.5 -44.5t49 -68.5t17.5 -88t-17.5 -88t-49 -68.5t-74.5 -44.5t-95 -16h-328v672zM245 140h123q39 0 62.5 21t23.5 56q0 34 -23.5 56t-62.5 22h-123v-155zM722 672h183v-672h-183v672z" />
    <glyph glyph-name="afii10046" unicode="&#x42c;" horiz-adv-x="653" 
d="M69 672h176v-238h152q52 0 95 -16t74.5 -44.5t49 -68.5t17.5 -88t-17.5 -88t-49 -68.5t-74.5 -44.5t-95 -16h-328v672zM245 140h123q39 0 62.5 21t23.5 56q0 34 -23.5 56t-62.5 22h-123v-155z" />
    <glyph glyph-name="afii10047" unicode="&#x42d;" horiz-adv-x="663" 
d="M635 336q0 -76 -26.5 -140t-73.5 -110t-113.5 -72t-145.5 -26q-66 0 -130.5 18.5t-125.5 56.5l74 118q80 -53 156 -53q78 0 131.5 40.5t67.5 109.5h-311v132h306q-17 62 -68.5 98t-125.5 36q-76 0 -156 -53l-74 118q61 38 125.5 56.5t130.5 18.5q79 0 145.5 -25.5
t113.5 -72t73.5 -110.5t26.5 -140z" />
    <glyph glyph-name="afii10048" unicode="&#x42e;" horiz-adv-x="1102" 
d="M69 672h183v-255h106q12 60 43.5 109t77.5 84t105 54.5t128 19.5q79 0 145.5 -25.5t114.5 -72t75 -110.5t27 -140q0 -77 -27 -140.5t-75 -110t-114.5 -72t-145.5 -25.5q-71 0 -132 20.5t-107.5 57.5t-77 89t-40.5 116h-103v-271h-183v672zM532 336q0 -45 13.5 -82.5
t37.5 -65t57 -42.5t72 -15t72 15t56.5 42.5t37 65t13.5 82.5t-13.5 82.5t-37 65t-56.5 42.5t-72 15t-72 -15t-57 -42.5t-37.5 -65t-13.5 -82.5z" />
    <glyph glyph-name="afii10049" unicode="&#x42f;" horiz-adv-x="669" 
d="M424 223h-62l-143 -223h-198l172 252q-65 19 -103 72.5t-38 126.5q0 49 18 89.5t50.5 69.5t77.5 45.5t98 16.5h304v-672h-176v223zM424 532h-99q-41 0 -67 -23t-26 -61q0 -39 26 -62t67 -23h99v169z" />
    <glyph glyph-name="afii10065" unicode="&#x430;" horiz-adv-x="572" 
d="M27 149q0 80 60.5 123.5t169.5 43.5q39 0 85 -8v4q0 29 -24 47.5t-62 18.5q-37 0 -77.5 -9.5t-82.5 -26.5l-44 121q60 23 116 33.5t110 10.5q51 0 92.5 -14.5t71 -40.5t45.5 -62.5t16 -81.5v-163q0 -25 25 -25q6 0 12 0.5t11 1.5l11 -126q-40 -8 -83 -8q-37 0 -65 15
t-45 42q-35 -28 -77 -42.5t-83 -14.5q-40 0 -73.5 12t-57.5 33t-37.5 50.5t-13.5 65.5zM192 160q0 -22 18 -36.5t46 -14.5q38 0 62 23.5t24 59.5v18q-15 3 -30.5 5t-32.5 2q-39 0 -63 -15.5t-24 -41.5z" />
    <glyph glyph-name="afii10066" unicode="&#x431;" 
d="M591 263q0 -61 -20 -111.5t-55 -87t-84.5 -56.5t-107.5 -20q-65 0 -118.5 23t-91.5 66t-58.5 103.5t-20.5 135.5q0 155 74.5 254.5t222.5 129.5l159 34l30 -132l-160 -34q-63 -14 -98.5 -41t-47.5 -65q64 45 146 45q49 0 91 -18.5t73 -51.5t48.5 -77.5t17.5 -96.5z
M423 252q0 51 -29.5 83t-76.5 32t-76.5 -32t-29.5 -83q0 -26 8.5 -49t23 -39.5t33.5 -26t41 -9.5q46 0 76 34.5t30 89.5z" />
    <glyph glyph-name="afii10067" unicode="&#x432;" horiz-adv-x="524" 
d="M52 495h246q39 0 72.5 -9.5t58 -27.5t38.5 -43.5t14 -58.5q0 -34 -16 -58t-39 -38q32 -17 51.5 -48t19.5 -70q0 -31 -14 -57t-39 -45t-59.5 -29.5t-74.5 -10.5h-258v495zM214 118h70q23 0 35.5 11.5t12.5 31.5t-12.5 31t-35.5 11h-70v-85zM214 299h62q19 0 31 11t12 28
t-12 28t-31 11h-62v-78z" />
    <glyph glyph-name="afii10068" unicode="&#x433;" horiz-adv-x="446" 
d="M52 495h368v-133h-192v-362h-176v495z" />
    <glyph glyph-name="afii10069" unicode="&#x434;" 
d="M11 132h32q49 73 49 184v179h443v-363h64v-292h-161v160h-266v-160h-161v292zM381 362h-135v-61q0 -100 -30 -169h165v230z" />
    <glyph glyph-name="afii10070" unicode="&#x435;" horiz-adv-x="564" 
d="M27 247q0 57 19.5 105t55 82.5t84.5 53.5t108 19q55 0 101.5 -18.5t79.5 -51.5t51.5 -79.5t18.5 -102.5q0 -28 -3 -53h-339q10 -39 44.5 -62t84.5 -23q60 0 137 40l52 -118q-57 -26 -110.5 -38.5t-100.5 -12.5q-63 0 -115 19t-89.5 53.5t-58 82t-20.5 104.5zM294 378
q-35 0 -59 -20t-32 -53h173q-5 33 -27 53t-55 20z" />
    <glyph glyph-name="afii10072" unicode="&#x436;" horiz-adv-x="807" 
d="M323 187h-33l-116 -187h-180l162 259l-147 236h177l108 -176h29v176h161v-176h30l107 176h177l-147 -236l162 -259h-180l-116 187h-33v-187h-161v187z" />
    <glyph glyph-name="afii10073" unicode="&#x437;" horiz-adv-x="460" 
d="M137 305h54q28 0 44.5 9.5t16.5 26.5q0 13 -11.5 23t-33.5 10q-31 0 -66.5 -9t-70.5 -23l-48 121q110 44 207 44q43 0 78 -10.5t60.5 -29.5t39.5 -45.5t14 -57.5q0 -35 -18 -64.5t-47 -42.5q33 -14 55 -46t22 -73q0 -32 -15 -59.5t-42 -47.5t-64.5 -31.5t-82.5 -11.5
q-53 0 -106 12t-113 35l48 122q40 -18 76 -27.5t69 -9.5q26 0 41.5 10.5t15.5 27.5q0 20 -18.5 32t-50.5 12h-54v103z" />
    <glyph glyph-name="afii10074" unicode="&#x438;" 
d="M52 495h162v-260l187 260h165v-495h-162v260l-186 -260h-166v495z" />
    <glyph glyph-name="afii10075" unicode="&#x439;" 
d="M52 495h162v-260l187 260h165v-495h-162v260l-186 -260h-166v495zM241 703q2 -29 20.5 -45t47.5 -16t47.5 16t20.5 45h111q-2 -42 -16 -75.5t-37.5 -56.5t-56 -35t-69.5 -12q-38 0 -70 12t-55.5 35t-38 56.5t-15.5 75.5h111z" />
    <glyph glyph-name="afii10076" unicode="&#x43a;" horiz-adv-x="553" 
d="M52 495h169v-176h22l121 176h184l-164 -236l179 -259h-191l-125 187h-26v-187h-169v495z" />
    <glyph glyph-name="afii10077" unicode="&#x43b;" horiz-adv-x="634" 
d="M582 0h-169v362h-135v-183q0 -43 -14 -78t-39.5 -60t-60.5 -39t-78 -14q-17 0 -37 1t-40 5l15 137q19 -3 33 -3q24 0 38 17t14 48v302h473v-495z" />
    <glyph glyph-name="afii10078" unicode="&#x43c;" horiz-adv-x="682" 
d="M52 495h166l123 -172l124 172h165v-495h-162v261l-83 -116h-88l-83 115v-260h-162v495z" />
    <glyph glyph-name="afii10079" unicode="&#x43d;" 
d="M52 495h176v-179h162v179h176v-495h-176v183h-162v-183h-176v495z" />
    <glyph glyph-name="afii10080" unicode="&#x43e;" 
d="M27 247q0 57 21 105t58.5 82.5t89 53.5t113.5 19t114 -19t89.5 -53.5t58 -82.5t20.5 -105t-20.5 -104.5t-58 -82t-89.5 -53.5t-114 -19t-113.5 19t-89 53.5t-58.5 82t-21 104.5zM207 247q0 -54 28.5 -88.5t73.5 -34.5t74 34.5t29 88.5q0 55 -29 89.5t-74 34.5
t-73.5 -34.5t-28.5 -89.5z" />
    <glyph glyph-name="afii10081" unicode="&#x43f;" 
d="M390 0v362h-162v-362h-176v495h514v-495h-176z" />
    <glyph glyph-name="afii10082" unicode="&#x440;" 
d="M52 495h140l22 -46q28 28 65.5 43t81.5 15q51 0 93 -19t72.5 -53.5t47.5 -82.5t17 -105t-17 -104.5t-47.5 -82t-72.5 -53.5t-93 -19q-77 0 -133 47v-243h-176v703zM412 247q0 54 -27.5 88t-70.5 34q-40 0 -64.5 -27t-24.5 -69v-52q0 -42 24.5 -68.5t64.5 -26.5
q43 0 70.5 33.5t27.5 87.5z" />
    <glyph glyph-name="afii10083" unicode="&#x441;" horiz-adv-x="509" 
d="M27 247q0 57 20.5 104.5t57 82t87 54t110.5 19.5q107 0 203 -60l-70 -117q-27 17 -53 27t-55 10q-54 0 -87 -33t-33 -87t33 -86.5t87 -32.5q29 0 55 10t53 27l70 -118q-97 -59 -203 -59q-60 0 -110.5 19t-87 53.5t-57 82t-20.5 104.5z" />
    <glyph glyph-name="afii10084" unicode="&#x442;" horiz-adv-x="477" 
d="M460 362h-133v-362h-176v362h-134v133h443v-133z" />
    <glyph glyph-name="afii10085" unicode="&#x443;" horiz-adv-x="554" 
d="M347 -38q-71 -182 -223 -182q-17 0 -39.5 2.5t-45.5 7.5l22 136q25 -6 45 -6q29 0 48.5 15t33.5 50l9 22l-201 488h184l97 -297l97 297h184z" />
    <glyph glyph-name="afii10086" unicode="&#x444;" horiz-adv-x="729" 
d="M284 -5q-60 8 -107.5 30.5t-81 55.5t-51 75.5t-17.5 90.5q0 49 17.5 91t51 75t81 55.5t107.5 30.5v205h161v-205q60 -8 107.5 -30.5t81 -55.5t51 -75t17.5 -91q0 -48 -17.5 -90.5t-51 -75.5t-81 -55.5t-107.5 -30.5v-203h-161v203zM188 247q0 -43 25 -74t71 -42v232
q-46 -11 -71 -42.5t-25 -73.5zM540 247q0 42 -24.5 72t-70.5 41v-225q46 11 70.5 40t24.5 72z" />
    <glyph glyph-name="afii10087" unicode="&#x445;" horiz-adv-x="554" 
d="M163 253l-165 242h194l85 -133l85 133h194l-165 -242l173 -253h-198l-89 145l-89 -145h-198z" />
    <glyph glyph-name="afii10088" unicode="&#x446;" horiz-adv-x="649" 
d="M52 495h176v-363h162v363h176v-363h64v-292h-162v160h-416v495z" />
    <glyph glyph-name="afii10089" unicode="&#x447;" horiz-adv-x="570" 
d="M342 173q-32 -5 -62 -7t-59 -2q-41 0 -75 13t-59 37t-38.5 57.5t-13.5 73.5v150h176v-135q0 -28 16.5 -44t40.5 -16q17 0 35.5 1t38.5 4v190h176v-495h-176v173z" />
    <glyph glyph-name="afii10090" unicode="&#x448;" horiz-adv-x="876" 
d="M52 495h176v-363h122v363h176v-363h121v363h176v-495h-771v495z" />
    <glyph glyph-name="afii10091" unicode="&#x449;" horiz-adv-x="906" 
d="M52 495h176v-363h122v363h176v-363h121v363h176v-363h64v-292h-161v160h-674v495z" />
    <glyph glyph-name="afii10092" unicode="&#x44a;" 
d="M147 362h-130v133h291v-158h107q40 0 74 -12.5t58.5 -35t38 -53t13.5 -67.5t-13.5 -68t-38 -53.5t-58.5 -35t-74 -12.5h-268v362zM308 127h80q20 0 33 11.5t13 30.5q0 18 -13 30t-33 12h-80v-84z" />
    <glyph glyph-name="afii10093" unicode="&#x44b;" horiz-adv-x="797" 
d="M52 495h162v-158h107q40 0 74 -12.5t58.5 -35t38 -53t13.5 -67.5t-13.5 -68t-38 -53.5t-58.5 -35t-74 -12.5h-269v495zM576 495h169v-495h-169v495zM214 127h79q20 0 33.5 11.5t13.5 30.5q0 18 -13.5 30t-33.5 12h-79v-84z" />
    <glyph glyph-name="afii10094" unicode="&#x44c;" horiz-adv-x="524" 
d="M52 495h162v-158h107q40 0 74 -12.5t58.5 -35t38 -53t13.5 -67.5t-13.5 -68t-38 -53.5t-58.5 -35t-74 -12.5h-269v495zM214 127h79q20 0 33.5 11.5t13.5 30.5q0 18 -13.5 30t-33.5 12h-79v-84z" />
    <glyph glyph-name="afii10095" unicode="&#x44d;" horiz-adv-x="524" 
d="M497 247q0 -57 -20.5 -104.5t-56.5 -82t-86.5 -53.5t-110.5 -19q-108 0 -203 59l66 107q29 -18 56 -27.5t55 -9.5q45 0 76.5 20.5t44.5 58.5h-205v111h201q-14 33 -44.5 52t-72.5 19q-28 0 -55 -9.5t-56 -27.5l-66 106q94 60 203 60q60 0 110.5 -19.5t86.5 -54t56.5 -82
t20.5 -104.5z" />
    <glyph glyph-name="afii10096" unicode="&#x44e;" horiz-adv-x="883" 
d="M52 495h176v-179h89q10 43 34 78t58.5 60t78 39t94.5 14q60 0 110.5 -19t86.5 -53.5t56.5 -82.5t20.5 -105t-20.5 -104.5t-56.5 -82t-86.5 -53.5t-110.5 -19q-51 0 -95.5 14t-79 39.5t-58 61.5t-33.5 80h-88v-183h-176v495zM484 247q0 -54 27 -88.5t71 -34.5t71 34.5
t27 88.5q0 55 -27 89.5t-71 34.5t-71 -34.5t-27 -89.5z" />
    <glyph glyph-name="afii10097" unicode="&#x44f;" horiz-adv-x="553" 
d="M500 0h-161v146h-43l-93 -146h-180l118 175q-41 18 -66.5 57t-25.5 90q0 39 14 70.5t39 54.5t60 35.5t77 12.5h261v-495zM339 369h-69q-25 0 -40 -13t-15 -36q0 -22 15 -35.5t40 -13.5h69v98z" />
    <glyph glyph-name="uni0450" unicode="&#x450;" horiz-adv-x="564" 
d="M27 247q0 57 19.5 105t55 82.5t84.5 53.5t108 19q55 0 101.5 -18.5t79.5 -51.5t51.5 -79.5t18.5 -102.5q0 -28 -3 -53h-339q10 -39 44.5 -62t84.5 -23q60 0 137 40l52 -118q-57 -26 -110.5 -38.5t-100.5 -12.5q-63 0 -115 19t-89.5 53.5t-58 82t-20.5 104.5zM294 378
q-35 0 -59 -20t-32 -53h173q-5 33 -27 53t-55 20zM407 613l-66 -95l-211 125l77 110z" />
    <glyph glyph-name="afii10071" unicode="&#x451;" horiz-adv-x="564" 
d="M27 247q0 57 19.5 105t55 82.5t84.5 53.5t108 19q55 0 101.5 -18.5t79.5 -51.5t51.5 -79.5t18.5 -102.5q0 -28 -3 -53h-339q10 -39 44.5 -62t84.5 -23q60 0 137 40l52 -118q-57 -26 -110.5 -38.5t-100.5 -12.5q-63 0 -115 19t-89.5 53.5t-58 82t-20.5 104.5zM294 378
q-35 0 -59 -20t-32 -53h173q-5 33 -27 53t-55 20zM87 625q0 40 24.5 65t64.5 25t64.5 -25t24.5 -65t-24.5 -64.5t-64.5 -24.5t-64.5 24.5t-24.5 64.5zM323 625q0 40 24.5 65t64.5 25t64.5 -25t24.5 -65t-24.5 -64.5t-64.5 -24.5t-64.5 24.5t-24.5 64.5z" />
    <glyph glyph-name="afii10099" unicode="&#x452;" 
d="M52 534h-51v118h51v52h176v-52h149v-118h-149v-81q59 54 148 54q44 0 80.5 -14.5t62.5 -40t40.5 -61.5t14.5 -79v-357q0 -39 -13.5 -71.5t-38 -55.5t-58.5 -35.5t-76 -12.5q-59 0 -123 16l22 130q31 -6 58 -6q25 0 39 14t14 39v310q0 35 -22 57.5t-56 22.5
q-40 0 -66 -25.5t-26 -65.5v-272h-176v534z" />
    <glyph glyph-name="afii10100" unicode="&#x453;" horiz-adv-x="446" 
d="M52 495h368v-133h-192v-362h-176v495zM199 518l-66 95l200 140l76 -110z" />
    <glyph glyph-name="afii10101" unicode="&#x454;" horiz-adv-x="524" 
d="M27 247q0 57 20.5 104.5t57 82t87 54t110.5 19.5q107 0 203 -60l-67 -106q-28 18 -55 27.5t-56 9.5q-42 0 -72.5 -19t-44.5 -52h201v-111h-204q12 -38 43.5 -58.5t76.5 -20.5q29 0 56 9.5t55 27.5l67 -107q-97 -59 -203 -59q-60 0 -110.5 19t-87 53.5t-57 82t-20.5 104.5
z" />
    <glyph glyph-name="afii10102" unicode="&#x455;" horiz-adv-x="476" 
d="M31 347q0 34 15 63.5t42.5 51t65.5 33.5t84 12q47 0 95.5 -9.5t99.5 -26.5l-37 -125q-38 14 -74.5 23t-69.5 9q-49 0 -49 -31q0 -15 18 -21.5t45.5 -12t59.5 -13t59.5 -24.5t45.5 -46t18 -78q0 -36 -15.5 -66t-43 -51.5t-66.5 -34t-86 -12.5q-101 0 -211 40l37 125
q87 -36 159 -36q26 0 39.5 9.5t13.5 25.5q0 15 -18 22.5t-45.5 13t-59 13.5t-59 24.5t-45.5 45t-18 76.5z" />
    <glyph glyph-name="afii10103" unicode="&#x456;" horiz-adv-x="281" 
d="M52 495h176v-495h-176v495zM40 625q0 45 28 73t72 28q45 0 73 -28t28 -73q0 -44 -28 -72t-73 -28q-44 0 -72 28t-28 72z" />
    <glyph glyph-name="afii10104" unicode="&#x457;" horiz-adv-x="281" 
d="M52 495h176v-495h-176v495zM-67 625q0 40 24.5 65t64.5 25t64.5 -25t24.5 -65t-24.5 -64.5t-64.5 -24.5t-64.5 24.5t-24.5 64.5zM169 625q0 40 24.5 65t64.5 25t64.5 -25t24.5 -65t-24.5 -64.5t-64.5 -24.5t-64.5 24.5t-24.5 64.5z" />
    <glyph glyph-name="afii10105" unicode="&#x458;" horiz-adv-x="289" 
d="M236 -45q0 -39 -13.5 -71.5t-37.5 -55.5t-58 -35.5t-76 -12.5q-59 0 -124 16l22 130q33 -6 58 -6t39 14t14 39v522h176v-540zM48 625q0 45 28 73t72 28q45 0 73 -28t28 -73q0 -44 -28 -72t-73 -28q-44 0 -72 28t-28 72z" />
    <glyph glyph-name="afii10106" unicode="&#x459;" horiz-adv-x="868" 
d="M405 362h-127v-183q0 -43 -14 -78t-39.5 -60t-60.5 -39t-78 -14q-17 0 -37 1t-40 5l15 137q19 -3 33 -3q24 0 38 17t14 48v302h458v-158h98q40 0 74 -12.5t58.5 -35t38 -53t13.5 -67.5t-13.5 -68t-38 -53.5t-58 -35t-73.5 -12.5h-261v362zM567 127h71q20 0 33 11.5
t13 30.5q0 18 -13 30t-33 12h-71v-84z" />
    <glyph glyph-name="afii10107" unicode="&#x45a;" horiz-adv-x="852" 
d="M52 495h169v-173h168v173h162v-173h106q39 0 71 -12t55.5 -33.5t36.5 -51t13 -64.5t-13 -64.5t-36.5 -51t-55.5 -33.5t-71 -12h-268v197h-168v-197h-169v495zM551 120h72q21 0 33 11.5t12 29.5q0 19 -12 30.5t-34 11.5h-71v-83z" />
    <glyph glyph-name="afii10108" unicode="&#x45b;" 
d="M52 534h-51v118h51v52h176v-52h149v-118h-149v-82q29 26 66 40.5t82 14.5q44 0 80.5 -14.5t62.5 -40t40.5 -61t14.5 -78.5v-313h-176v284q0 35 -22 57t-56 22q-41 0 -66.5 -27t-25.5 -71v-265h-176v534z" />
    <glyph glyph-name="afii10109" unicode="&#x45c;" horiz-adv-x="553" 
d="M52 495h169v-176h22l121 176h184l-164 -236l179 -259h-191l-125 187h-26v-187h-169v495zM244 518l-66 95l200 140l76 -110z" />
    <glyph glyph-name="uni045D" unicode="&#x45d;" 
d="M52 495h162v-260l187 260h165v-495h-162v260l-186 -260h-166v495zM422 613l-66 -95l-211 125l77 110z" />
    <glyph glyph-name="afii10110" unicode="&#x45e;" horiz-adv-x="554" 
d="M347 -38q-71 -182 -223 -182q-17 0 -39.5 2.5t-45.5 7.5l22 136q25 -6 45 -6q29 0 48.5 15t33.5 50l9 22l-201 488h184l97 -297l97 297h184zM209 703q2 -29 20.5 -45t47.5 -16t47.5 16t20.5 45h111q-2 -42 -16 -75.5t-37.5 -56.5t-56 -35t-69.5 -12q-38 0 -70 12
t-55.5 35t-38 56.5t-15.5 75.5h111z" />
    <glyph glyph-name="afii10193" unicode="&#x45f;" 
d="M52 495h176v-363h162v363h176v-495h-176v-160h-162v160h-176v495z" />
    <glyph glyph-name="afii10050" unicode="&#x490;" horiz-adv-x="543" 
d="M69 672h287v160h169v-300h-273v-532h-183v672z" />
    <glyph glyph-name="afii10098" unicode="&#x491;" horiz-adv-x="446" 
d="M52 495h207v160h161v-293h-192v-362h-176v495z" />
    <glyph glyph-name="uni0492" unicode="&#x492;" horiz-adv-x="559" 
d="M85 250h-68v133h68v289h456v-140h-273v-149h158v-133h-158v-250h-183v250z" />
    <glyph glyph-name="uni0493" unicode="&#x493;" horiz-adv-x="454" 
d="M60 169h-51v126h51v200h368v-133h-192v-67h101v-126h-101v-169h-176v169z" />
    <glyph glyph-name="uni049A" unicode="&#x49a;" horiz-adv-x="745" 
d="M69 672h176v-258h51l194 258h198l-242 -319l160 -213h129v-316h-169v176h-64l-199 274h-58v-274h-176v672z" />
    <glyph glyph-name="uni049B" unicode="&#x49b;" horiz-adv-x="592" 
d="M52 495h169v-176h22l121 176h184l-162 -233l90 -130h105v-292h-161v160h-48l-123 187h-28v-187h-169v495z" />
    <glyph glyph-name="uni04A2" unicode="&#x4a2;" horiz-adv-x="835" 
d="M536 0v274h-284v-274h-183v672h183v-258h284v258h183v-532h96v-316h-168v176h-111z" />
    <glyph glyph-name="uni04A3" unicode="&#x4a3;" horiz-adv-x="649" 
d="M52 495h176v-179h162v179h176v-363h64v-292h-162v160h-78v183h-162v-183h-176v495z" />
    <glyph glyph-name="uni04AE" unicode="&#x4ae;" horiz-adv-x="634" 
d="M225 260l-244 412h198l138 -250l138 250h198l-244 -412v-260h-184v260z" />
    <glyph glyph-name="uni04AF" unicode="&#x4af;" horiz-adv-x="554" 
d="M189 18l-193 477h184l97 -289l97 289h184l-193 -477v-226h-176v226z" />
    <glyph glyph-name="uni04B0" unicode="&#x4b0;" horiz-adv-x="634" 
d="M225 201h-128v140h81l-197 331h198l138 -250l138 250h198l-197 -331h81v-140h-128v-201h-184v201z" />
    <glyph glyph-name="uni04B1" unicode="&#x4b1;" horiz-adv-x="554" 
d="M189 -29h-116v117h89l-166 407h184l97 -289l97 289h184l-166 -407h89v-117h-116v-179h-176v179z" />
    <glyph glyph-name="uni04BA" unicode="&#x4ba;" horiz-adv-x="724" 
d="M252 417q48 8 93.5 13t88.5 5q54 0 99.5 -17.5t78.5 -49t51 -75.5t18 -96v-197h-184v183q0 48 -29 78.5t-77 30.5q-63 0 -139 -14v-278h-183v672h183v-255z" />
    <glyph glyph-name="uni04BB" unicode="&#x4bb;" 
d="M52 704h176v-252q29 26 66 40.5t82 14.5q44 0 80.5 -14.5t62.5 -40t40.5 -61t14.5 -78.5v-313h-176v284q0 35 -22 57t-56 22q-41 0 -66.5 -27t-25.5 -71v-265h-176v704z" />
    <glyph glyph-name="uni04D8" unicode="&#x4d8;" horiz-adv-x="725" 
d="M697 336q0 -77 -25.5 -141t-72 -110t-111 -71.5t-141.5 -25.5q-73 0 -133.5 24.5t-104.5 68.5t-68.5 106t-24.5 137q0 31 3 63h492q-11 74 -66.5 115.5t-140.5 41.5q-42 0 -90.5 -12.5t-102.5 -39.5l-59 125q70 34 137 50.5t137 16.5q81 0 149 -25.5t117.5 -71t77 -109.5
t27.5 -142zM347 128q66 0 109.5 37.5t54.5 103.5h-316q6 -65 47.5 -103t104.5 -38z" />
    <glyph glyph-name="afii10846" unicode="&#x4d9;" horiz-adv-x="564" 
d="M537 247q0 -57 -19.5 -104.5t-55 -82t-84.5 -53.5t-108 -19q-56 0 -102 18.5t-79 51.5t-51.5 79t-18.5 102q0 27 3 54h339q-10 39 -44.5 62t-84.5 23q-60 0 -137 -40l-52 117q57 27 110 39.5t101 12.5q63 0 115 -19t89.5 -53.5t58 -82.5t20.5 -105zM270 117q35 0 59 20
t32 53h-173q4 -33 26 -53t56 -20z" />
    <glyph glyph-name="uni04E8" unicode="&#x4e8;" horiz-adv-x="788" 
d="M28 336q0 76 27 140t75 110.5t115.5 72t148.5 25.5t148.5 -25.5t116 -72t75.5 -110.5t27 -140q0 -77 -27 -140.5t-75.5 -110t-116 -72t-148.5 -25.5t-148.5 25.5t-115.5 72t-75 110t-27 140.5zM394 124q73 0 123.5 43t64.5 114h-376q14 -71 64.5 -114t123.5 -43zM394 548
q-69 0 -117.5 -38.5t-65.5 -102.5h366q-17 64 -65.5 102.5t-117.5 38.5z" />
    <glyph glyph-name="uni04E9" unicode="&#x4e9;" 
d="M27 247q0 57 21 105t58.5 82.5t89 53.5t113.5 19t114 -19t89.5 -53.5t58 -82.5t20.5 -105t-20.5 -104.5t-58 -82t-89.5 -53.5t-114 -19t-113.5 19t-89 53.5t-58.5 82t-21 104.5zM309 109q43 0 74 24.5t42 66.5h-233q12 -42 43 -66.5t74 -24.5zM309 385q-41 0 -71 -22.5
t-42 -59.5h227q-14 37 -43.5 59.5t-70.5 22.5z" />
    <glyph glyph-name="Wgrave" unicode="&#x1e80;" horiz-adv-x="1028" 
d="M815 0h-178l-123 452l-122 -452h-178l-213 672h183l123 -452l123 452h169l122 -452l123 452h183zM627 790l-66 -95l-211 125l77 110z" />
    <glyph glyph-name="wgrave" unicode="&#x1e81;" horiz-adv-x="810" 
d="M646 0h-169l-72 296l-72 -296h-169l-160 495h176l72 -296l72 296h162l72 -296l72 296h176zM518 613l-66 -95l-211 125l77 110z" />
    <glyph glyph-name="Wacute" unicode="&#x1e82;" horiz-adv-x="1028" 
d="M815 0h-178l-123 452l-122 -452h-178l-213 672h183l123 -452l123 452h169l122 -452l123 452h183zM482 695l-66 95l200 140l76 -110z" />
    <glyph glyph-name="wacute" unicode="&#x1e83;" horiz-adv-x="810" 
d="M646 0h-169l-72 296l-72 -296h-169l-160 495h176l72 -296l72 296h162l72 -296l72 296h176zM373 518l-66 95l200 140l76 -110z" />
    <glyph glyph-name="Wdieresis" unicode="&#x1e84;" horiz-adv-x="1028" 
d="M815 0h-178l-123 452l-122 -452h-178l-213 672h183l123 -452l123 452h169l122 -452l123 452h183zM307 802q0 40 24.5 65t64.5 25t64.5 -25t24.5 -65t-24.5 -64.5t-64.5 -24.5t-64.5 24.5t-24.5 64.5zM543 802q0 40 24.5 65t64.5 25t64.5 -25t24.5 -65t-24.5 -64.5
t-64.5 -24.5t-64.5 24.5t-24.5 64.5z" />
    <glyph glyph-name="wdieresis" unicode="&#x1e85;" horiz-adv-x="810" 
d="M646 0h-169l-72 296l-72 -296h-169l-160 495h176l72 -296l72 296h162l72 -296l72 296h176zM198 625q0 40 24.5 65t64.5 25t64.5 -25t24.5 -65t-24.5 -64.5t-64.5 -24.5t-64.5 24.5t-24.5 64.5zM434 625q0 40 24.5 65t64.5 25t64.5 -25t24.5 -65t-24.5 -64.5t-64.5 -24.5
t-64.5 24.5t-24.5 64.5z" />
    <glyph glyph-name="uni1E9E" unicode="&#x1e9e;" horiz-adv-x="788" 
d="M69 672h660v-103l-113 -152q65 -28 101 -81.5t36 -122.5q0 -50 -19 -91t-53.5 -71t-82 -46.5t-104.5 -16.5q-105 0 -206 59l63 133q35 -22 68.5 -35.5t59.5 -13.5q42 0 68 22.5t26 59.5q0 40 -31 65t-79 25h-23l-26 81l109 148h-278v-532h-176v672z" />
    <glyph glyph-name="Ygrave" unicode="&#x1ef2;" horiz-adv-x="634" 
d="M225 260l-244 412h198l138 -250l138 250h198l-244 -412v-260h-184v260zM430 790l-66 -95l-211 125l77 110z" />
    <glyph glyph-name="ygrave" unicode="&#x1ef3;" horiz-adv-x="554" 
d="M347 -38q-71 -182 -223 -182q-17 0 -39.5 2.5t-45.5 7.5l22 136q25 -6 45 -6q29 0 48.5 15t33.5 50l9 22l-201 488h184l97 -297l97 297h184zM390 613l-66 -95l-211 125l77 110z" />
    <glyph glyph-name="uni2010" unicode="&#x2010;" horiz-adv-x="320" 
d="M17 319h286v-132h-286v132z" />
    <glyph glyph-name="uni2011" unicode="&#x2011;" horiz-adv-x="320" 
d="M17 319h286v-132h-286v132z" />
    <glyph glyph-name="figuredash" unicode="&#x2012;" horiz-adv-x="576" 
d="M33 391h510v-110h-510v110z" />
    <glyph glyph-name="endash" unicode="&#x2013;" horiz-adv-x="480" 
d="M17 319h446v-132h-446v132z" />
    <glyph glyph-name="emdash" unicode="&#x2014;" horiz-adv-x="960" 
d="M17 319h926v-132h-926v132z" />
    <glyph glyph-name="afii00208" unicode="&#x2015;" horiz-adv-x="960" 
d="M17 319h926v-132h-926v132z" />
    <glyph glyph-name="quoteleft" unicode="&#x2018;" horiz-adv-x="282" 
d="M245 442q0 -45 -29 -74.5t-75 -29.5q-47 0 -75.5 33.5t-28.5 87.5q0 70 38 131.5t108 104.5l51 -67q-50 -43 -72 -89q38 -6 60.5 -32.5t22.5 -64.5z" />
    <glyph glyph-name="quoteright" unicode="&#x2019;" horiz-adv-x="282" 
d="M37 583q0 45 29 74.5t75 29.5q47 0 76 -33t29 -87q0 -70 -38.5 -132t-107.5 -104l-52 67q25 21 43 43.5t29 45.5q-38 5 -60.5 31.5t-22.5 64.5z" />
    <glyph glyph-name="quotesinglbase" unicode="&#x201a;" horiz-adv-x="250" 
d="M37 92q0 45 29 74.5t75 29.5q47 0 76 -33t29 -87q0 -70 -38.5 -132t-107.5 -104l-52 67q25 21 43 43.5t29 45.5q-38 5 -60.5 31.5t-22.5 64.5z" />
    <glyph glyph-name="quotedblleft" unicode="&#x201c;" horiz-adv-x="529" 
d="M245 442q0 -45 -29 -74.5t-75 -29.5q-47 0 -75.5 33.5t-28.5 87.5q0 70 38 131.5t108 104.5l51 -67q-50 -43 -72 -89q38 -6 60.5 -32.5t22.5 -64.5zM493 442q0 -45 -29 -74.5t-75 -29.5q-47 0 -75.5 33.5t-28.5 87.5q0 70 38 131.5t108 104.5l51 -67q-50 -43 -72 -89
q38 -6 60.5 -32.5t22.5 -64.5z" />
    <glyph glyph-name="quotedblright" unicode="&#x201d;" horiz-adv-x="529" 
d="M37 583q0 45 29 74.5t75 29.5q47 0 76 -33t29 -87q0 -70 -38.5 -132t-107.5 -104l-52 67q25 21 43 43.5t29 45.5q-38 5 -60.5 31.5t-22.5 64.5zM284 583q0 45 29 74.5t75 29.5q47 0 76 -33t29 -87q0 -70 -38.5 -132t-107.5 -104l-52 67q25 21 43 43.5t29 45.5
q-38 5 -60.5 31.5t-22.5 64.5z" />
    <glyph glyph-name="quotedblbase" unicode="&#x201e;" horiz-adv-x="529" 
d="M37 92q0 45 29 74.5t75 29.5q47 0 76 -33t29 -87q0 -70 -38.5 -132t-107.5 -104l-52 67q25 21 43 43.5t29 45.5q-38 5 -60.5 31.5t-22.5 64.5zM284 92q0 45 29 74.5t75 29.5q47 0 76 -33t29 -87q0 -70 -38.5 -132t-107.5 -104l-52 67q25 21 43 43.5t29 45.5
q-38 5 -60.5 31.5t-22.5 64.5z" />
    <glyph glyph-name="dagger" unicode="&#x2020;" horiz-adv-x="509" 
d="M188 385h-155v132h155v155h133v-155h155v-132h-155v-385h-133v385z" />
    <glyph glyph-name="daggerdbl" unicode="&#x2021;" horiz-adv-x="509" 
d="M188 155h-155v132h155v98h-155v132h155v155h133v-155h155v-132h-155v-98h155v-132h-155v-155h-133v155z" />
    <glyph glyph-name="bullet" unicode="&#x2022;" horiz-adv-x="480" 
d="M96 288q0 30 11 56t30.5 45.5t46 31t56.5 11.5t56 -11.5t45.5 -31t31 -45.5t11.5 -56t-11.5 -56.5t-31 -46t-45.5 -30.5t-56 -11t-56.5 11t-46 30.5t-30.5 46t-11 56.5z" />
    <glyph glyph-name="ellipsis" unicode="&#x2026;" horiz-adv-x="960" 
d="M56 92q0 46 29.5 75t74.5 29t74.5 -29t29.5 -75q0 -45 -29.5 -74.5t-74.5 -29.5t-74.5 29.5t-29.5 74.5zM376 92q0 46 29.5 75t74.5 29t74.5 -29t29.5 -75q0 -45 -29.5 -74.5t-74.5 -29.5t-74.5 29.5t-29.5 74.5zM696 92q0 46 29.5 75t74.5 29t74.5 -29t29.5 -75
q0 -45 -29.5 -74.5t-74.5 -29.5t-74.5 29.5t-29.5 74.5z" />
    <glyph glyph-name="perthousand" unicode="&#x2030;" horiz-adv-x="1276" 
d="M872 168q0 39 14 72t39 57t59.5 37.5t75.5 13.5t75.5 -13.5t60 -37.5t39.5 -57t14 -72t-14 -72t-39.5 -57t-60 -37.5t-75.5 -13.5t-75.5 13.5t-59.5 37.5t-39 57t-14 72zM1001 168q0 -36 16.5 -58t42.5 -22q27 0 43.5 22t16.5 58t-16.5 58t-43.5 22q-26 0 -42.5 -22
t-16.5 -58zM460 168q0 39 14 72t39 57t60 37.5t76 13.5t75.5 -13.5t59.5 -37.5t39 -57t14 -72t-14 -72t-39 -57t-59.5 -37.5t-75.5 -13.5t-76 13.5t-60 37.5t-39 57t-14 72zM589 168q0 -36 16.5 -58t43.5 -22q26 0 42.5 22t16.5 58t-16.5 58t-42.5 22q-27 0 -43.5 -22
t-16.5 -58zM27 504q0 39 14 72t39 57t59.5 37.5t75.5 13.5t75.5 -13.5t60 -37.5t39.5 -57t14 -72t-14 -72t-39.5 -57t-60 -37.5t-75.5 -13.5t-75.5 13.5t-59.5 37.5t-39 57t-14 72zM156 504q0 -36 16.5 -58t42.5 -22q27 0 43.5 22t16.5 58t-16.5 58t-43.5 22
q-26 0 -42.5 -22t-16.5 -58zM640 705l88 -66l-504 -672l-88 66z" />
    <glyph glyph-name="guilsinglleft" unicode="&#x2039;" horiz-adv-x="346" 
d="M25 290l199 224l103 -81l-133 -180l133 -179l-103 -81l-199 223v74z" />
    <glyph glyph-name="guilsinglright" unicode="&#x203a;" horiz-adv-x="346" 
d="M321 216l-199 -223l-103 81l134 179l-134 180l103 81l199 -224v-74z" />
    <glyph glyph-name="fraction" unicode="&#x2044;" horiz-adv-x="192" 
d="M304 705l88 -66l-504 -672l-88 66z" />
    <glyph glyph-name="zero.sup" unicode="&#x2070;" horiz-adv-x="441" 
d="M33 592q0 101 50.5 158t137.5 57q85 0 136.5 -57t51.5 -158q0 -50 -13.5 -90t-38.5 -68t-59.5 -42.5t-76.5 -14.5q-86 0 -137 57t-51 158zM161 592q0 -118 60 -118q59 0 59 118t-59 118q-60 0 -60 -118z" />
    <glyph glyph-name="four.sup" unicode="&#x2074;" horiz-adv-x="388" 
d="M211 461h-188v88l179 251h121v-249h42v-90h-42v-77h-112v77zM211 551v115l-81 -115h81z" />
    <glyph glyph-name="five.sup" unicode="&#x2075;" horiz-adv-x="347" 
d="M305 704h-151v-53h22q62 0 102.5 -36t40.5 -98q0 -30 -12.5 -56t-34 -45t-52 -29.5t-66.5 -10.5q-39 0 -74 10.5t-67 30.5l46 87q21 -13 43 -20.5t40 -7.5q23 0 37.5 11.5t14.5 31.5q0 23 -17 35t-46 12q-43 0 -89 -10v244h263v-96z" />
    <glyph glyph-name="six.sup" unicode="&#x2076;" horiz-adv-x="398" 
d="M33 579q0 52 14 94t39.5 72t61.5 46.5t80 16.5q61 0 126 -31l-41 -87q-19 10 -39.5 16t-38.5 6q-35 0 -57 -17.5t-27 -49.5q36 21 79 21q30 0 55.5 -10t44.5 -28t29.5 -43.5t10.5 -55.5q0 -34 -12.5 -62t-34 -48.5t-51.5 -31.5t-66 -11q-81 0 -127 54t-46 149zM152 524
q0 -23 14.5 -37.5t37.5 -14.5t38 14t15 37q0 22 -14.5 36t-37.5 14q-24 0 -38.5 -13t-14.5 -36z" />
    <glyph glyph-name="seven.sup" unicode="&#x2077;" horiz-adv-x="330" 
d="M174 700h-165v100h301v-79l-141 -337h-131z" />
    <glyph glyph-name="eight.sup" unicode="&#x2078;" horiz-adv-x="398" 
d="M199 635q21 5 33.5 17t12.5 27q0 18 -13 28.5t-33 10.5t-33 -11t-13 -28q0 -15 12.5 -27t33.5 -17zM28 502q0 33 17.5 57t49.5 38q-27 14 -42 36t-15 54q0 54 44.5 87.5t116.5 33.5t116.5 -33.5t44.5 -87.5q0 -65 -53 -90q29 -13 46 -37.5t17 -57.5q0 -29 -12.5 -52
t-35 -39.5t-54.5 -25.5t-70 -9t-69 9t-53.5 25.5t-35 39.5t-12.5 52zM199 559q-23 -5 -38 -18t-15 -30q0 -22 15 -34t38 -12t38 12t15 34q0 17 -15 30t-38 18z" />
    <glyph glyph-name="nine.sup" unicode="&#x2079;" horiz-adv-x="398" 
d="M365 605q0 -52 -14 -94t-39.5 -72t-61.5 -46.5t-80 -16.5q-61 0 -126 31l41 87q19 -10 39.5 -16t38.5 -6q35 0 57 17.5t27 49.5q-36 -21 -79 -21q-30 0 -55.5 10t-44.5 28t-29.5 43.5t-10.5 55.5q0 34 12.5 62t34 48t51.5 31.5t66 11.5q81 0 127 -54t46 -149zM246 660
q0 23 -14.5 37.5t-37.5 14.5t-38 -14t-15 -37q0 -22 14.5 -36t37.5 -14q24 0 38.5 13t14.5 36z" />
    <glyph glyph-name="plus.sup" unicode="&#x207a;" horiz-adv-x="376" 
d="M30 644h106v106h104v-106h106v-104h-106v-106h-104v106h-106v104z" />
    <glyph glyph-name="minus.sup" unicode="&#x207b;" horiz-adv-x="376" 
d="M30 644h316v-104h-316v104z" />
    <glyph glyph-name="equal.sup" unicode="&#x207c;" horiz-adv-x="376" 
d="M30 729h316v-103h-316v103zM30 558h316v-103h-316v103z" />
    <glyph glyph-name="parenleft.sup" unicode="&#x207d;" horiz-adv-x="249" 
d="M242 828q-46 -54 -66.5 -113.5t-20.5 -122.5t20.5 -122.5t66.5 -113.5l-89 -57q-57 60 -85.5 135t-28.5 158t28.5 158t85.5 135z" />
    <glyph glyph-name="parenright.sup" unicode="&#x207e;" horiz-adv-x="249" 
d="M7 356q46 54 66.5 113.5t20.5 122.5t-20.5 122.5t-66.5 113.5l89 57q57 -60 85.5 -135t28.5 -158t-28.5 -158t-85.5 -135z" />
    <glyph glyph-name="zero.sub" unicode="&#x2080;" horiz-adv-x="441" 
d="M33 80q0 101 50.5 158t137.5 57q85 0 136.5 -57t51.5 -158q0 -50 -13.5 -90t-38.5 -68t-59.5 -42.5t-76.5 -14.5q-86 0 -137 57t-51 158zM161 80q0 -118 60 -118q59 0 59 118t-59 118q-60 0 -60 -118z" />
    <glyph glyph-name="one.sub" unicode="&#x2081;" horiz-adv-x="289" 
d="M237 -128h-126v294l-75 -41l-44 83l141 80h104v-416z" />
    <glyph glyph-name="two.sub" unicode="&#x2082;" horiz-adv-x="347" 
d="M19 -49l125 126q20 20 30 35.5t10 30.5q0 21 -12.5 33.5t-34.5 12.5q-21 0 -40.5 -8.5t-41.5 -22.5l-47 93q79 45 155 45q33 0 59.5 -10t46 -27.5t30 -42t10.5 -53.5q0 -35 -14 -65t-45 -60l-66 -66h130v-100h-295v79z" />
    <glyph glyph-name="three.sub" unicode="&#x2083;" horiz-adv-x="347" 
d="M94 127h40q23 0 36 11t13 26t-10 24.5t-28 9.5q-21 0 -44.5 -6.5t-48.5 -17.5l-39 89q79 33 156 33q31 0 57 -8.5t44.5 -24.5t29 -37.5t10.5 -47.5q0 -31 -13 -54.5t-38 -35.5q26 -12 43.5 -39t17.5 -62q0 -27 -11 -49.5t-31.5 -39t-48 -25.5t-60.5 -9q-41 0 -82.5 8.5
t-83.5 27.5l39 88q26 -12 51 -19t49 -7q21 0 34.5 10.5t13.5 27.5q0 18 -15 30.5t-41 12.5h-40v84z" />
    <glyph glyph-name="four.sub" unicode="&#x2084;" horiz-adv-x="388" 
d="M211 -51h-188v88l179 251h121v-249h42v-90h-42v-77h-112v77zM211 39v115l-81 -115h81z" />
    <glyph glyph-name="five.sub" unicode="&#x2085;" horiz-adv-x="347" 
d="M305 192h-151v-53h22q62 0 102.5 -36t40.5 -98q0 -30 -12.5 -56t-34 -45t-52 -29.5t-66.5 -10.5q-39 0 -74 10.5t-67 30.5l46 87q21 -13 43 -20.5t40 -7.5q23 0 37.5 11.5t14.5 31.5q0 23 -17 35t-46 12q-43 0 -89 -10v244h263v-96z" />
    <glyph glyph-name="six.sub" unicode="&#x2086;" horiz-adv-x="398" 
d="M33 67q0 52 14 94t39.5 72t61.5 46.5t80 16.5q61 0 126 -31l-41 -87q-19 10 -39.5 16t-38.5 6q-35 0 -57 -17.5t-27 -49.5q36 21 79 21q30 0 55.5 -10t44.5 -28t29.5 -43.5t10.5 -55.5q0 -34 -12.5 -62t-34 -48.5t-51.5 -31.5t-66 -11q-81 0 -127 54t-46 149zM152 12
q0 -23 14.5 -37.5t37.5 -14.5t38 14t15 37q0 22 -14.5 36t-37.5 14q-24 0 -38.5 -13t-14.5 -36z" />
    <glyph glyph-name="seven.sub" unicode="&#x2087;" horiz-adv-x="330" 
d="M174 188h-165v100h301v-79l-141 -337h-131z" />
    <glyph glyph-name="eight.sub" unicode="&#x2088;" horiz-adv-x="398" 
d="M199 123q21 5 33.5 17t12.5 27q0 18 -13 28.5t-33 10.5t-33 -11t-13 -28q0 -15 12.5 -27t33.5 -17zM28 -10q0 33 17.5 57t49.5 38q-27 14 -42 36t-15 54q0 54 44.5 87.5t116.5 33.5t116.5 -33.5t44.5 -87.5q0 -65 -53 -90q29 -13 46 -37.5t17 -57.5q0 -29 -12.5 -52
t-35 -39.5t-54.5 -25.5t-70 -9t-69 9t-53.5 25.5t-35 39.5t-12.5 52zM199 47q-23 -5 -38 -18t-15 -30q0 -22 15 -34t38 -12t38 12t15 34q0 17 -15 30t-38 18z" />
    <glyph glyph-name="nine.sub" unicode="&#x2089;" horiz-adv-x="398" 
d="M365 93q0 -52 -14 -94t-39.5 -72t-61.5 -46.5t-80 -16.5q-61 0 -126 31l41 87q19 -10 39.5 -16t38.5 -6q35 0 57 17.5t27 49.5q-36 -21 -79 -21q-30 0 -55.5 10t-44.5 28t-29.5 43.5t-10.5 55.5q0 34 12.5 62t34 48t51.5 31.5t66 11.5q81 0 127 -54t46 -149zM246 148
q0 23 -14.5 37.5t-37.5 14.5t-38 -14t-15 -37q0 -22 14.5 -36t37.5 -14q24 0 38.5 13t14.5 36z" />
    <glyph glyph-name="plus.sub" unicode="&#x208a;" horiz-adv-x="376" 
d="M30 132h106v106h104v-106h106v-104h-106v-106h-104v106h-106v104z" />
    <glyph glyph-name="minus.sub" unicode="&#x208b;" horiz-adv-x="376" 
d="M30 132h316v-104h-316v104z" />
    <glyph glyph-name="equal.sub" unicode="&#x208c;" horiz-adv-x="376" 
d="M30 217h316v-103h-316v103zM30 46h316v-103h-316v103z" />
    <glyph glyph-name="parenleft.sub" unicode="&#x208d;" horiz-adv-x="249" 
d="M242 316q-46 -54 -66.5 -113.5t-20.5 -122.5t20.5 -122.5t66.5 -113.5l-89 -57q-57 60 -85.5 135t-28.5 158t28.5 158t85.5 135z" />
    <glyph glyph-name="parenright.sub" unicode="&#x208e;" horiz-adv-x="249" 
d="M7 -156q46 54 66.5 113.5t20.5 122.5t-20.5 122.5t-66.5 113.5l89 57q57 -60 85.5 -135t28.5 -158t-28.5 -158t-85.5 -135z" />
    <glyph glyph-name="Euro" unicode="&#x20ac;" horiz-adv-x="576" 
d="M25 324h52q-1 4 -1 12v14.5t1 13.5h-52v104h72q33 102 108.5 159t178.5 57q107 0 196 -51l-62 -118q-26 16 -53.5 24.5t-58.5 8.5q-44 0 -78.5 -22t-50.5 -58h191v-104h-222q-1 -7 -1 -13.5v-14.5v-12h223v-104h-199q17 -44 52.5 -70t84.5 -26q31 0 58.5 8.5t53.5 24.5
l62 -118q-89 -51 -196 -51q-53 0 -99 16t-84 46t-66 73t-44 97h-66v104z" />
    <glyph glyph-name="afii61248" unicode="&#x2105;" horiz-adv-x="861" 
d="M633 705l89 -66l-504 -672l-89 66zM453 164q0 37 14 68.5t39.5 54.5t61 35.5t77.5 12.5t77.5 -12.5t61 -35.5t39.5 -54.5t14 -68.5q0 -38 -14 -69.5t-39.5 -54.5t-61 -35.5t-77.5 -12.5t-77.5 12.5t-61 35.5t-39.5 54.5t-14 69.5zM585 164q0 -32 17 -52t43 -20t43 20
t17 52t-17 52t-43 20t-43 -20t-17 -52zM24 508q0 38 14 69.5t39 54.5t59 35.5t75 12.5q34 0 68 -10.5t68 -30.5l-52 -85q-17 11 -34 18t-34 7q-32 0 -52 -20t-20 -51t20 -50.5t52 -19.5q17 0 34 7t34 18l52 -85q-68 -41 -136 -41q-41 0 -75 12.5t-59 35.5t-39 54t-14 69z
" />
    <glyph glyph-name="litre" unicode="&#x2113;" horiz-adv-x="425" 
d="M407 543q0 -81 -47.5 -159.5t-145.5 -147.5v-59q0 -22 14.5 -35.5t38.5 -13.5q14 0 31 2.5t34 5.5l22 -132q-60 -16 -116 -16q-40 0 -74 13t-59 36t-39 55t-14 71v369q0 42 14 76t38.5 58t58.5 37t74 13q37 0 68.5 -13t54 -36t35 -55t12.5 -69zM275 520q0 24 -8 39.5
t-23 15.5q-14 0 -22 -14.5t-8 -37.5v-133q32 32 46.5 63.5t14.5 66.5z" />
    <glyph glyph-name="numero" unicode="&#x2116;" horiz-adv-x="1221" 
d="M69 672h176l306 -423v423h168v-672h-176l-305 423v-423h-169v672zM822 293h365v-89h-365v89zM813 516q0 37 14 68.5t39.5 54.5t60.5 35.5t77 12.5t77.5 -12.5t61 -35.5t39.5 -54.5t14 -68.5q0 -38 -14 -69.5t-39.5 -54.5t-61 -35.5t-77.5 -12.5t-77 12.5t-60.5 35.5
t-39.5 54.5t-14 69.5zM945 516q0 -32 16.5 -52t42.5 -20q27 0 43.5 20t16.5 52t-16.5 52t-43.5 20q-26 0 -42.5 -20t-16.5 -52z" />
    <glyph glyph-name="uni2117" unicode="&#x2117;" horiz-adv-x="832" 
d="M48 336q0 81 27 148.5t76 116.5t116.5 76t148.5 27t148.5 -27t116.5 -76t76 -116.5t27 -148.5t-27 -148.5t-76 -116.5t-116.5 -76t-148.5 -27t-148.5 27t-116.5 76t-76 116.5t-27 148.5zM137 336q0 -62 20.5 -113t57.5 -88t88 -57.5t113 -20.5q61 0 112.5 20.5t88.5 57.5
t57.5 88t20.5 113q0 61 -20.5 112.5t-57.5 88.5t-88.5 57.5t-112.5 20.5q-62 0 -113 -20.5t-88 -57.5t-57.5 -88.5t-20.5 -112.5zM260 544h191q36 0 65.5 -11t50.5 -30.5t33 -46.5t12 -60q0 -32 -12 -59t-33 -46.5t-50.5 -30.5t-65.5 -11h-69v-121h-122v416zM382 347h53
q24 0 39 13.5t15 35.5q0 23 -15 36t-39 13h-53v-98z" />
    <glyph glyph-name="uni2120" unicode="&#x2120;" horiz-adv-x="957" 
d="M439 672h128l108 -152l108 152h127v-416h-120v239l-78 -113h-74l-81 113v-239h-118v416zM30 549q0 59 45.5 95t120.5 36q77 0 158 -31l-32 -96q-30 11 -60 17.5t-56 6.5q-46 0 -46 -28q0 -13 15.5 -18.5t38 -10.5t49.5 -11.5t49.5 -21t38 -39t15.5 -65.5q0 -30 -12 -55
t-34.5 -42.5t-53.5 -27.5t-70 -10q-40 0 -83 8.5t-87 26.5l32 96q35 -14 67.5 -21.5t60.5 -7.5q25 0 37.5 9t12.5 24q0 14 -15.5 20.5t-38 11.5t-49.5 11.5t-49.5 20.5t-38 38t-15.5 64z" />
    <glyph glyph-name="trademark" unicode="&#x2122;" horiz-adv-x="963" 
d="M132 572h-113v100h359v-100h-113v-316h-133v316zM445 672h127l108 -152l108 152h127v-416h-120v239l-78 -113h-74l-81 113v-239h-117v416z" />
    <glyph glyph-name="uni2126" unicode="&#x2126;" horiz-adv-x="812" 
d="M35 140h121q-48 47 -73 104.5t-25 122.5q0 70 25.5 128t71.5 100t110 65.5t141 23.5q76 0 140 -23.5t110 -65.5t71.5 -100t25.5 -128q0 -65 -24.5 -122.5t-73.5 -104.5h122v-140h-328v118q54 44 87.5 101.5t33.5 133.5q0 42 -11.5 76.5t-32.5 59t-51.5 38.5t-68.5 14
t-68.5 -14t-52 -38.5t-33 -59t-11.5 -76.5q0 -76 34 -133.5t88 -101.5v-118h-328v140z" />
    <glyph glyph-name="estimated" unicode="&#x212e;" horiz-adv-x="960" 
d="M480 16q73 0 135.5 30t107.5 82h66q-53 -66 -133 -105t-176 -39q-80 0 -149.5 27.5t-122 75.5t-82.5 112t-30 137t30 137t82.5 112t122 75.5t149.5 27.5q79 0 149 -27.5t122.5 -75.5t82.5 -112t30 -137q0 -11 -1 -16h-623v-196q44 -51 106 -79.5t134 -28.5zM240 352h480
v196q-45 50 -106.5 79t-133.5 29t-134 -29t-106 -79v-196z" />
    <glyph glyph-name="onethird" unicode="&#x2153;" horiz-adv-x="960" 
d="M284 256h-126v294l-75 -41l-44 83l141 80h104v-416zM688 705l88 -66l-504 -672l-88 66zM688 255h40q23 0 36 11t13 26t-10 24.5t-28 9.5q-21 0 -44.5 -6.5t-48.5 -17.5l-39 89q79 33 156 33q31 0 57 -8.5t44.5 -24.5t29 -37.5t10.5 -47.5q0 -31 -13 -54.5t-38 -35.5
q26 -12 43.5 -39t17.5 -62q0 -27 -11 -49.5t-31.5 -39t-48 -25.5t-60.5 -9q-41 0 -82.5 8.5t-83.5 27.5l39 88q26 -12 51 -19t49 -7q21 0 34.5 10.5t13.5 27.5q0 18 -15 30.5t-41 12.5h-40v84z" />
    <glyph glyph-name="twothirds" unicode="&#x2154;" horiz-adv-x="960" 
d="M37 335l125 126q20 20 30 35.5t10 30.5q0 21 -12.5 33.5t-34.5 12.5q-21 0 -40.5 -8.5t-41.5 -22.5l-47 93q79 45 155 45q33 0 59.5 -10t46 -27.5t30 -42t10.5 -53.5q0 -35 -14 -65t-45 -60l-66 -66h130v-100h-295v79zM688 705l88 -66l-504 -672l-88 66zM688 255h40
q23 0 36 11t13 26t-10 24.5t-28 9.5q-21 0 -44.5 -6.5t-48.5 -17.5l-39 89q79 33 156 33q31 0 57 -8.5t44.5 -24.5t29 -37.5t10.5 -47.5q0 -31 -13 -54.5t-38 -35.5q26 -12 43.5 -39t17.5 -62q0 -27 -11 -49.5t-31.5 -39t-48 -25.5t-60.5 -9q-41 0 -82.5 8.5t-83.5 27.5
l39 88q26 -12 51 -19t49 -7q21 0 34.5 10.5t13.5 27.5q0 18 -15 30.5t-41 12.5h-40v84z" />
    <glyph glyph-name="uni2155" unicode="&#x2155;" horiz-adv-x="960" 
d="M284 256h-126v294l-75 -41l-44 83l141 80h104v-416zM688 705l88 -66l-504 -672l-88 66zM899 320h-151v-53h22q62 0 102.5 -36t40.5 -98q0 -30 -12.5 -56t-34 -45t-52 -29.5t-66.5 -10.5q-39 0 -74 10.5t-67 30.5l46 87q21 -13 43 -20.5t40 -7.5q23 0 37.5 11.5t14.5 31.5
q0 23 -17 35t-46 12q-43 0 -89 -10v244h263v-96z" />
    <glyph glyph-name="uni2156" unicode="&#x2156;" horiz-adv-x="960" 
d="M37 335l125 126q20 20 30 35.5t10 30.5q0 21 -12.5 33.5t-34.5 12.5q-21 0 -40.5 -8.5t-41.5 -22.5l-47 93q79 45 155 45q33 0 59.5 -10t46 -27.5t30 -42t10.5 -53.5q0 -35 -14 -65t-45 -60l-66 -66h130v-100h-295v79zM688 705l88 -66l-504 -672l-88 66zM899 320h-151
v-53h22q62 0 102.5 -36t40.5 -98q0 -30 -12.5 -56t-34 -45t-52 -29.5t-66.5 -10.5q-39 0 -74 10.5t-67 30.5l46 87q21 -13 43 -20.5t40 -7.5q23 0 37.5 11.5t14.5 31.5q0 23 -17 35t-46 12q-43 0 -89 -10v244h263v-96z" />
    <glyph glyph-name="uni2157" unicode="&#x2157;" horiz-adv-x="960" 
d="M112 511h40q23 0 36 11t13 26t-10 24.5t-28 9.5q-21 0 -44.5 -6.5t-48.5 -17.5l-39 89q79 33 156 33q31 0 57 -8.5t44.5 -24.5t29 -37.5t10.5 -47.5q0 -31 -13 -54.5t-38 -35.5q26 -12 43.5 -39t17.5 -62q0 -27 -11 -49.5t-31.5 -39t-48 -25.5t-60.5 -9q-41 0 -82.5 8.5
t-83.5 27.5l39 88q26 -12 51 -19t49 -7q21 0 34.5 10.5t13.5 27.5q0 18 -15 30.5t-41 12.5h-40v84zM688 705l88 -66l-504 -672l-88 66zM899 320h-151v-53h22q62 0 102.5 -36t40.5 -98q0 -30 -12.5 -56t-34 -45t-52 -29.5t-66.5 -10.5q-39 0 -74 10.5t-67 30.5l46 87
q21 -13 43 -20.5t40 -7.5q23 0 37.5 11.5t14.5 31.5q0 23 -17 35t-46 12q-43 0 -89 -10v244h263v-96z" />
    <glyph glyph-name="uni2158" unicode="&#x2158;" horiz-adv-x="960" 
d="M209 333h-188v88l179 251h121v-249h42v-90h-42v-77h-112v77zM209 423v115l-81 -115h81zM688 705l88 -66l-504 -672l-88 66zM899 320h-151v-53h22q62 0 102.5 -36t40.5 -98q0 -30 -12.5 -56t-34 -45t-52 -29.5t-66.5 -10.5q-39 0 -74 10.5t-67 30.5l46 87q21 -13 43 -20.5
t40 -7.5q23 0 37.5 11.5t14.5 31.5q0 23 -17 35t-46 12q-43 0 -89 -10v244h263v-96z" />
    <glyph glyph-name="uni2159" unicode="&#x2159;" horiz-adv-x="960" 
d="M284 256h-126v294l-75 -41l-44 83l141 80h104v-416zM688 705l88 -66l-504 -672l-88 66zM602 195q0 52 14 94t39.5 72t61.5 46.5t80 16.5q61 0 126 -31l-41 -87q-19 10 -39.5 16t-38.5 6q-35 0 -57 -17.5t-27 -49.5q36 21 79 21q30 0 55.5 -10t44.5 -28t29.5 -43.5
t10.5 -55.5q0 -34 -12.5 -62t-34 -48.5t-51.5 -31.5t-66 -11q-81 0 -127 54t-46 149zM721 140q0 -23 14.5 -37.5t37.5 -14.5t38 14t15 37q0 22 -14.5 36t-37.5 14q-24 0 -38.5 -13t-14.5 -36z" />
    <glyph glyph-name="uni215A" unicode="&#x215a;" horiz-adv-x="960" 
d="M323 576h-151v-53h22q62 0 102.5 -36t40.5 -98q0 -30 -12.5 -56t-34 -45t-52 -29.5t-66.5 -10.5q-39 0 -74 10.5t-67 30.5l46 87q21 -13 43 -20.5t40 -7.5q23 0 37.5 11.5t14.5 31.5q0 23 -17 35t-46 12q-43 0 -89 -10v244h263v-96zM688 705l88 -66l-504 -672l-88 66z
M602 195q0 52 14 94t39.5 72t61.5 46.5t80 16.5q61 0 126 -31l-41 -87q-19 10 -39.5 16t-38.5 6q-35 0 -57 -17.5t-27 -49.5q36 21 79 21q30 0 55.5 -10t44.5 -28t29.5 -43.5t10.5 -55.5q0 -34 -12.5 -62t-34 -48.5t-51.5 -31.5t-66 -11q-81 0 -127 54t-46 149zM721 140
q0 -23 14.5 -37.5t37.5 -14.5t38 14t15 37q0 22 -14.5 36t-37.5 14q-24 0 -38.5 -13t-14.5 -36z" />
    <glyph glyph-name="oneeighth" unicode="&#x215b;" horiz-adv-x="960" 
d="M284 256h-126v294l-75 -41l-44 83l141 80h104v-416zM688 705l88 -66l-504 -672l-88 66zM768 251q21 5 33.5 17t12.5 27q0 18 -13 28.5t-33 10.5t-33 -11t-13 -28q0 -15 12.5 -27t33.5 -17zM597 118q0 33 17.5 57t49.5 38q-27 14 -42 36t-15 54q0 54 44.5 87.5t116.5 33.5
t116.5 -33.5t44.5 -87.5q0 -65 -53 -90q29 -13 46 -37.5t17 -57.5q0 -29 -12.5 -52t-35 -39.5t-54.5 -25.5t-70 -9t-69 9t-53.5 25.5t-35 39.5t-12.5 52zM768 175q-23 -5 -38 -18t-15 -30q0 -22 15 -34t38 -12t38 12t15 34q0 17 -15 30t-38 18z" />
    <glyph glyph-name="threeeighths" unicode="&#x215c;" horiz-adv-x="960" 
d="M112 511h40q23 0 36 11t13 26t-10 24.5t-28 9.5q-21 0 -44.5 -6.5t-48.5 -17.5l-39 89q79 33 156 33q31 0 57 -8.5t44.5 -24.5t29 -37.5t10.5 -47.5q0 -31 -13 -54.5t-38 -35.5q26 -12 43.5 -39t17.5 -62q0 -27 -11 -49.5t-31.5 -39t-48 -25.5t-60.5 -9q-41 0 -82.5 8.5
t-83.5 27.5l39 88q26 -12 51 -19t49 -7q21 0 34.5 10.5t13.5 27.5q0 18 -15 30.5t-41 12.5h-40v84zM688 705l88 -66l-504 -672l-88 66zM768 251q21 5 33.5 17t12.5 27q0 18 -13 28.5t-33 10.5t-33 -11t-13 -28q0 -15 12.5 -27t33.5 -17zM597 118q0 33 17.5 57t49.5 38
q-27 14 -42 36t-15 54q0 54 44.5 87.5t116.5 33.5t116.5 -33.5t44.5 -87.5q0 -65 -53 -90q29 -13 46 -37.5t17 -57.5q0 -29 -12.5 -52t-35 -39.5t-54.5 -25.5t-70 -9t-69 9t-53.5 25.5t-35 39.5t-12.5 52zM768 175q-23 -5 -38 -18t-15 -30q0 -22 15 -34t38 -12t38 12t15 34
q0 17 -15 30t-38 18z" />
    <glyph glyph-name="fiveeighths" unicode="&#x215d;" horiz-adv-x="960" 
d="M323 576h-151v-53h22q62 0 102.5 -36t40.5 -98q0 -30 -12.5 -56t-34 -45t-52 -29.5t-66.5 -10.5q-39 0 -74 10.5t-67 30.5l46 87q21 -13 43 -20.5t40 -7.5q23 0 37.5 11.5t14.5 31.5q0 23 -17 35t-46 12q-43 0 -89 -10v244h263v-96zM688 705l88 -66l-504 -672l-88 66z
M768 251q21 5 33.5 17t12.5 27q0 18 -13 28.5t-33 10.5t-33 -11t-13 -28q0 -15 12.5 -27t33.5 -17zM597 118q0 33 17.5 57t49.5 38q-27 14 -42 36t-15 54q0 54 44.5 87.5t116.5 33.5t116.5 -33.5t44.5 -87.5q0 -65 -53 -90q29 -13 46 -37.5t17 -57.5q0 -29 -12.5 -52
t-35 -39.5t-54.5 -25.5t-70 -9t-69 9t-53.5 25.5t-35 39.5t-12.5 52zM768 175q-23 -5 -38 -18t-15 -30q0 -22 15 -34t38 -12t38 12t15 34q0 17 -15 30t-38 18z" />
    <glyph glyph-name="seveneighths" unicode="&#x215e;" horiz-adv-x="960" 
d="M201 572h-165v100h301v-79l-141 -337h-131zM688 705l88 -66l-504 -672l-88 66zM768 251q21 5 33.5 17t12.5 27q0 18 -13 28.5t-33 10.5t-33 -11t-13 -28q0 -15 12.5 -27t33.5 -17zM597 118q0 33 17.5 57t49.5 38q-27 14 -42 36t-15 54q0 54 44.5 87.5t116.5 33.5
t116.5 -33.5t44.5 -87.5q0 -65 -53 -90q29 -13 46 -37.5t17 -57.5q0 -29 -12.5 -52t-35 -39.5t-54.5 -25.5t-70 -9t-69 9t-53.5 25.5t-35 39.5t-12.5 52zM768 175q-23 -5 -38 -18t-15 -30q0 -22 15 -34t38 -12t38 12t15 34q0 17 -15 30t-38 18z" />
    <glyph glyph-name="uni215F" unicode="&#x215f;" horiz-adv-x="576" 
d="M284 256h-126v294l-75 -41l-44 83l141 80h104v-416zM688 705l88 -66l-504 -672l-88 66z" />
    <glyph glyph-name="arrowleft" unicode="&#x2190;" horiz-adv-x="960" 
d="M333 207l164 -156l-117 -111l-348 348l348 348l117 -111l-164 -156h595v-162h-595z" />
    <glyph glyph-name="arrowup" unicode="&#x2191;" horiz-adv-x="960" 
d="M399 435l-156 -164l-111 117l348 348l348 -348l-111 -117l-156 164v-595h-162v595z" />
    <glyph glyph-name="arrowright" unicode="&#x2192;" horiz-adv-x="960" 
d="M627 369l-164 156l117 111l348 -348l-348 -348l-117 111l164 156h-595v162h595z" />
    <glyph glyph-name="arrowdown" unicode="&#x2193;" horiz-adv-x="960" 
d="M561 141l156 164l111 -117l-348 -348l-348 348l111 117l156 -164v595h162v-595z" />
    <glyph glyph-name="uni2196" unicode="&#x2196;" horiz-adv-x="960" 
d="M319 335l6 -227l-162 5v492h492l5 -162l-227 6l421 -421l-114 -114z" />
    <glyph glyph-name="uni2197" unicode="&#x2197;" horiz-adv-x="960" 
d="M527 449l-227 -6l5 162h492v-492l-162 -5l6 227l-421 -421l-114 114z" />
    <glyph glyph-name="uni2198" unicode="&#x2198;" horiz-adv-x="960" 
d="M641 241l-6 227l162 -5v-492h-492l-5 162l227 -6l-421 421l114 114z" />
    <glyph glyph-name="uni2199" unicode="&#x2199;" horiz-adv-x="960" 
d="M433 127l227 6l-5 -162h-492v492l162 5l-6 -227l421 421l114 -114z" />
    <glyph glyph-name="partialdiff" unicode="&#x2202;" 
d="M27 263q0 52 17.5 96.5t48.5 77.5t73.5 51.5t91.5 18.5q39 0 76 -11t69 -34q-7 58 -44 88t-88 30q-30 0 -62 -9.5t-68 -26.5l-59 125q97 47 203 47q69 0 124.5 -25t94 -72.5t59 -116t20.5 -155.5q0 -84 -20.5 -151t-58.5 -113t-91.5 -70.5t-118.5 -24.5q-59 0 -108.5 20
t-84.5 56.5t-54.5 87t-19.5 111.5zM196 252q0 -54 29.5 -87.5t75.5 -33.5q22 0 41.5 9.5t33.5 26t22.5 39.5t8.5 49q0 48 -29.5 78t-76.5 30q-46 0 -75.5 -30.5t-29.5 -80.5z" />
    <glyph glyph-name="uni2206" unicode="&#x2206;" horiz-adv-x="692" 
d="M19 103l243 569h169l243 -569v-103h-655v103zM209 140h274l-137 333z" />
    <glyph glyph-name="product" unicode="&#x220f;" horiz-adv-x="812" 
d="M69 704h674v-912h-184v772h-307v-772h-183v912z" />
    <glyph glyph-name="summation" unicode="&#x2211;" horiz-adv-x="639" 
d="M20 -101l286 357l-270 341v107h576v-140h-338l208 -267v-82l-224 -283h370v-140h-608v107z" />
    <glyph glyph-name="minus" unicode="&#x2212;" horiz-adv-x="576" 
d="M35 361h506v-146h-506v146z" />
    <glyph glyph-name="uni2215" unicode="&#x2215;" horiz-adv-x="192" 
d="M304 705l88 -66l-504 -672l-88 66z" />
    <glyph glyph-name="radical" unicode="&#x221a;" horiz-adv-x="698" 
d="M452 -208h-179l-96 275l-138 -47l-46 137l280 93l84 -252l195 728l143 -37z" />
    <glyph glyph-name="infinity" unicode="&#x221e;" horiz-adv-x="812" 
d="M19 288q0 47 15 87t41.5 68.5t64 44.5t82.5 16q57 0 100 -22.5t84 -75.5q40 53 83 75.5t101 22.5q45 0 82 -16t64 -44.5t42 -68t15 -87.5q0 -47 -15 -86.5t-42 -68.5t-64 -45t-82 -16q-58 0 -101 22.5t-83 75.5q-41 -53 -84 -75.5t-100 -22.5q-45 0 -82.5 16t-64 44.5
t-41.5 68t-15 87.5zM180 288q0 -36 19 -58t48 -22q27 0 46.5 20t38.5 60q-19 40 -38.5 60t-46.5 20q-29 0 -48 -22.5t-19 -57.5zM631 288q0 36 -18.5 58t-48.5 22q-26 0 -46 -20t-39 -60q19 -40 39 -60t46 -20q30 0 48.5 22.5t18.5 57.5z" />
    <glyph glyph-name="integral" unicode="&#x222b;" horiz-adv-x="428" 
d="M233 503q0 -45 22 -105t48.5 -126.5t48.5 -135t22 -129.5q0 -50 -15.5 -91.5t-44 -71.5t-67.5 -47t-86 -17q-54 0 -108 16l30 136q24 -9 48 -9q28 0 45.5 19.5t17.5 50.5q0 30 -10.5 67t-26 78.5t-33.5 86t-33.5 90t-26 89.5t-10.5 85q0 50 15.5 91.5t43.5 71.5t67.5 47
t86.5 17q53 0 108 -16l-30 -136q-24 9 -49 9q-27 0 -45 -19.5t-18 -50.5z" />
    <glyph glyph-name="approxequal" unicode="&#x2248;" horiz-adv-x="576" 
d="M6 198q42 31 83 46.5t88 15.5q36 0 63.5 -7.5t53 -16.5t50.5 -16.5t55 -7.5q25 0 46.5 9.5t47.5 31.5l77 -125q-42 -31 -83 -47t-88 -16q-36 0 -64 7.5t-53 16.5t-50 16.5t-55 7.5q-25 0 -46.5 -9t-47.5 -31zM6 448q42 31 83 47t88 16q36 0 63.5 -7.5t53 -16.5
t50.5 -16.5t55 -7.5q25 0 46.5 9t47.5 31l77 -125q-42 -31 -83 -46.5t-88 -15.5q-36 0 -64 7.5t-53 16.5t-50 16.5t-55 7.5q-25 0 -46.5 -9.5t-47.5 -31.5z" />
    <glyph glyph-name="notequal" unicode="&#x2260;" horiz-adv-x="576" 
d="M35 479h266l63 127l133 -64l-32 -63h76v-147h-149l-44 -88h193v-147h-267l-62 -125l-133 64l31 61h-75v147h148l45 88h-193v147z" />
    <glyph glyph-name="lessequal" unicode="&#x2264;" horiz-adv-x="576" 
d="M35 147h506v-147h-506v147zM35 511l462 208l59 -139l-323 -142l323 -142l-59 -140l-462 208v147z" />
    <glyph glyph-name="greaterequal" unicode="&#x2265;" horiz-adv-x="576" 
d="M541 364l-462 -208l-59 140l323 142l-323 142l59 139l462 -208v-147zM35 147h506v-147h-506v147z" />
    <glyph glyph-name="uni22C5" unicode="&#x22c5;" horiz-adv-x="282" 
d="M37 253q0 46 29.5 75t74.5 29t74.5 -29t29.5 -75q0 -45 -29.5 -74.5t-74.5 -29.5t-74.5 29.5t-29.5 74.5z" />
    <glyph glyph-name="lozenge" unicode="&#x25ca;" horiz-adv-x="576" 
d="M6 336l209 336h146l209 -336l-209 -336h-146zM182 336l106 -175l106 175l-106 174z" />
    <glyph glyph-name="zero.lprop" unicode="&#xe010;" horiz-adv-x="669" 
d="M44 336q0 81 20.5 145.5t58.5 109.5t92 69t120 24t119.5 -24t91.5 -69t58.5 -109.5t20.5 -145.5t-20.5 -145.5t-58.5 -109.5t-91.5 -69t-119.5 -24t-120 24t-92 69t-58.5 109.5t-20.5 145.5zM223 336q0 -103 28.5 -157.5t83.5 -54.5q54 0 82.5 54.5t28.5 157.5
t-28.5 157.5t-82.5 54.5q-55 0 -83.5 -54.5t-28.5 -157.5z" />
    <glyph glyph-name="one.lprop" unicode="&#xe011;" horiz-adv-x="428" 
d="M175 503l-135 -76l-59 118l223 127h147v-672h-176v503z" />
    <glyph glyph-name="two.lprop" unicode="&#xe012;" horiz-adv-x="527" 
d="M17 110l216 216q35 35 52.5 64.5t17.5 58.5q0 39 -25.5 63.5t-66.5 24.5q-38 0 -70.5 -15t-70.5 -38l-66 129q125 71 243 71q51 0 93 -15.5t72 -43.5t46.5 -66.5t16.5 -84.5q0 -108 -99 -207l-127 -127h234v-140h-466v110z" />
    <glyph glyph-name="three.lprop" unicode="&#xe013;" horiz-adv-x="527" 
d="M147 407h53q45 0 72 20t27 52q0 29 -20 47t-54 18q-36 0 -76 -10.5t-82 -29.5l-55 129q63 27 123 39t119 12q49 0 89.5 -13.5t69.5 -38.5t45.5 -59t16.5 -76q0 -52 -25 -91t-68 -58q24 -9 44 -25t34.5 -38t22.5 -48t8 -54q0 -44 -17.5 -79.5t-49 -61.5t-75 -40t-95.5 -14
q-62 0 -127 12.5t-131 42.5l55 129q44 -21 87.5 -32.5t83.5 -11.5q38 0 63.5 20t25.5 53q0 36 -30.5 58t-80.5 22h-53v126z" />
    <glyph glyph-name="four.lprop" unicode="&#xe014;" horiz-adv-x="589" 
d="M326 132h-301v118l293 422h169v-407h76v-133h-76v-132h-161v132zM326 265v201l-139 -201h139z" />
    <glyph glyph-name="five.lprop" unicode="&#xe015;" horiz-adv-x="527" 
d="M468 532h-255v-109q10 1 21 1h20q54 0 98 -15t75 -43t48 -67.5t17 -88.5q0 -48 -19.5 -88.5t-54 -70.5t-82 -46.5t-104.5 -16.5q-59 0 -114.5 16t-106.5 47l67 129q75 -49 140 -49q47 0 74.5 22t27.5 60q0 43 -32 66.5t-92 23.5q-30 0 -64.5 -4t-72.5 -12v385h409v-140z
" />
    <glyph glyph-name="six.lprop" unicode="&#xe016;" horiz-adv-x="605" 
d="M44 310q0 88 21 157.5t61 117.5t97 73.5t128 25.5q48 0 97.5 -11t97.5 -36l-59 -125q-32 17 -65 26.5t-64 9.5q-63 0 -103.5 -37.5t-45.5 -107.5q29 22 64 34t75 12q49 0 90 -16t70.5 -45.5t46 -70t16.5 -88.5q0 -53 -18.5 -97t-52 -76t-80 -50t-101.5 -18q-65 0 -116 22
t-86 63.5t-54 101.5t-19 135zM217 228q0 -46 26.5 -75t68.5 -29t69.5 28t27.5 70t-26 68t-68 26q-43 0 -70.5 -24.5t-27.5 -63.5z" />
    <glyph glyph-name="seven.lprop" unicode="&#xe017;" horiz-adv-x="493" 
d="M284 532h-281v140h472v-110l-237 -562h-184z" />
    <glyph glyph-name="eight.lprop" unicode="&#xe018;" horiz-adv-x="605" 
d="M303 407q37 10 59.5 27.5t22.5 48.5q0 30 -23 49.5t-59 19.5t-59 -19.5t-23 -49.5q0 -31 22.5 -48.5t59.5 -27.5zM36 186q0 53 29 94t82 64q-44 22 -69.5 61t-25.5 89q0 43 18 78t51 60t79.5 38.5t102.5 13.5t102.5 -13.5t79.5 -38.5t51 -60t18 -78q0 -50 -25.5 -89
t-69.5 -61q53 -24 82 -64.5t29 -93.5q0 -45 -19 -81.5t-54.5 -62.5t-84.5 -40t-109 -14t-109 14t-84.5 40t-54.5 62.5t-19 81.5zM303 281q-42 -11 -66.5 -31.5t-24.5 -52.5q0 -35 25.5 -56t65.5 -21t65.5 21t25.5 56q0 32 -24.5 52.5t-66.5 31.5z" />
    <glyph glyph-name="nine.lprop" unicode="&#xe019;" horiz-adv-x="605" 
d="M562 362q0 -89 -21.5 -158.5t-61 -117.5t-96.5 -73t-128 -25q-48 0 -97.5 11t-97.5 36l59 125q32 -17 65 -26.5t64 -9.5q63 0 103.5 37.5t45.5 107.5q-29 -22 -64 -34t-75 -12q-49 0 -90 16t-70.5 45.5t-46 70t-16.5 88.5q0 53 18.5 97t52 76t80 50t101.5 18
q64 0 115.5 -22t86.5 -63.5t54 -101.5t19 -135zM389 444q0 46 -26.5 75t-68.5 29t-69.5 -28t-27.5 -70t26 -68t68 -26q43 0 70.5 24.5t27.5 63.5z" />
    <glyph glyph-name="dollar.lprop" unicode="&#xe01a;" horiz-adv-x="532" 
d="M193 41q-41 5 -82.5 14.5t-83.5 26.5l41 136q49 -20 96.5 -31t86.5 -11q74 0 74 46q0 18 -22 27t-54.5 16.5t-70.5 17t-70.5 29t-54.5 53t-22 89.5q0 66 44.5 112t117.5 62v172h146v-169q69 -10 146 -39l-41 -136q-45 19 -86 29.5t-77 10.5q-35 0 -52.5 -11t-17.5 -31
q0 -18 22 -26t54.5 -14.5t70.5 -15.5t70.5 -29t54.5 -55t22 -92q0 -69 -45.5 -115.5t-120.5 -62.5v-172h-146v169z" />
    <glyph glyph-name="cent.lprop" unicode="&#xe01b;" horiz-adv-x="557" 
d="M51 336q0 46 13.5 86t38 72t59 54.5t76.5 34.5v153h146v-146q76 -10 145 -54l-70 -118q-28 17 -53.5 27.5t-53.5 10.5q-54 0 -87.5 -33t-33.5 -87t33.5 -87t87.5 -33q28 0 53.5 10.5t53.5 27.5l70 -118q-68 -43 -145 -55v-145h-146v153q-42 12 -76.5 34.5t-59 54.5
t-38 72t-13.5 86z" />
    <glyph glyph-name="Euro.lprop" unicode="&#xe01c;" horiz-adv-x="575" 
d="M24 324h52q-1 4 -1 12v14.5t1 13.5h-52v104h72q33 102 108.5 159t178.5 57q107 0 196 -51l-62 -118q-26 16 -53.5 24.5t-58.5 8.5q-44 0 -78.5 -22t-50.5 -58h191v-104h-222q-1 -7 -1 -13.5v-14.5v-12h223v-104h-199q17 -44 52.5 -70t84.5 -26q31 0 58.5 8.5t53.5 24.5
l62 -118q-89 -51 -196 -51q-53 0 -99 16t-84 46t-66 73t-44 97h-66v104z" />
    <glyph glyph-name="sterling.lprop" unicode="&#xe01d;" horiz-adv-x="575" 
d="M50 136h83v142h-67v132h67v59q0 47 17.5 86.5t49 68t74 44.5t93.5 16q42 0 86.5 -9t92.5 -26l-44 -129q-25 10 -49.5 15.5t-49.5 5.5q-38 0 -62.5 -24t-24.5 -62v-45h157v-132h-157v-142h224v-136h-490v136z" />
    <glyph glyph-name="yen.lprop" unicode="&#xe01e;" 
d="M217 104h-129v118h129v41h-129v117h85l-176 292h191l121 -233l121 233h191l-176 -292h85v-117h-129v-41h129v-118h-129v-104h-184v104z" />
    <glyph glyph-name="zero.otab" unicode="&#xe020;" horiz-adv-x="576" 
d="M20 263q0 60 19.5 110.5t55 87.5t85 57.5t108.5 20.5t108.5 -20.5t85 -57.5t55 -87.5t19.5 -110.5t-19.5 -110.5t-55 -87t-85 -57t-108.5 -20.5t-108.5 20.5t-85 57t-55 87t-19.5 110.5zM182 263q0 -60 29 -97.5t77 -37.5t77 37.5t29 97.5t-29 98t-77 38t-77 -38t-29 -98
z" />
    <glyph glyph-name="one.otab" unicode="&#xe021;" horiz-adv-x="576" 
d="M417 0h-176v357l-96 -52l-66 117l191 105h147v-527z" />
    <glyph glyph-name="two.otab" unicode="&#xe022;" horiz-adv-x="576" 
d="M74 110l183 143q27 21 39 40.5t12 41.5q0 26 -17.5 43t-46.5 17q-26 0 -54.5 -11t-62.5 -30l-66 125q108 60 219 60q46 0 83.5 -13.5t64.5 -38t41.5 -58.5t14.5 -76t-20.5 -84t-63.5 -76l-76 -61h168v-132h-418v110z" />
    <glyph glyph-name="three.otab" unicode="&#xe023;" horiz-adv-x="576" 
d="M164 262h53q45 0 72 20t27 52q0 29 -20 47t-54 18q-36 0 -76 -11t-82 -29l-55 128q63 28 123 40t119 12q49 0 89.5 -14t69.5 -38.5t45.5 -59t16.5 -75.5q0 -52 -25 -91t-68 -58q48 -18 78.5 -62.5t30.5 -102.5q0 -43 -17.5 -79t-49 -61.5t-75 -39.5t-95.5 -14
q-62 0 -127 12.5t-131 42.5l55 129q44 -21 87.5 -32.5t83.5 -11.5q38 0 63.5 20t25.5 52q0 36 -30.5 58.5t-80.5 22.5h-53v125z" />
    <glyph glyph-name="four.otab" unicode="&#xe024;" horiz-adv-x="576" 
d="M319 0h-301v110l293 417h169v-395h76v-132h-76v-144h-161v144zM319 132v203l-139 -203h139z" />
    <glyph glyph-name="five.otab" unicode="&#xe025;" horiz-adv-x="576" 
d="M501 387h-255v-109q10 1 21 1.5t20 0.5q54 0 98 -15.5t75 -43.5t48 -67.5t17 -88.5q0 -48 -19.5 -88.5t-54 -70t-82 -46t-104.5 -16.5q-59 0 -114.5 16t-106.5 47l67 129q37 -23 72.5 -36t67.5 -13q47 0 74.5 22t27.5 60q0 42 -32 65.5t-92 23.5q-30 0 -64.5 -4
t-72.5 -12v385h409v-140z" />
    <glyph glyph-name="six.otab" unicode="&#xe026;" horiz-adv-x="576" 
d="M29 309q0 88 21 157.5t61 117.5t97 73.5t128 25.5q48 0 97.5 -11t97.5 -36l-59 -125q-32 17 -65 26.5t-64 9.5q-63 0 -103.5 -37.5t-45.5 -106.5q59 45 139 45q49 0 90 -16t70.5 -45t46 -69.5t16.5 -88.5q0 -53 -18.5 -97t-52 -76t-80 -50t-101.5 -18q-65 0 -116 22
t-86 63.5t-54 101t-19 134.5zM202 227q0 -45 26.5 -74t68.5 -29t69.5 27.5t27.5 70.5q0 42 -26 68t-68 26q-43 0 -70.5 -24.5t-27.5 -64.5z" />
    <glyph glyph-name="seven.otab" unicode="&#xe027;" horiz-adv-x="576" 
d="M325 387h-273v140h464v-111l-237 -560h-183z" />
    <glyph glyph-name="eight.otab" unicode="&#xe028;" horiz-adv-x="576" 
d="M288 406q37 10 59.5 27.5t22.5 48.5q0 30 -23 49t-59 19t-59 -19t-23 -49q0 -31 22.5 -48.5t59.5 -27.5zM21 185q0 53 29 94t82 64q-44 22 -69.5 61t-25.5 89q0 43 18 78t51 60t79.5 38.5t102.5 13.5t102.5 -13.5t79.5 -38.5t51 -60t18 -78q0 -50 -25.5 -89t-69.5 -61
q53 -23 82 -64t29 -94q0 -44 -19 -80.5t-54.5 -62.5t-84.5 -40t-109 -14t-109 14t-84.5 40t-54.5 62.5t-19 80.5zM288 281q-42 -11 -66.5 -32t-24.5 -53q0 -34 25.5 -55t65.5 -21t65.5 21t25.5 55q0 32 -24.5 53t-66.5 32z" />
    </font>
</defs>
</svg>
