<svg xmlns="http://www.w3.org/2000/svg" xmlns:xlink="http://www.w3.org/1999/xlink" width="262" height="262" viewBox="-18 -20 300 300">
<linearGradient id="g" gradientTransform="rotate(90)">
	<stop offset="0" stop-color="#04e0ff" />
	<stop offset="1" stop-color="#e122ff" />
</linearGradient>
<path class="cls-1" fill="url(#g)" d="M830.126,555.263H826V544.738l7.442-7.443,2.918,2.918-6.234,6.234v8.816Zm8.108-16.924-2.918-2.918,13.121-13.12,2.917,2.917Zm15-15-2.918-2.918,13.12-13.12,2.918,2.918Zm15-15-2.918-2.917,13.12-13.121,2.918,2.918Zm14.994-15-2.917-2.917,13.12-13.121,2.918,2.918Zm15-15-2.917-2.917L902.738,468h10.525v4.126h-8.816ZM1088,640.072h-4.13V621.42H1088v18.652Zm0-21.317h-4.13V600.1H1088v18.653Zm0-21.317h-4.13V578.785H1088v18.653Zm0-21.317h-4.13V557.468H1088v18.653Zm0-21.317h-4.13v-8.357l-6.07-6.072,2.92-2.917,7.28,7.28V554.8Zm-12.08-16.313L1062.73,525.3l2.92-2.918,13.19,13.189Zm-15.08-15.073-13.18-13.19,2.91-2.917,13.19,13.189Zm-15.07-15.074-13.19-13.189,2.92-2.918,13.19,13.189Zm-15.07-15.073-13.19-13.189,2.92-2.918,13.19,13.189ZM1015.62,478.2l-6.07-6.071h-8.35V468h10.06l7.28,7.28Zm-17.089-6.071H979.879V468h18.652v4.126Zm-21.317,0H958.561V468h18.653v4.126Zm-21.317,0H937.244V468H955.9v4.126Zm-21.317,0H915.927V468H934.58v4.126ZM1080.56,660.7l-2.92-2.918,6.23-6.233v-8.816H1088v10.525Zm-69.3,69.3h-10.17v-4.126h8.46l5.99-5.983,2.91,2.917Zm-12.829,0H979.8v-4.126h18.631V730Zm-21.293,0h-18.63v-4.126h18.63V730Zm-21.291,0H937.216v-4.126h18.631V730Zm-21.292,0H915.924v-4.126h18.631V730Zm85.775-9.074-2.91-2.917,13.17-13.174,2.92,2.918Zm15.06-15.055-2.92-2.917,13.18-13.174,2.91,2.917Zm15.06-15.056-2.92-2.917,13.17-13.174,2.92,2.917Zm15.05-15.055-2.92-2.918,13.18-13.173,2.92,2.917ZM913.263,730H902.738l-7.442-7.442,2.917-2.918,6.234,6.234h8.816V730Zm-19.849-9.325L880.24,707.5l2.918-2.918,13.173,13.174Zm-15.056-15.056-13.174-13.173,2.918-2.917L881.276,702.7ZM863.3,690.564L850.129,677.39l2.917-2.917,13.174,13.174Zm-15.055-15.056-13.174-13.174,2.918-2.917,13.173,13.174Zm-15.056-15.055L826,653.262v-10.17h4.126v8.461l5.982,5.983Zm-3.065-20.023H826V621.8h4.126v18.63Zm0-21.292H826v-18.63h4.126v18.63Zm0-21.292H826v-18.63h4.126v18.63Zm0-21.292H826v-18.63h4.126v18.63Z" transform="translate(-826 -468)"/>
</svg>