<?xml version="1.0" encoding="utf-8"?>
<svg xmlns="http://www.w3.org/2000/svg" xmlns:xlink="http://www.w3.org/1999/xlink"
viewBox="87 0 138 60.5" xml:space="preserve">
<style type="text/css">
.st0{fill:#EDE9F6;}
</style>
<g>
<path class="st0" d="M107.9,23.8v0.8h-2.3v-0.8c0-0.3-0.1-0.6-0.3-0.8s-0.5-0.3-0.8-0.3H90.5c-0.3,0-0.6,0.1-0.8,0.3
c-0.2,0.2-0.3,0.5-0.3,0.8v4.7c0,0.3,0.1,0.6,0.3,0.8c0.2,0.2,0.5,0.3,0.8,0.3h13.9c1,0,1.8,0.3,2.5,1c0.7,0.7,1,1.5,1,2.5v4.7
c0,1-0.3,1.8-1,2.5c-0.7,0.7-1.5,1-2.5,1H90.5c-1,0-1.8-0.3-2.5-1c-0.7-0.7-1-1.5-1-2.5v-0.8h2.3v0.8c0,0.3,0.1,0.6,0.3,0.8
c0.2,0.2,0.5,0.3,0.8,0.3h13.9c0.3,0,0.6-0.1,0.8-0.3c0.2-0.2,0.3-0.5,0.3-0.8V33c0-0.3-0.1-0.6-0.3-0.8c-0.2-0.2-0.5-0.3-0.8-0.3
H90.5c-1,0-1.8-0.3-2.5-1c-0.7-0.7-1-1.5-1-2.5v-4.7c0-1,0.3-1.8,1-2.5c0.7-0.7,1.5-1,2.5-1h13.9c1,0,1.8,0.3,2.5,1
C107.6,22,107.9,22.8,107.9,23.8z"/>
<path class="st0" d="M124.4,24.4h3.1l-7.6,8.4l7.6,8.4h-3.1l-6.6-7.2h-4.6v7.2h-2.4V18.9h2.4v12.7h4.6L124.4,24.4z"/>
<path class="st0" d="M129.8,18.9h2.4v2.4h-2.4V18.9z M129.8,41.2V24.4h2.4v16.8H129.8z"/>
<path class="st0" d="M149,24.4c1,0,1.8,0.3,2.5,1c0.7,0.7,1,1.5,1,2.5v13.3h-2.4V27.9c0-0.3-0.1-0.6-0.3-0.8
c-0.2-0.2-0.5-0.3-0.8-0.3h-10.1c-0.3,0-0.6,0.1-0.8,0.3s-0.3,0.5-0.3,0.8v13.3h-2.4V24.4H149z"/>
<path class="st0" d="M176.3,22.7h-17.3c-0.3,0-0.6,0.1-0.8,0.3c-0.2,0.2-0.3,0.5-0.3,0.8v13.9c0,0.3,0.1,0.6,0.3,0.8
c0.2,0.2,0.5,0.3,0.8,0.3h17.3v2.3h-17.3c-1,0-1.8-0.3-2.5-1c-0.7-0.7-1-1.5-1-2.5V23.8c0-1,0.3-1.8,1-2.5c0.7-0.7,1.5-1,2.5-1
h17.3V22.7z"/>
<path class="st0" d="M179.1,18.9h2.4v18.8c0,0.3,0.1,0.6,0.3,0.8c0.2,0.2,0.5,0.3,0.8,0.3h2.8v2.4h-2.8c-1,0-1.8-0.3-2.5-1
c-0.7-0.7-1-1.5-1-2.5V18.9z"/>
<path class="st0" d="M202.7,24.4h2.4v13.3c0,1-0.3,1.8-1,2.5c-0.7,0.7-1.5,1-2.5,1h-10.1c-1,0-1.8-0.3-2.5-1c-0.7-0.7-1-1.5-1-2.5
V24.4h2.4v13.3c0,0.3,0.1,0.6,0.3,0.8c0.2,0.2,0.5,0.3,0.8,0.3h10.1c0.3,0,0.6-0.1,0.8-0.3c0.2-0.2,0.3-0.5,0.3-0.8V24.4z"/>
<path class="st0" d="M221.6,24.4c1,0,1.8,0.3,2.5,1c0.7,0.7,1,1.5,1,2.5v9.8c0,1-0.3,1.8-1,2.5c-0.7,0.7-1.5,1-2.5,1H208V18.9h2.4
v5.5H221.6z M222.7,37.7v-9.8c0-0.3-0.1-0.6-0.3-0.8c-0.2-0.2-0.5-0.3-0.8-0.3h-10.1c-0.3,0-0.6,0.1-0.8,0.3s-0.3,0.5-0.3,0.8v9.8
c0,0.3,0.1,0.6,0.3,0.8s0.5,0.3,0.8,0.3h10.1c0.3,0,0.6-0.1,0.8-0.3C222.6,38.3,222.7,38,222.7,37.7z"/>
</g>
</svg>
