<?xml version="1.0" encoding="UTF-8" standalone="no"?>
<svg
xmlns="http://www.w3.org/2000/svg"
viewBox="0 0 200 127.04563"
height="127.04562"
width="200">
<defs
>
<clipPath
clipPathUnits="userSpaceOnUse"
>
<path
d="M 0,792 612,792 612,0 0,0 0,792 Z"
/>
</clipPath>
</defs>
<g
transform="translate(-296.42982,-428.21443)"
>
<g
transform="matrix(0.92593451,0,0,-0.92593451,112.53737,857.68971)">
<path
d="m 414.6,326.621 -215.998,0 0,137.208 215.998,0 0,-137.208 z"
style="fill:#ffffff;fill-opacity:1;fill-rule:nonzero;stroke:none" />
<path
d="m 202.198,348.917 208.798,0 0,-18.722 -208.798,0 0,18.722 z"
style="fill:#f7b600;fill-opacity:1;fill-rule:nonzero;stroke:none"
/>
<path
d="m 202.198,441.51 208.798,0 0,18.72 -208.798,0 0,-18.72 z"
style="fill:#1a1f71;fill-opacity:1;fill-rule:nonzero;stroke:none"
/>
<g
>
<g
clip-path="url(#clipPath4157)">
<g
transform="translate(302.4478,424.6084)">
<path
d="m 0,0 -10.464,-48.917 -12.656,0 L -12.656,0 0,0 Z m 53.24,-31.586 6.664,18.37 3.828,-18.37 -10.492,0 z m 14.127,-17.331 11.701,0 L 68.845,0 58.049,0 C 55.614,0 53.568,-1.413 52.66,-3.586 l -18.99,-45.331 13.29,0 2.636,7.307 16.237,0 1.534,-7.307 z M 34.33,-32.946 c 0.053,12.908 -17.848,13.624 -17.731,19.392 0.043,1.753 1.713,3.62 5.369,4.097 1.811,0.234 6.814,0.421 12.481,-2.19 l 2.217,10.379 c -3.045,1.101 -6.963,2.161 -11.837,2.161 -12.511,0 -21.312,-6.645 -21.382,-16.168 -0.082,-7.044 6.286,-10.97 11.075,-13.316 4.933,-2.396 6.587,-3.936 6.564,-6.077 -0.035,-3.282 -3.939,-4.735 -7.569,-4.789 -6.365,-0.101 -10.055,1.72 -12.998,3.091 l -2.297,-10.723 c 2.961,-1.357 8.418,-2.536 14.07,-2.596 13.3,0 21.999,6.569 22.038,16.739 M -18.085,0 l -20.504,-48.917 -13.378,0 -10.091,39.04 c -0.611,2.399 -1.143,3.282 -3.005,4.296 -3.043,1.653 -8.068,3.199 -12.485,4.161 L -77.25,0 -55.713,0 c 2.741,0 5.209,-1.825 5.836,-4.985 L -44.545,-33.294 -31.382,0 -18.085,0 Z"
style="fill:#1a1f71;fill-opacity:1;fill-rule:nonzero;stroke:none"
/>
</g>      
</g>
</g>
</g>
</g>
</svg>
